<?xml version="1.0" encoding="utf-8"?>
<!-- Generator: Adobe Illustrator 18.0.0, SVG Export Plug-In . SVG Version: 6.00 Build 0)  -->
<!DOCTYPE svg PUBLIC "-//W3C//DTD SVG 1.1//EN" "http://www.w3.org/Graphics/SVG/1.1/DTD/svg11.dtd">
<svg version="1.1" id="Layer_1" xmlns="http://www.w3.org/2000/svg" xmlns:xlink="http://www.w3.org/1999/xlink" x="0px" y="0px"
	 viewBox="0 0 435.2 206.1" enable-background="new 0 0 435.2 206.1" xml:space="preserve">
<g>
	<g>
		<rect x="144" y="14.1" fill="#464D51" width="147.1" height="191.3"/>
	</g>
	<g>
		<polygon fill="#F7F8F8" points="258.6,191.1 154.1,191.1 154.1,28.3 281.1,28.3 281.1,168.7 		"/>
	</g>
	<g>
		<g>
			<path fill="#E8E8E8" d="M228.5,17.1c0-6-4.9-10.9-10.9-10.9c-6,0-10.9,4.9-10.9,10.9h-13.8v22.3h49.3V17.1H228.5z M217.6,13.4
				c2,0,3.7,1.7,3.7,3.7c0,2-1.7,3.7-3.7,3.7c-2,0-3.7-1.7-3.7-3.7C213.9,15.1,215.5,13.4,217.6,13.4z"/>
		</g>
		<g>
			<path fill="#E8E8E8" d="M228.5,17.1c0-6-4.9-10.9-10.9-10.9c-6,0-10.9,4.9-10.9,10.9h-13.8v11.2h49.3V17.1H228.5z M217.6,13.4
				c2,0,3.7,1.7,3.7,3.7c0,2-1.7,3.7-3.7,3.7c-2,0-3.7-1.7-3.7-3.7C213.9,15.1,215.5,13.4,217.6,13.4z"/>
		</g>
		<g>
			<rect x="192.9" y="26" fill="#FFFFFF" width="49.3" height="2.3"/>
		</g>
		<g>
			<rect x="192.9" y="28.3" fill="#D5D7D8" width="49.3" height="2.3"/>
		</g>
	</g>
	<g>
		<g>
			<g>
				<rect x="202.5" y="62.7" fill="#E8E8E8" width="59.2" height="4.6"/>
			</g>
			<g>
				<rect x="202.5" y="86.9" fill="#E8E8E8" width="59.2" height="4.6"/>
			</g>
			<g>
				<rect x="202.5" y="111.2" fill="#E8E8E8" width="59.2" height="4.6"/>
			</g>
		</g>
		<g>
			<polygon fill="#E0634D" points="173.5,62.9 175.3,61.1 181.8,67.6 192.2,57.1 194,59 181.8,71.2 			"/>
		</g>
		<g>
			<polygon fill="#E0634D" points="173.5,87.1 175.3,85.3 181.8,91.8 192.2,81.4 194,83.2 181.8,95.5 			"/>
		</g>
		<g>
			<polygon fill="#E0634D" points="173.5,111.4 175.3,109.6 181.8,116.1 192.2,105.6 194,107.5 181.8,119.7 			"/>
		</g>
		<g>
			<rect x="202.5" y="135.5" fill="#E8E8E8" width="59.2" height="4.6"/>
		</g>
		<g>
			<polygon fill="#E0634D" points="173.5,135.7 175.3,133.9 181.8,140.4 192.2,130 194,131.8 181.8,144 			"/>
		</g>
		<g>
			<rect x="202.5" y="159.6" fill="#E8E8E8" width="59.2" height="4.6"/>
		</g>
		<g>
			<polygon fill="#E0634D" points="173.5,159.8 175.3,158 181.8,164.5 192.2,154.1 194,155.9 181.8,168.1 			"/>
		</g>
	</g>
	<g>
		<polygon fill="#D5D7D8" points="258.6,191.1 258.6,168.7 281.1,168.7 		"/>
	</g>
</g>
<g>
	<g>
		<polygon fill="#333333" points="2185.4,895.3 1750.3,895.3 1816.4,894.6 2120.3,894.6 		"/>
	</g>
	<g>
		<g>
			<path fill="#B3B3B3" d="M2119.2,879.7c0,3.8-1.5,7.6-4.3,10.5c-2.9,2.9-6.7,4.4-10.5,4.4h-273c-3.8,0-7.6-1.5-10.5-4.4
				c-2.9-2.9-4.4-6.7-4.4-10.5v-2.6h302.7V879.7z"/>
		</g>
		<g>
			<path fill="#464D51" d="M2095.7,867.7c0,2.4-0.9,4.8-2.8,6.7c-1.8,1.9-4.3,2.8-6.7,2.8h-242.7c-2.4,0-4.8-0.9-6.7-2.8
				c-1.8-1.8-2.8-4.3-2.8-6.7V704.9c0-2.4,0.9-4.8,2.8-6.7c1.8-1.8,4.3-2.8,6.7-2.8h242.7c2.4,0,4.8,0.9,6.7,2.8
				c1.8,1.8,2.8,4.3,2.8,6.7V867.7z"/>
		</g>
		<g>
			<rect x="1849" y="710.3" fill="#FFFFFF" width="231.9" height="152"/>
		</g>
		<g>
			<rect x="1943.4" y="877.1" fill="#CDCCCC" width="66.6" height="5.9"/>
		</g>
		<g>
			<rect x="1834.1" y="885" fill="#F3F3F3" width="14.8" height="1.7"/>
		</g>
		<g>
			<rect x="1834.1" y="885" fill="#86D5F7" width="7.4" height="1.7"/>
		</g>
		<g>
			<path fill="#51575A" d="M1979.9,702.9c0,1.8-1.4,3.2-3.2,3.2s-3.2-1.4-3.2-3.2c0-1.8,1.4-3.2,3.2-3.2S1979.9,701.1,1979.9,702.9z
				"/>
		</g>
		<g>
			<g>
				<rect x="1849" y="710.3" fill="#F3F3F3" width="231.9" height="17.6"/>
			</g>
			<g>
				<g>
					<path fill="#FFFFFF" d="M1863.2,719.1c0,1.4-1.1,2.6-2.6,2.6c-1.4,0-2.6-1.1-2.6-2.6c0-1.4,1.1-2.6,2.6-2.6
						C1862.1,716.5,1863.2,717.7,1863.2,719.1z"/>
				</g>
				<g>
					<path fill="#FFFFFF" d="M1874.9,719.1c0,1.4-1.1,2.6-2.6,2.6c-1.4,0-2.6-1.1-2.6-2.6c0-1.4,1.2-2.6,2.6-2.6
						C1873.7,716.5,1874.9,717.7,1874.9,719.1z"/>
				</g>
				<g>
					<path fill="#FFFFFF" d="M1886.5,719.1c0,1.4-1.1,2.6-2.6,2.6c-1.4,0-2.6-1.1-2.6-2.6c0-1.4,1.1-2.6,2.6-2.6
						C1885.4,716.5,1886.5,717.7,1886.5,719.1z"/>
				</g>
			</g>
			<g>
				<path fill="#FFFFFF" d="M2067.3,719.7c0,1.5-1.3,2.8-2.8,2.8h-161.6c-1.5,0-2.8-1.3-2.8-2.8v-1.3c0-1.5,1.3-2.8,2.8-2.8h161.6
					c1.5,0,2.8,1.2,2.8,2.8V719.7z"/>
			</g>
		</g>
		<g>
			<g>
				<g>
					<path fill="#E0634D" d="M1940.5,743.6L1940.5,743.6v47.1l42-21.4C1974.7,754,1958.8,743.6,1940.5,743.6z"/>
				</g>
				<g>
					<path fill="#F3F3F3" d="M1916,790.7c0-13.5,11-24.5,24.5-24.5V753c-11.7,0-21.9,4.9-29.3,14c-13.1,16.2-10.6,39.9,5.6,53
						l8.3-10.2C1919.6,805.2,1916,798.4,1916,790.7z"/>
				</g>
				<g>
					<path fill="#464D51" d="M1925.1,809.7l-8.3,10.2c6.1,4.9,12.7,7.6,20.4,8.2l1.1-13.1C1933.4,814.6,1928.8,812.7,1925.1,809.7z"
						/>
				</g>
				<g>
					<path fill="#B6E4FA" d="M1974.1,773.6l-11.7,6c1.7,3.3,2.7,7.1,2.7,11.1c0,13.5-11,24.5-24.5,24.5c-0.7,0-1.4,0-2.1-0.1
						l-1.1,13.1c7.3,0.6,13.8-0.6,20.4-4C1976.1,814.8,1983.5,792.1,1974.1,773.6z"/>
				</g>
				<g>
					<g>
						
							<rect x="1965.6" y="745.9" transform="matrix(0.7074 -0.7068 0.7068 0.7074 49.3267 1611.708)" fill="#D5D7D8" width="11.3" height="0.8"/>
					</g>
					<g>
						<rect x="1974.9" y="742" fill="#D5D7D8" width="45" height="0.7"/>
					</g>
					<g>
						<path fill="#D5D7D8" d="M2022.6,742.3c0,1.5-1.2,2.6-2.6,2.6c-1.5,0-2.6-1.2-2.6-2.6c0-1.5,1.2-2.6,2.6-2.6
							C2021.4,739.6,2022.6,740.8,2022.6,742.3z"/>
					</g>
				</g>
				<g>
					<g>
						<polygon fill="#D5D7D8" points="1993.7,830.3 1975,811.6 1975.6,811.1 1994.2,829.8 						"/>
					</g>
					<g>
						<rect x="1993.7" y="829.5" fill="#D5D7D8" width="34.3" height="0.8"/>
					</g>
					<g>
						<path fill="#D5D7D8" d="M2030.6,829.9c0,1.4-1.2,2.6-2.6,2.6c-1.4,0-2.6-1.2-2.6-2.6c0-1.5,1.2-2.6,2.6-2.6
							C2029.4,827.3,2030.6,828.5,2030.6,829.9z"/>
					</g>
				</g>
				<g>
					<g>
						<polygon fill="#D5D7D8" points="1907.9,846.5 1926.5,827.8 1926,827.3 1907.3,845.9 						"/>
					</g>
					<g>
						<rect x="1873.6" y="845.7" fill="#D5D7D8" width="34.2" height="0.7"/>
					</g>
					<g>
						<path fill="#D5D7D8" d="M1871,846.1c0,1.4,1.2,2.6,2.7,2.6c1.4,0,2.6-1.2,2.6-2.6c0-1.5-1.2-2.6-2.6-2.6
							C1872.1,843.4,1871,844.6,1871,846.1z"/>
					</g>
				</g>
				<g>
					<g>
						<rect x="1862.4" y="783.5" fill="#D5D7D8" width="39.5" height="0.7"/>
					</g>
					<g>
						<path fill="#D5D7D8" d="M1859.7,783.8c0,1.5,1.2,2.6,2.6,2.6c1.5,0,2.6-1.2,2.6-2.6c0-1.5-1.2-2.6-2.6-2.6
							C1860.9,781.2,1859.7,782.4,1859.7,783.8z"/>
					</g>
				</g>
			</g>
			<g>
				<g>
					<rect x="2008.2" y="754.4" fill="#464D51" width="47.1" height="3.1"/>
				</g>
				<g>
					<rect x="2008.2" y="770" fill="#B6E4FA" width="47.1" height="3.1"/>
				</g>
				<g>
					<rect x="2008.2" y="785.6" fill="#E0634D" width="47.1" height="3.1"/>
				</g>
				<g>
					<rect x="2008.2" y="801.3" fill="#F3F3F3" width="47.1" height="3.1"/>
				</g>
			</g>
		</g>
	</g>
</g>
<g>
	<polygon fill="#333333" points="435.2,206.1 0,206.1 66.1,205.3 370,205.3 	"/>
</g>
</svg>
