<?xml version="1.0" encoding="utf-8"?>
<!-- Generator: Adobe Illustrator 18.0.0, SVG Export Plug-In . SVG Version: 6.00 Build 0)  -->
<!DOCTYPE svg PUBLIC "-//W3C//DTD SVG 1.1//EN" "http://www.w3.org/Graphics/SVG/1.1/DTD/svg11.dtd">
<svg version="1.1" id="Layer_1" xmlns="http://www.w3.org/2000/svg" xmlns:xlink="http://www.w3.org/1999/xlink" x="0px" y="0px"
	 viewBox="0 255.6 612 280.8" enable-background="new 0 255.6 612 280.8" xml:space="preserve">
<g opacity="0.2">
	<path fill="#586273" d="M138.5,306.2l1.1,50.6c0,1.5,1.3,2.8,2.9,2.8l36.9-0.8c1.5,0,2.8-1.3,2.8-2.9l-1.1-50.6
		c0-1.5-1.3-2.8-2.9-2.8l-36.9,0.8C139.7,303.4,138.4,304.7,138.5,306.2z"/>
	<path fill="#505969" d="M87.7,332l-10.5-0.6c-2.1-0.1-4,1.3-4.5,3.3l-0.9,0l-4.5-0.3c-0.3-2-2-3.6-4.1-3.7l-10.5-0.6
		c-2.4-0.1-4.5,1.7-4.6,4.1l-0.4,7c-0.1,2.4,1.7,4.5,4.1,4.6l10.5,0.6c2.4,0.1,4.5-1.7,4.6-4.1l0.1-1.8l0,0c0.1-1.5,1.3-2.6,2.8-2.5
		c1.5,0.1,2.5,1.3,2.5,2.8l0,0l-0.1,1.8c-0.1,2.4,1.7,4.5,4.1,4.6l10.5,0.6c2.4,0.1,4.5-1.7,4.6-4.1l0.4-7
		C92,334.2,90.2,332.2,87.7,332z M67.2,337l0-0.9l2.6,0.2C68.9,336.3,68,336.5,67.2,337z M69.9,336.3l2.6,0.2l0,0.9
		C71.8,336.8,70.9,336.4,69.9,336.3z"/>
	<path fill="#586273" d="M314.8,353.4l-1-47.1l-75.9,1.5l-0.1-4.6c-2.9,0-5.1,2.4-5,5.3l0.8,41.3c0,2.8,2.4,5.1,5.2,5l0,0
		L314.8,353.4z"/>
	
		<rect x="387.2" y="436.4" transform="matrix(-0.9996 -2.712123e-02 2.712123e-02 -0.9996 808.5444 950.1391)" fill="#586273" width="47.1" height="66.3"/>
	<path fill="#586273" d="M63,490.5l0-0.3L49.7,489l-0.2,2.7l0,0l-0.8,10c0,0.3,0.2,0.6,0.5,0.7l12.3,1c0.3,0,0.6-0.2,0.7-0.5l1-12
		C63.2,490.7,63.1,490.6,63,490.5z"/>
	
		<rect x="452.4" y="296.6" transform="matrix(-0.987 0.1606 -0.1606 -0.987 998.7231 578.7189)" fill="#586273" width="47.1" height="66.3"/>
	<path fill="#586273" d="M98.9,444.7L98.9,444.7c-3.6,0.8-5.8,4.3-5,7.8v0v0.1l2.7,12c0,0,0,0.1,0,0.1l0.2,0.6l0,0
		c0.8,3.6,4.3,5.7,7.8,4.9c3.6-0.8,5.8-4.4,5-7.9l-2.9-12.9C106,446.1,102.4,443.9,98.9,444.7z"/>
	<path fill="#586273" d="M531.1,504l6-35.5c0.2-1-0.5-1.9-1.5-2.1l-24.6-4.1c-1-0.2-1.9,0.5-2.1,1.5l-0.3,2l-1.2-0.2
		c-0.3,0-0.6,0.2-0.7,0.5c0,0.3,0.2,0.6,0.5,0.7l1.2,0.2l-0.5,3.3l-1.2-0.2c-0.3,0-0.6,0.2-0.7,0.5c0,0.3,0.2,0.6,0.5,0.7l1.2,0.2
		l-0.5,3.3l-1.2-0.2c-0.3,0-0.6,0.2-0.7,0.5c0,0.3,0.2,0.6,0.5,0.7l1.2,0.2l-0.5,3.3l-1.2-0.2c-0.3,0-0.6,0.2-0.7,0.5
		c0,0.3,0.2,0.6,0.5,0.7l1.2,0.2l-0.5,3.3l-1.2-0.2c-0.3,0-0.6,0.2-0.7,0.5c0,0.3,0.2,0.6,0.5,0.7l1.2,0.2l-0.5,3.3l-1.2-0.2
		c-0.3,0-0.6,0.2-0.7,0.5c0,0.3,0.2,0.6,0.5,0.7l1.2,0.2l-0.5,3.3l-1.2-0.2c-0.3,0-0.6,0.2-0.7,0.5c0,0.3,0.2,0.6,0.5,0.7l1.2,0.2
		l-0.5,3.3l-1.2-0.2c-0.3,0-0.6,0.2-0.7,0.5c0,0.3,0.2,0.6,0.5,0.7l1.2,0.2l-0.3,2c-0.2,1,0.5,1.9,1.5,2.1l24.6,4.1
		C530,505.7,530.9,505,531.1,504z"/>
	<path fill="#586273" d="M498.9,411.1l-13.1-6.8c-1-0.5-2.3-0.1-2.8,0.9l-10.1,19.6c-0.5,1-0.1,2.3,0.9,2.8l13.1,6.8
		c1,0.5,2.3,0.1,2.8-0.9l10.1-19.6C500.3,412.9,499.9,411.6,498.9,411.1z"/>
	<polygon fill="#586273" points="447.9,449.1 446.2,448.8 444.5,448.4 436.9,484.9 436.7,485.4 436.7,485.4 435.8,490 437.5,490.3 
		439.3,490.7 	"/>
	<polygon fill="#586273" points="447.8,443.7 447.7,441.9 446.9,443.5 444.5,448.4 447.9,449.1 	"/>
	<path fill="#586273" d="M449.2,355.1l11.9-12.7c0.9-1,0.9-2.6-0.1-3.5l-25.5-23.9c-1-0.9-2.6-0.9-3.5,0.1l-11.9,12.7
		c-1,1-0.9,2.6,0.1,3.5l25.5,23.9C446.7,356.1,448.3,356.1,449.2,355.1z"/>
	<polygon fill="#586273" points="493.9,371 510.2,337.6 510.5,337 510.5,337 512.5,332.8 511,332.1 509.4,331.3 490.7,369.4 
		492.3,370.2 	"/>
	<polygon fill="#586273" points="490.4,375.2 493.9,371 490.7,369.4 489.6,374.8 489.2,376.5 	"/>
	<path fill="#586273" d="M494,486l-0.7-12c0-0.2-0.1-0.3-0.2-0.4v-0.3l-13.4,0.8l0,0.7l0,0l0.1,1.5l0,0.5l0,0l0.6,10
		c0,0.3,0.3,0.6,0.7,0.6l12.4-0.8C493.8,486.6,494,486.3,494,486z"/>
	<polygon fill="#586273" points="125.6,333.7 127.3,333.8 129.1,333.9 131,296.9 131,296.2 131,296.2 131.2,291.5 129.5,291.4 
		127.7,291.3 	"/>
	<polygon fill="#586273" points="126.6,339.1 127,340.9 127.5,339.2 129.1,333.9 125.6,333.7 	"/>
	<path fill="#586273" d="M548.2,341l-0.7,1l-0.7,1c-0.3,0.5-0.2,1.2,0.3,1.6l0.5,0.4l0,0.1l5,3.5c0.5,0.4,1.3,0.2,1.6-0.3l0.7-1
		l0.7-1c0.4-0.5,0.2-1.3-0.3-1.6l-5-3.5l-0.1,0.1l-0.6-0.4C549.2,340.4,548.5,340.5,548.2,341z"/>
	<path fill="#586273" d="M75,493.8c-0.7-0.7-1.9-0.8-2.6,0l-3.4,3.4c-0.5,0.5-0.5,1.3,0,1.9c0.5,0.5,1.3,0.5,1.9,0l3.4-3.3
		c0.3-0.3,0.3-0.8,0-1.1s-0.8-0.3-1.1,0l-2.2,2.1c-0.1,0.1-0.1,0.2,0,0.3s0.2,0.1,0.3,0l2.2-2.1c0.1-0.1,0.3-0.1,0.5,0
		c0.1,0.2,0.1,0.3,0,0.5l-3.4,3.3c-0.3,0.3-0.9,0.3-1.3,0c-0.3-0.3-0.3-0.9,0-1.3l3.4-3.4c0.6-0.6,1.5-0.5,2,0c0.6,0.6,0.5,1.5,0,2
		l-4.2,4.1c-0.1,0.1-0.1,0.2,0,0.3s0.2,0.1,0.3,0l4.2-4.1C75.7,495.7,75.7,494.5,75,493.8z"/>
	<path fill="#586273" d="M400.5,345l-47.2,0.1v4.9l0,0v5h7.2l0,0h0.2h4.8l0,0h0.4h2.1l0,0h0.6l0,0h2.2h0.3l0,0h1.9l0,0h0.6l0,0h1.9
		l0,0h0.6l0,0h1.9l0,0h0.6l0,0h2.3h0.2l0,0h4.5h0.5l0,0h1.9l0,0h0.6l0,0h1.9h0.6l0,0h2.3h0.2l0,0h1.9l0,0h0.3h5L400.5,345z
		 M355.9,349.8C355.9,349.8,355.9,349.8,355.9,349.8c0-0.1,0.1-0.2,0.1-0.2c0,0,0,0,0-0.1c0,0,0-0.1,0.1-0.1c0,0,0,0,0.1-0.1
		c0,0,0-0.1,0.1-0.1c0,0,0,0,0.1-0.1c0,0,0,0,0.1-0.1c0,0,0.1,0,0.1-0.1c0,0,0,0,0.1,0c0,0,0.1,0,0.2,0c0,0,0,0,0.1,0
		c0.1,0,0.2,0,0.2,0c0.1,0,0.2,0,0.2,0c0,0,0,0,0.1,0c0,0,0.1,0,0.2,0c0,0,0.1,0,0.1,0c0,0,0.1,0,0.1,0c0,0,0.1,0,0.1,0.1
		c0,0,0,0,0.1,0.1c0,0,0.1,0.1,0.1,0.1s0,0,0,0.1c0,0,0,0.1,0.1,0.1c0,0,0,0,0,0.1c0,0,0,0.1,0,0.2c0,0,0,0,0,0.1c0,0,0,0.1,0,0.2
		c0,0,0,0.1,0,0.1c0,0.7-0.5,1.1-1.1,1.2c-0.7,0-1.1-0.5-1.2-1.1c0,0,0-0.1,0-0.1C355.8,349.9,355.9,349.8,355.9,349.8z"/>
	
		<rect x="383.9" y="434.8" transform="matrix(-0.9999 1.568602e-02 -1.568602e-02 -0.9999 822.2633 929.3795)" fill="#586273" width="47.1" height="66.3"/>
</g>
<g>
	<polygon fill="#F7F9F8" points="140.4,306.7 141.4,352 178.2,351.2 177.2,305.9 	"/>
</g>
<path fill="#586273" d="M177.1,300.6l-36.9,0.8c-1.5,0-2.8,1.3-2.8,2.9l1.1,50.6c0,1.5,1.3,2.8,2.9,2.8l36.9-0.8
	c1.5,0,2.8-1.3,2.8-2.9l-1.1-50.6C180,301.8,178.7,300.6,177.1,300.6z M178.2,351.2l-36.9,0.8l-1-45.3l36.9-0.8L178.2,351.2z"/>
<g>
	
		<rect x="155.6" y="353.7" transform="matrix(-0.9998 2.194124e-02 -2.194124e-02 -0.9998 327.4451 705.2214)" fill="#464E5C" width="8.4" height="1.4"/>
</g>
<rect x="143.7" y="342" transform="matrix(-0.9998 2.195626e-02 -2.195626e-02 -0.9998 298.3829 688.1721)" fill="#EF8555" width="3.5" height="7.5"/>
<rect x="149.3" y="337" transform="matrix(-0.9998 2.187355e-02 -2.187355e-02 -0.9998 309.4653 682.9376)" fill="#EF8555" width="3.5" height="12.4"/>
<rect x="155.2" y="340.1" transform="matrix(-0.9998 2.178965e-02 -2.178965e-02 -0.9998 321.1342 685.8061)" fill="#EF8555" width="3.2" height="9.1"/>
<rect x="160.8" y="334" transform="matrix(-0.9998 2.195912e-02 -2.195912e-02 -0.9998 332.5617 679.4954)" fill="#EF8555" width="3.5" height="15.1"/>
<rect x="166.5" y="337.9" transform="matrix(-0.9998 2.178393e-02 -2.178393e-02 -0.9998 343.9388 683.1483)" fill="#EF8555" width="3.5" height="11"/>
<rect x="172.3" y="330.8" transform="matrix(-0.9998 2.189572e-02 -2.189572e-02 -0.9998 355.2581 675.777)" fill="#EF8555" width="3.2" height="18"/>
<g>
	<path fill="#62C3ED" d="M144,332.1c-0.2,0-0.5-0.1-0.6-0.3c-0.2-0.3-0.1-0.8,0.2-1l11.1-6.8c0.3-0.2,0.8-0.1,1,0.2
		c0.2,0.3,0.1,0.8-0.2,1l-11.1,6.8C144.2,332.1,144.1,332.1,144,332.1z"/>
</g>
<g>
	<path fill="#62C3ED" d="M161.9,329.8c-0.2,0-0.5-0.1-0.6-0.3c-0.2-0.3-0.1-0.8,0.2-1l12.4-7.7c0.3-0.2,0.8-0.1,1,0.2
		c0.2,0.3,0.1,0.8-0.2,1l-12.4,7.7C162.1,329.8,162,329.8,161.9,329.8z"/>
</g>
<g>
	<path fill="#62C3ED" d="M161.9,329.8c-0.2,0-0.3,0-0.4-0.1l-6.8-4.5c-0.3-0.2-0.4-0.7-0.2-1s0.7-0.4,1-0.2l6.8,4.5
		c0.3,0.2,0.4,0.7,0.2,1C162.3,329.7,162.1,329.8,161.9,329.8z"/>
</g>
<rect x="142.9" y="308.8" transform="matrix(-0.9998 2.191622e-02 -2.191622e-02 -0.9998 299.7106 622.1792)" fill="#B7BFC7" width="7" height="7.8"/>
<rect x="151.2" y="308.6" transform="matrix(-0.9998 2.187856e-02 -2.187856e-02 -0.9998 316.9552 615.6851)" fill="#DCE4E8" width="7.8" height="1.9"/>
<rect x="151.3" y="311.6" transform="matrix(-0.9998 2.182969e-02 -2.182969e-02 -0.9998 315.0163 621.6804)" fill="#DCE4E8" width="5.7" height="1.9"/>
<rect x="169" y="311.2" transform="matrix(-0.9998 2.186997e-02 -2.186997e-02 -0.9998 350.7819 620.5179)" fill="#DCE4E8" width="5.9" height="1.9"/>
<rect x="158" y="311.4" transform="matrix(-0.9998 2.185543e-02 -2.185543e-02 -0.9998 332.767 621.0999)" fill="#DCE4E8" width="9.9" height="1.9"/>
<rect x="151.4" y="314.6" transform="matrix(-0.9998 2.190191e-02 -2.190191e-02 -0.9998 312.8097 627.6606)" fill="#DCE4E8" width="3.2" height="1.9"/>
<rect x="155.6" y="314.5" transform="matrix(-0.9998 2.184447e-02 -2.184447e-02 -0.9998 324.8756 627.3085)" fill="#DCE4E8" width="6.7" height="1.9"/>
<rect x="160.1" y="308.5" transform="matrix(-0.9998 2.188666e-02 -2.188666e-02 -0.9998 330.111 615.2343)" fill="#DCE4E8" width="3.2" height="1.9"/>
<rect x="164.4" y="308.3" transform="matrix(-0.9998 2.187355e-02 -2.187355e-02 -0.9998 346.0151 614.7553)" fill="#DCE4E8" width="10.5" height="1.9"/>
<g>
	<g>
		<path fill="#586273" d="M87.9,344c-0.5,0-0.8-0.5-0.8-0.9c0.2-3.4-2.4-6.3-5.8-6.5l-31.6-1.8c-0.5,0-0.8-0.5-0.8-0.9
			c0-0.5,0.5-0.8,0.9-0.8l31.6,1.8c4.4,0.2,7.7,4,7.5,8.3C88.9,343.6,88.4,344,87.9,344z"/>
	</g>
	<g>
		<g>
			<path fill="#586273" d="M87.9,344c-0.5,0-0.8-0.5-0.8-0.9c0.2-3.4-2.4-6.3-5.8-6.5l-31.6-1.8c-0.5,0-0.8-0.5-0.8-0.9
				c0-0.5,0.5-0.8,0.9-0.8l31.6,1.8c4.4,0.2,7.7,4,7.5,8.3C88.9,343.6,88.4,344,87.9,344z"/>
		</g>
		<g>
			<path fill="#586273" d="M52.9,342c-0.5,0-0.8-0.5-0.8-0.9c0.2-4.4,4-7.7,8.3-7.5l31.6,1.8c0.5,0,0.8,0.5,0.8,0.9
				c0,0.5-0.5,0.8-0.9,0.8l-31.6-1.8c-3.4-0.2-6.3,2.4-6.5,5.8C53.8,341.7,53.4,342.1,52.9,342z"/>
		</g>
	</g>
	<g opacity="0.3">
		<g>
			<path fill="#EFEEEE" d="M67,342c-0.1,1.9-1.8,3.4-3.7,3.3l-10.5-0.6c-1.9-0.1-3.4-1.8-3.3-3.7l0.4-7c0.1-1.9,1.8-3.4,3.7-3.3
				l10.5,0.6c1.9,0.1,3.4,1.8,3.3,3.7L67,342z"/>
		</g>
	</g>
	<g opacity="0.3">
		<g>
			<path fill="#EFEEEE" d="M91.5,343.3c-0.1,1.9-1.8,3.4-3.7,3.3L77.3,346c-1.9-0.1-3.4-1.8-3.3-3.7l0.4-7c0.1-1.9,1.8-3.4,3.7-3.3
				l10.5,0.6c1.9,0.1,3.4,1.8,3.3,3.7L91.5,343.3z"/>
		</g>
	</g>
	<g>
		<path fill="#586273" d="M74,341.5c-0.5,0-0.8-0.5-0.8-0.9c0.1-1.5-1-2.7-2.5-2.8c-1.5-0.1-2.7,1-2.8,2.5c0,0.5-0.5,0.8-0.9,0.8
			c-0.5,0-0.8-0.5-0.8-0.9c0.1-2.4,2.2-4.3,4.6-4.1c2.4,0.1,4.3,2.2,4.1,4.6C74.9,341.1,74.5,341.5,74,341.5z"/>
	</g>
	<path opacity="0.3" fill="#EFEEEE" enable-background="new    " d="M53.5,330.7c-1.9-0.1-3.6,1.4-3.7,3.3l-0.4,7
		c-0.1,1.9,1.4,3.6,3.3,3.7l5.4,0.3l0.8-14L53.5,330.7z"/>
	<path opacity="0.3" fill="#EFEEEE" enable-background="new    " d="M78.1,332c-1.9-0.1-3.4,1.4-3.5,3.3l-0.4,7
		c-0.1,1.9,1.2,3.6,3.1,3.7l5,0.3l0.8-14L78.1,332z"/>
	<g>
		<path fill="none" d="M88.5,333.5L78,332.9c-1.5-0.1-2.7,1-2.8,2.5l-0.4,7c-0.1,1.5,1,2.7,2.5,2.8l10.5,0.6c1.5,0.1,2.7-1,2.8-2.5
			l0.4-7C91.1,334.8,90,333.5,88.5,333.5z"/>
		<path fill="none" d="M64,332.1l-10.5-0.6c-1.5-0.1-2.7,1-2.8,2.5l-0.4,7c-0.1,1.5,1,2.7,2.5,2.8l10.5,0.6c1.5,0.1,2.7-1,2.8-2.5
			l0.4-7C66.6,333.4,65.4,332.2,64,332.1z"/>
		<path fill="#586273" d="M64.1,330.4l-10.5-0.6c-2.4-0.1-4.5,1.7-4.6,4.1l-0.4,7c-0.1,2.4,1.7,4.5,4.1,4.6l10.5,0.6
			c2.4,0.1,4.5-1.7,4.6-4.1l0.4-7C68.4,332.5,66.5,330.5,64.1,330.4z M66.1,341.9c-0.1,1.5-1.3,2.6-2.8,2.5l-10.5-0.6
			c-1.5-0.1-2.6-1.3-2.5-2.8l0.4-7c0.1-1.5,1.3-2.6,2.8-2.5l10.5,0.6c1.5,0.1,2.6,1.3,2.5,2.8L66.1,341.9z"/>
		<path fill="#586273" d="M88.6,331.7l-10.5-0.6c-2.4-0.1-4.5,1.7-4.6,4.1l-0.4,7c-0.1,2.4,1.7,4.5,4.1,4.6l10.5,0.6
			c2.4,0.1,4.5-1.7,4.6-4.1l0.4-7C92.9,333.9,91,331.9,88.6,331.7z M90.6,343.3c-0.1,1.5-1.3,2.6-2.8,2.5l-10.5-0.6
			c-1.5-0.1-2.6-1.3-2.5-2.8l0.4-7c0.1-1.5,1.3-2.6,2.8-2.5l10.5,0.6c1.5,0.1,2.6,1.3,2.5,2.8L90.6,343.3z"/>
	</g>
</g>
<g>
	<g>
		<g>
			
				<rect x="243.4" y="306.4" transform="matrix(0.9998 -1.975193e-02 1.975193e-02 0.9998 -6.4627 5.585)" fill="#F7F9F8" width="72.3" height="47.1"/>
		</g>
		<g>
			
				<rect x="287.5" y="334.7" transform="matrix(0.9998 -1.974670e-02 1.974670e-02 0.9998 -6.654 5.9468)" fill="#EF8555" width="20.7" height="10.3"/>
		</g>
		<g>
			
				<rect x="287" y="314.1" transform="matrix(0.9998 -1.974694e-02 1.974694e-02 0.9998 -6.2465 5.9343)" fill="#586273" width="20.7" height="10.3"/>
		</g>
		<g>
			
				<rect x="250.9" y="314.8" transform="matrix(0.9998 -1.975409e-02 1.975409e-02 0.9998 -6.2696 5.2229)" fill="#B7BFC7" width="20.7" height="10.3"/>
		</g>
		<g>
			
				<rect x="251.3" y="335.5" transform="matrix(0.9998 -1.976076e-02 1.976076e-02 0.9998 -6.6803 5.2366)" fill="#EF8555" width="20.7" height="10.3"/>
		</g>
		<g>
			
				<rect x="274.6" y="339.6" transform="matrix(0.9998 -1.975575e-02 1.975575e-02 0.9998 -6.6678 5.5924)" fill="#B7BFC7" width="10.3" height="1.3"/>
		</g>
		<g>
			
				<rect x="274.2" y="319" transform="matrix(0.9998 -1.974885e-02 1.974885e-02 0.9998 -6.2579 5.5786)" fill="#B7BFC7" width="10.3" height="1.3"/>
		</g>
		<g>
			
				<rect x="296.9" y="327" transform="matrix(0.9998 -1.979650e-02 1.979650e-02 0.9998 -6.4667 5.9557)" fill="#B7BFC7" width="1.3" height="5.2"/>
		</g>
		<g>
			<g>
				
					<rect x="253.9" y="341.4" transform="matrix(0.9998 -1.979650e-02 1.979650e-02 0.9998 -6.7205 5.1449)" fill="#F7F9F8" width="5.2" height="1.3"/>
			</g>
			<g>
				
					<rect x="256.5" y="338.8" transform="matrix(0.9998 -1.977434e-02 1.977434e-02 0.9998 -6.6611 5.1634)" fill="#F7F9F8" width="2.6" height="1.3"/>
			</g>
			<g>
				
					<rect x="264.2" y="341.1" transform="matrix(0.9998 -1.969142e-02 1.969142e-02 0.9998 -6.6788 5.3205)" fill="#F7F9F8" width="5.2" height="1.3"/>
			</g>
			<g>
				
					<rect x="266.8" y="338.6" transform="matrix(0.9998 -1.976290e-02 1.976290e-02 0.9998 -6.6517 5.3643)" fill="#F7F9F8" width="2.6" height="1.3"/>
			</g>
			<g>
				
					<rect x="259.1" y="338.7" transform="matrix(0.9998 -1.975694e-02 1.975694e-02 0.9998 -6.653 5.2354)" fill="#F7F9F8" width="5.2" height="1.3"/>
			</g>
			<g>
				
					<rect x="259.1" y="341.3" transform="matrix(0.9998 -1.974313e-02 1.974313e-02 0.9998 -6.6997 5.2327)" fill="#F7F9F8" width="5.2" height="1.3"/>
			</g>
		</g>
		<g>
			<g>
				
					<rect x="289.6" y="320" transform="matrix(0.9998 -1.971572e-02 1.971572e-02 0.9998 -6.2651 5.8151)" fill="#F7F9F8" width="4.3" height="1.3"/>
			</g>
			<g>
				
					<rect x="292.2" y="317.4" transform="matrix(0.9998 -1.978387e-02 1.978387e-02 0.9998 -6.2337 5.8939)" fill="#F7F9F8" width="5.2" height="1.3"/>
			</g>
			<g>
				
					<rect x="300" y="319.8" transform="matrix(0.9998 -1.976838e-02 1.976838e-02 0.9998 -6.2758 6.0437)" fill="#F7F9F8" width="5.2" height="1.3"/>
			</g>
			<g>
				
					<rect x="299.9" y="317.2" transform="matrix(0.9998 -1.976123e-02 1.976123e-02 0.9998 -6.2221 6.0405)" fill="#F7F9F8" width="5.2" height="1.3"/>
			</g>
			<g>
				
					<rect x="296.5" y="319.9" transform="matrix(0.9998 -1.973764e-02 1.973764e-02 0.9998 -6.2688 5.9492)" fill="#F7F9F8" width="3.5" height="1.3"/>
			</g>
		</g>
		<g>
			<g>
				
					<rect x="253.5" y="320.7" transform="matrix(0.9998 -1.976838e-02 1.976838e-02 0.9998 -6.303 5.1257)" fill="#F7F9F8" width="5.2" height="1.3"/>
			</g>
			<g>
				
					<rect x="256.1" y="318.1" transform="matrix(0.9998 -1.973550e-02 1.973550e-02 0.9998 -6.2408 5.1413)" fill="#F7F9F8" width="2.6" height="1.3"/>
			</g>
			<g>
				
					<rect x="266.5" y="320.5" transform="matrix(0.9998 -1.973764e-02 1.973764e-02 0.9998 -6.2864 5.3473)" fill="#F7F9F8" width="2.6" height="1.3"/>
			</g>
			<g>
				
					<rect x="266.4" y="317.9" transform="matrix(0.9998 -1.974885e-02 1.974885e-02 0.9998 -6.2387 5.3486)" fill="#F7F9F8" width="2.6" height="1.3"/>
			</g>
			<g>
				
					<rect x="261.2" y="318" transform="matrix(0.9998 -1.979674e-02 1.979674e-02 0.9998 -6.2559 5.2849)" fill="#F7F9F8" width="5.2" height="1.3"/>
			</g>
			<g>
				
					<rect x="258.7" y="320.6" transform="matrix(0.9998 -1.977005e-02 1.977005e-02 0.9998 -6.3007 5.2281)" fill="#F7F9F8" width="5.2" height="1.3"/>
			</g>
		</g>
		<g>
			<g>
				
					<rect x="290.1" y="340.7" transform="matrix(0.9998 -1.978387e-02 1.978387e-02 0.9998 -6.6952 5.8569)" fill="#F7F9F8" width="5.2" height="1.3"/>
			</g>
			<g>
				
					<rect x="303" y="340.4" transform="matrix(0.9998 -1.969285e-02 1.969285e-02 0.9998 -6.6579 6.0581)" fill="#F7F9F8" width="2.6" height="1.3"/>
			</g>
			<g>
				
					<rect x="302.9" y="337.8" transform="matrix(0.9998 -1.981842e-02 1.981842e-02 0.9998 -6.6485 6.0954)" fill="#F7F9F8" width="2.6" height="1.3"/>
			</g>
			<g>
				
					<rect x="297.7" y="337.9" transform="matrix(0.9998 -1.978959e-02 1.978959e-02 0.9998 -6.6412 6.0097)" fill="#F7F9F8" width="5.2" height="1.3"/>
			</g>
			<g>
				
					<rect x="295.2" y="340.5" transform="matrix(0.9998 -1.976981e-02 1.976981e-02 0.9998 -6.687 5.9547)" fill="#F7F9F8" width="5.2" height="1.3"/>
			</g>
		</g>
	</g>
	<g>
		<path fill="#F7F9F8" d="M243.9,354.2l-0.1-5.2l-5.2,0.1C238.7,352,241,354.3,243.9,354.2z"/>
		<path fill="#F7F9F8" d="M238.6,349.1l5.2-0.1l-0.1-5.2C240.8,343.9,238.6,346.3,238.6,349.1z"/>
		<path fill="#B7BFC7" d="M237.8,307.8l0.8,41.3c0-2.9,2.2-5.2,5-5.3l-0.6-31l-0.1-5.2l-0.1-5.2C240,302.6,237.7,304.9,237.8,307.8z
			"/>
	</g>
</g>
<g>
	<g>
		<g>
			
				<rect x="375.7" y="443.7" transform="matrix(-2.257136e-02 -0.9997 0.9997 -2.257136e-02 -49.0828 886.5606)" fill="#E6EEF2" width="66.3" height="47.1"/>
		</g>
	</g>
	<g>
		<g>
			
				<rect x="378.9" y="445.5" transform="matrix(2.712056e-02 -0.9996 0.9996 2.712056e-02 -67.9158 868.2426)" fill="#F7F9F8" width="66.3" height="47.1"/>
		</g>
	</g>
	<g>
		<path fill="#B7BFC7" d="M404.6,441.7c-0.3,0-0.6-0.1-0.9-0.1c-1.1,0-2.2,0.1-3.2,0.4l2.9,9.8L404.6,441.7z"/>
		<path fill="#EF8555" d="M412.9,448.1c-1.4-3.4-4.5-5.9-8.3-6.4l-1.2,10.2L412.9,448.1z"/>
		<path fill="#DCE4E8" d="M400.5,442.1c-4.1,1.2-7.2,5-7.3,9.6c-0.1,4.9,3.2,9.1,7.8,10.2l2.4-9.9L400.5,442.1z"/>
		<path fill="#586273" d="M403.4,451.9l-2.4,9.9c0.7,0.2,1.4,0.3,2.2,0.3c5.7,0.2,10.4-4.3,10.5-9.9c0-1.4-0.2-2.8-0.7-4.1
			L403.4,451.9z"/>
	</g>
	
		<rect x="391.9" y="477.6" transform="matrix(-0.9996 -2.712099e-02 2.712099e-02 -0.9996 810.6346 968.0287)" fill="#DCE4E8" width="40" height="1.8"/>
	
		<rect x="392" y="474.6" transform="matrix(-0.9996 -2.712099e-02 2.712099e-02 -0.9996 810.8687 962.0648)" fill="#DCE4E8" width="40" height="1.8"/>
	
		<rect x="392.1" y="471.7" transform="matrix(-0.9996 -2.712099e-02 2.712099e-02 -0.9996 811.179 956.1041)" fill="#DCE4E8" width="40" height="1.8"/>
	
		<rect x="392.2" y="468.7" transform="matrix(-0.9996 -2.712099e-02 2.712099e-02 -0.9996 811.4131 950.1403)" fill="#DCE4E8" width="40" height="1.8"/>
	<g>
		
			<rect x="418.1" y="447.1" transform="matrix(-0.9996 -2.698562e-02 2.698562e-02 -0.9996 825.7462 907.1324)" fill="#EF8555" width="1.8" height="1.8"/>
		
			<rect x="421.1" y="447.3" transform="matrix(-0.9996 -2.713243e-02 2.713243e-02 -0.9996 841.4722 907.7903)" fill="#DCE4E8" width="11.6" height="1.8"/>
		
			<rect x="418" y="450.1" transform="matrix(-0.9996 -2.701708e-02 2.701708e-02 -0.9996 825.4989 913.1094)" fill="#DCE4E8" width="1.8" height="1.8"/>
		
			<rect x="421" y="450.3" transform="matrix(-0.9996 -2.713434e-02 2.713434e-02 -0.9996 841.2372 913.7549)" fill="#DCE4E8" width="11.6" height="1.8"/>
		
			<rect x="417.9" y="453.1" transform="matrix(-0.9996 -2.714840e-02 2.714840e-02 -0.9996 825.2071 919.1281)" fill="#B7BFC7" width="1.8" height="1.8"/>
		
			<rect x="420.9" y="453.3" transform="matrix(-0.9996 -2.713505e-02 2.713505e-02 -0.9996 841.003 919.7191)" fill="#DCE4E8" width="11.6" height="1.8"/>
		
			<rect x="417.9" y="456" transform="matrix(-0.9996 -2.714840e-02 2.714840e-02 -0.9996 824.9731 925.092)" fill="#586273" width="1.8" height="1.8"/>
		
			<rect x="420.9" y="456.2" transform="matrix(-0.9996 -2.711003e-02 2.711003e-02 -0.9996 840.7801 925.6724)" fill="#DCE4E8" width="11.6" height="1.8"/>
	</g>
	
		<rect x="391.8" y="480.3" transform="matrix(-0.9996 -2.711932e-02 2.711932e-02 -0.9996 786.546 973.0562)" fill="#DCE4E8" width="16.1" height="1.8"/>
	<polygon fill="#DCE4E8" points="431.7,487.1 428.9,486.5 426,488.2 423.4,491.1 421.3,489.1 417.6,488.4 415.4,490.7 413.3,491.6 
		410.5,489.6 408.3,490.2 406.3,492.7 404.2,491 402.1,492.9 400.2,492.2 398.6,493.9 395.2,495.1 391.5,493.8 391.4,496.8 
		431.4,497.9 	"/>
	<polygon fill="#62C3ED" points="431.6,491 428.7,491.5 425.9,493.9 424.5,492.9 422.4,494.5 420.3,493 418.1,492 416.6,492.5 
		414.4,494.6 412.6,492.8 411,493.2 410,492.6 408.7,494.8 405.6,493.7 403.5,495.5 401.5,494.4 399.9,495.5 397.4,495 395.2,495.7 
		393.4,495.4 391.5,495.9 391.4,496.8 431.4,497.9 	"/>
</g>
<g>
	<path fill="#F7F9F8" d="M64.3,490.2c0-0.3-0.2-0.6-0.5-0.7l-12.3-1c-0.3,0-0.6,0.2-0.7,0.5l-1,12c0,0.3,0.2,0.6,0.5,0.7l12.3,1
		c0.3,0,0.6-0.2,0.7-0.5L64.3,490.2z"/>
	<polygon fill="#B7BFC7" points="64.5,489.5 50.9,488.5 50.6,491.1 64.2,492.2 	"/>
	<g>
		
			<rect x="51.9" y="493.3" transform="matrix(-0.9964 -8.428235e-02 8.428235e-02 -0.9964 68.8311 990.6841)" fill="#EF8555" width="6.8" height="1.2"/>
		
			<rect x="59.7" y="493.8" transform="matrix(-0.9964 -8.430586e-02 8.430586e-02 -0.9964 80.1135 992.1621)" fill="#B7BFC7" width="2.7" height="1.2"/>
		
			<rect x="51.8" y="495.2" transform="matrix(-0.9964 -8.427379e-02 8.427379e-02 -0.9964 64.5268 994.0226)" fill="#B7BFC7" width="3" height="0.9"/>
		
			<rect x="55.6" y="495.7" transform="matrix(-0.9964 -8.429802e-02 8.429802e-02 -0.9964 75.7709 995.4957)" fill="#B7BFC7" width="6.6" height="0.9"/>
		
			<rect x="51.6" y="497.3" transform="matrix(-0.9964 -8.429470e-02 8.429470e-02 -0.9964 71.464 998.8343)" fill="#B7BFC7" width="10.4" height="1.2"/>
		
			<rect x="51.4" y="499.3" transform="matrix(-0.9964 -8.425122e-02 8.425122e-02 -0.9964 68.3497 1002.3727)" fill="#B7BFC7" width="7.8" height="0.9"/>
	</g>
</g>
<g>
	<g>
		<g>
			<g>
				
					<rect x="443.4" y="306.4" transform="matrix(-0.1606 -0.987 0.987 -0.1606 227.3844 853.3954)" fill="#F7F9F8" width="66.3" height="47.1"/>
			</g>
		</g>
	</g>
	<g>
		
			<rect x="477.4" y="314.3" transform="matrix(-0.987 0.1606 -0.1606 -0.987 1016.0327 548.2264)" fill="#B7BFC7" width="17" height="1.8"/>
		
			<rect x="477.8" y="317.2" transform="matrix(-0.987 0.1606 -0.1606 -0.987 1017.4906 553.9755)" fill="#DCE4E8" width="17" height="1.8"/>
		
			<rect x="478.3" y="320.2" transform="matrix(-0.987 0.1606 -0.1606 -0.987 1018.8751 559.746)" fill="#DCE4E8" width="17" height="1.8"/>
		
			<rect x="478.8" y="323.1" transform="matrix(-0.987 0.1606 -0.1606 -0.987 1020.3367 565.5228)" fill="#DCE4E8" width="17" height="1.8"/>
	</g>
	
		<rect x="453.6" y="310.5" transform="matrix(-0.987 0.1606 -0.1606 -0.987 991.1083 542.7275)" fill="#DCE4E8" width="40" height="1.8"/>
	
		<rect x="452.7" y="301.6" transform="matrix(-0.987 0.1606 -0.1606 -0.987 988.2594 531.1612)" fill="#B7BFC7" width="40" height="7.8"/>
	<g>
		
			<rect x="456.9" y="330.6" transform="matrix(-0.987 0.1606 -0.1606 -0.987 1000.7929 582.0238)" fill="#DCE4E8" width="40" height="1.8"/>
		
			<rect x="457.4" y="333.5" transform="matrix(-0.987 0.1606 -0.1606 -0.987 1002.2535 587.7921)" fill="#DCE4E8" width="40" height="1.8"/>
		
			<rect x="457.8" y="336.5" transform="matrix(-0.987 0.1606 -0.1606 -0.987 1003.6402 593.5831)" fill="#DCE4E8" width="40" height="1.8"/>
	</g>
	<g>
		
			<rect x="460.6" y="353.5" transform="matrix(-0.987 0.1606 -0.1606 -0.987 1011.921 627.022)" fill="#DCE4E8" width="40" height="1.8"/>
		
			<rect x="461.2" y="357.2" transform="matrix(-0.987 0.1606 -0.1606 -0.987 1004.6857 634.9622)" fill="#DCE4E8" width="31" height="1.8"/>
	</g>
	<g>
		
			<rect x="458.8" y="343.1" transform="matrix(-0.987 0.1606 -0.1606 -0.987 993.3417 607.7318)" fill="#B7BFC7" width="26.5" height="1.8"/>
		
			<rect x="459.3" y="346.1" transform="matrix(-0.987 0.1606 -0.1606 -0.987 994.803 613.5142)" fill="#DCE4E8" width="26.5" height="1.8"/>
		
			<rect x="459.8" y="349" transform="matrix(-0.987 0.1606 -0.1606 -0.987 996.1884 619.2881)" fill="#DCE4E8" width="26.5" height="1.8"/>
		
			<rect x="488.6" y="339.6" transform="matrix(-0.987 0.1606 -0.1606 -0.987 1036.3923 603.2241)" fill="#62C3ED" width="10.4" height="7.8"/>
	</g>
	<g>
		
			<rect x="455.5" y="319.1" transform="matrix(-0.987 0.1605 -0.1605 -0.987 959.2828 571.5228)" fill="#DCE4E8" width="2.1" height="10.7"/>
		
			<rect x="458.5" y="318.6" transform="matrix(-0.987 0.1608 -0.1608 -0.987 965.1609 569.8568)" fill="#DCE4E8" width="2.1" height="10.7"/>
		
			<rect x="461.4" y="318.1" transform="matrix(-0.987 0.1608 -0.1608 -0.987 970.9308 568.4265)" fill="#DCE4E8" width="2.1" height="10.7"/>
		
			<rect x="464.4" y="317.7" transform="matrix(-0.987 0.1607 -0.1607 -0.987 976.6744 567.0717)" fill="#DCE4E8" width="2.1" height="10.7"/>
		
			<rect x="467.3" y="317.2" transform="matrix(-0.987 0.1605 -0.1605 -0.987 982.3688 565.7697)" fill="#DCE4E8" width="2.1" height="10.7"/>
		
			<rect x="470.2" y="316.7" transform="matrix(-0.9871 0.1604 -0.1604 -0.9871 988.1118 564.4108)" fill="#DCE4E8" width="2.1" height="10.7"/>
		
			<rect x="473.2" y="316.2" transform="matrix(-0.987 0.1606 -0.1606 -0.987 993.9596 562.8727)" fill="#DCE4E8" width="2.1" height="10.7"/>
		
			<rect x="456" y="325.1" transform="matrix(-0.987 0.1605 -0.1605 -0.987 960.7426 577.2894)" fill="#62C3ED" width="2.1" height="4.8"/>
		
			<rect x="458.9" y="323.7" transform="matrix(-0.987 0.1607 -0.1607 -0.987 966.3669 574.8744)" fill="#62C3ED" width="2.1" height="5.7"/>
		
			<rect x="462" y="325.3" transform="matrix(-0.987 0.1606 -0.1606 -0.987 972.566 575.5033)" fill="#62C3ED" width="2.1" height="3.6"/>
		
			<rect x="464.7" y="321.8" transform="matrix(-0.987 0.1606 -0.1606 -0.987 977.6455 571.1567)" fill="#62C3ED" width="2.1" height="6.6"/>
		
			<rect x="467.5" y="320.2" transform="matrix(-0.987 0.1605 -0.1605 -0.987 983.0709 568.6991)" fill="#62C3ED" width="2.1" height="7.8"/>
		
			<rect x="471" y="325.6" transform="matrix(-0.987 0.1607 -0.1607 -0.987 990.3679 572.8207)" fill="#62C3ED" width="2.1" height="1.8"/>
		
			<rect x="473.6" y="322.1" transform="matrix(-0.987 0.1605 -0.1605 -0.987 995.2999 568.6528)" fill="#62C3ED" width="2.1" height="4.8"/>
	</g>
</g>
<g>
	<g>
		<path fill="#DCE4E8" d="M95.1,450.7L95.1,450.7v0.1l2.2,12.2c0,0,0,0.1,0,0.1l0.1,0.6l0,0c0.7,3.6,4.1,5.9,7.7,5.3l-4.6-25.9
			C96.8,443.7,94.5,447.2,95.1,450.7z"/>
		<path fill="#F7F9F8" d="M100.4,443.1L100.4,443.1l4.6,25.9c3.6-0.7,6-4.1,5.3-7.6h0l0,0l0,0h0l-2.3-12.9
			C107.4,444.8,104,442.5,100.4,443.1z"/>
	</g>
	<g>
		<circle fill="#586273" cx="101.6" cy="449.6" r="1.6"/>
	</g>
</g>
<g>
	<path fill="#586273" d="M532.3,503.9c-0.2,1-1.1,1.6-2.1,1.5l-24.6-4.1c-1-0.2-1.6-1.1-1.5-2.1l6-35.5c0.2-1,1.1-1.6,2.1-1.5
		l24.6,4.1c1,0.2,1.6,1.1,1.5,2.1L532.3,503.9z"/>
	<g>
		<circle fill="#F7F9F8" cx="510.7" cy="466.5" r="0.8"/>
		<circle fill="#F7F9F8" cx="509.9" cy="470.8" r="0.8"/>
		<circle fill="#F7F9F8" cx="509.2" cy="475.1" r="0.8"/>
		<circle fill="#F7F9F8" cx="508.5" cy="479.5" r="0.8"/>
		<circle fill="#F7F9F8" cx="507.8" cy="483.8" r="0.8"/>
		<circle fill="#F7F9F8" cx="507" cy="488.1" r="0.8"/>
		<circle fill="#F7F9F8" cx="506.3" cy="492.5" r="0.8"/>
		<circle fill="#F7F9F8" cx="505.6" cy="496.8" r="0.8"/>
	</g>
	<g>
		<path fill="#464E5C" d="M510.6,467l-2.2-0.4c-0.3,0-0.5-0.3-0.5-0.7s0.3-0.5,0.7-0.5l2.2,0.4c0.3,0,0.5,0.3,0.5,0.7
			C511.2,466.8,510.9,467,510.6,467z"/>
	</g>
	<g>
		<path fill="#464E5C" d="M509.8,471.3l-2.2-0.4c-0.3,0-0.5-0.3-0.5-0.7c0-0.3,0.3-0.5,0.7-0.5l2.2,0.4c0.3,0,0.5,0.3,0.5,0.7
			C510.4,471.2,510.1,471.4,509.8,471.3z"/>
	</g>
	<g>
		<path fill="#464E5C" d="M509.1,475.7l-2.2-0.4c-0.3,0-0.5-0.3-0.5-0.7c0-0.3,0.3-0.5,0.7-0.5l2.2,0.4c0.3,0,0.5,0.3,0.5,0.7
			C509.7,475.5,509.4,475.7,509.1,475.7z"/>
	</g>
	<g>
		<path fill="#464E5C" d="M508.4,480l-2.2-0.4c-0.3,0-0.5-0.3-0.5-0.7c0-0.3,0.3-0.5,0.7-0.5l2.2,0.4c0.3,0,0.5,0.3,0.5,0.7
			C509,479.8,508.7,480,508.4,480z"/>
	</g>
	<g>
		<path fill="#464E5C" d="M507.7,484.3l-2.2-0.4c-0.3,0-0.5-0.3-0.5-0.7c0-0.3,0.3-0.5,0.7-0.5l2.2,0.4c0.3,0,0.5,0.3,0.5,0.7
			C508.2,484.2,508,484.4,507.7,484.3z"/>
	</g>
	<g>
		<path fill="#464E5C" d="M506.9,488.7l-2.2-0.4c-0.3,0-0.5-0.3-0.5-0.7c0-0.3,0.3-0.5,0.7-0.5l2.2,0.4c0.3,0,0.5,0.3,0.5,0.7
			C507.5,488.5,507.2,488.7,506.9,488.7z"/>
	</g>
	<g>
		<path fill="#464E5C" d="M506.2,493l-2.2-0.4c-0.3,0-0.5-0.3-0.5-0.7c0-0.3,0.3-0.5,0.7-0.5l2.2,0.4c0.3,0,0.5,0.3,0.5,0.7
			C506.8,492.8,506.5,493,506.2,493z"/>
	</g>
	<g>
		<path fill="#464E5C" d="M505.5,497.3l-2.2-0.4c-0.3,0-0.5-0.3-0.5-0.7c0-0.3,0.3-0.5,0.7-0.5l2.2,0.4c0.3,0,0.5,0.3,0.5,0.7
			C506,497.2,505.8,497.4,505.5,497.3z"/>
	</g>
</g>
<g>
	<path fill="#F7F9F8" d="M473.4,422.7c-0.5,1-0.1,2.3,0.9,2.8l13.1,6.8c1,0.5,2.3,0.1,2.8-0.9l10.1-19.6c0.5-1,0.1-2.3-0.9-2.8
		l-13.1-6.8c-1-0.5-2.3-0.1-2.8,0.9L473.4,422.7z"/>
	<g>
		
			<rect x="481.2" y="410.5" transform="matrix(-0.8881 -0.4597 0.4597 -0.8881 721.8585 999.4689)" fill="#EF8555" width="2.8" height="2.8"/>
		
			<rect x="484.9" y="412.4" transform="matrix(-0.888 -0.4598 0.4598 -0.888 727.8478 1004.8114)" fill="#EF8555" width="2.8" height="2.8"/>
		
			<rect x="488.6" y="414.3" transform="matrix(-0.888 -0.4598 0.4598 -0.888 733.9837 1010.1558)" fill="#EF8555" width="2.8" height="2.8"/>
		
			<rect x="492.3" y="416.2" transform="matrix(-0.888 -0.4598 0.4598 -0.888 740.1199 1015.4741)" fill="#EF8555" width="2.8" height="2.8"/>
		
			<rect x="479.3" y="414.2" transform="matrix(-0.888 -0.4598 0.4598 -0.888 716.4531 1005.5931)" fill="#EF8555" width="2.8" height="2.8"/>
		
			<rect x="483" y="416.1" transform="matrix(-0.888 -0.4598 0.4598 -0.888 722.4796 1011.0037)" fill="#EF8555" width="2.8" height="2.8"/>
		
			<rect x="486.7" y="418.1" transform="matrix(-0.888 -0.4599 0.4599 -0.888 728.5956 1016.3769)" fill="#EF8555" width="2.8" height="2.8"/>
		
			<rect x="490.4" y="419.9" transform="matrix(-0.888 -0.4598 0.4598 -0.888 734.804 1021.6084)" fill="#EF8555" width="2.8" height="2.8"/>
		
			<rect x="477.3" y="417.9" transform="matrix(-0.888 -0.4598 0.4598 -0.888 711.0173 1011.7167)" fill="#EF8555" width="2.8" height="2.8"/>
		
			<rect x="481" y="419.8" transform="matrix(-0.888 -0.4598 0.4598 -0.888 717.1429 1017.0684)" fill="#EF8555" width="2.8" height="2.8"/>
		
			<rect x="484.7" y="421.7" transform="matrix(-0.888 -0.4598 0.4598 -0.888 723.2388 1022.41)" fill="#EF8555" width="2.8" height="2.8"/>
		
			<rect x="488.5" y="423.6" transform="matrix(-0.888 -0.4598 0.4598 -0.888 729.4896 1027.7421)" fill="#EF8555" width="2.8" height="2.8"/>
		
			<rect x="475.4" y="421.6" transform="matrix(-0.8881 -0.4597 0.4597 -0.8881 705.8212 1017.8455)" fill="#EF8555" width="2.8" height="2.8"/>
		
			<rect x="479.1" y="423.5" transform="matrix(-0.8881 -0.4597 0.4597 -0.8881 711.9396 1023.2013)" fill="#EF8555" width="2.8" height="2.8"/>
		
			<rect x="482.6" y="426.4" transform="matrix(-0.888 -0.4598 0.4598 -0.888 720.9903 1031.2029)" fill="#B7BFC7" width="7" height="2.8"/>
	</g>
	
		<rect x="483" y="407" transform="matrix(-0.888 -0.4598 0.4598 -0.888 737.9836 999.3122)" fill="#62C3ED" width="15.3" height="5.6"/>
	
		<rect x="492.5" y="409.7" transform="matrix(-0.888 -0.4598 0.4598 -0.888 742.0533 1002.8608)" fill="#586273" width="1.4" height="2.8"/>
	
		<rect x="494.9" y="410.9" transform="matrix(-0.8881 -0.4596 0.4596 -0.8881 746.2968 1006.3536)" fill="#586273" width="1.4" height="2.8"/>
	
		<rect x="487.6" y="407.1" transform="matrix(-0.888 -0.4599 0.4599 -0.888 733.9227 995.8005)" fill="#586273" width="1.4" height="2.8"/>
	
		<rect x="490" y="408.4" transform="matrix(-0.8879 -0.46 0.46 -0.8879 737.9071 999.3657)" fill="#586273" width="1.4" height="2.8"/>
</g>
<g>
	<g>
		<polygon fill="#D46E40" points="447.5,448.5 439.2,488.3 438.8,490 440.6,490.4 449.2,448.9 		"/>
		<polygon fill="#EF8555" points="447.5,448.5 445.8,448.1 437.1,489.7 438.8,490 439.2,488.3 		"/>
	</g>
	<g>
		<polygon fill="#464E5C" points="449,441.6 448.2,443.2 449.1,443.4 		"/>
		<polygon fill="#F7F9F8" points="448.2,443.2 445.8,448.1 449.2,448.9 449.1,443.4 		"/>
	</g>
	<g>
		
			<rect x="438.2" y="484.2" transform="matrix(-0.9789 -0.2045 0.2045 -0.9789 771.433 1049.3795)" fill="#586273" width="3.5" height="1.3"/>
	</g>
</g>
<path fill="#586273" d="M434.2,316l-11.9,12.7c-1,1-0.9,2.6,0.1,3.5l25.5,23.9c1,0.9,2.6,0.9,3.5-0.1l11.9-12.7
	c0.9-1,0.9-2.6-0.1-3.5l-25.5-23.9C436.7,314.9,435.2,315,434.2,316z"/>
<path fill="#586273" d="M459.7,339.8l-11.9,12.7l-23.7-22.1l0,0l11.9-12.7l0,0L459.7,339.8z"/>
<rect x="453.7" y="347.3" transform="matrix(-0.6833 0.7301 -0.7301 -0.6833 1020.9146 253.1281)" fill="#464E5C" width="3.7" height="1.3"/>
<g>
	<path fill="#F7F9F8" d="M424.1,330.4C424.1,330.5,424.1,330.5,424.1,330.4l23.7,22.1l11.9-12.7L436,317.7l0,0L424.1,330.4z"/>
</g>
<g>
	<path fill="#62C3ED" d="M443.2,329.4l-1.6-0.8c-0.2-0.1-0.5-0.1-0.6,0l-2.8,1.2l0,0l-0.4-0.3c-0.1-0.7-0.5-1.4-1.1-2l-0.5-0.5
		c-0.9-0.8-2.2-0.8-3,0l0,0l0,0l0,0c-0.8,0.8-0.7,2.2,0.2,3l0.5,0.5c0.6,0.6,1.3,0.9,2,1l0.4,0.3l0,0l-1,2.9c-0.1,0.2,0,0.5,0.1,0.6
		l0.9,1.5c0.1,0.2,0.3,0.2,0.4,0l3.3-3.5l0,0l3.3-3.5C443.4,329.7,443.4,329.6,443.2,329.4z"/>
</g>
<rect x="438" y="335.1" transform="matrix(-0.6832 0.7303 -0.7303 -0.6832 991.9404 242.5552)" fill="#DCE4E8" width="10.7" height="2.7"/>
<rect x="440.9" y="337.9" transform="matrix(-0.6832 0.7302 -0.7302 -0.6832 998.862 245.1702)" fill="#DCE4E8" width="10.7" height="2.7"/>
<rect x="446.5" y="340.7" transform="matrix(-0.6832 0.7302 -0.7302 -0.6832 1005.8111 247.7324)" fill="#DCE4E8" width="5.4" height="2.7"/>
<g>
	<circle fill="#586273" cx="443.5" cy="342.2" r="0.5"/>
</g>
<g>
	<circle fill="#586273" cx="445.3" cy="340.3" r="0.5"/>
</g>
<g>
	<circle fill="#586273" cx="444.4" cy="341.2" r="0.5"/>
</g>
<g>
	<circle fill="#586273" cx="446.2" cy="339.3" r="0.5"/>
</g>
<g>
	<circle fill="#586273" cx="440.6" cy="339.5" r="0.5"/>
</g>
<g>
	<circle fill="#586273" cx="444.2" cy="335.6" r="0.5"/>
</g>
<g>
	<circle fill="#586273" cx="442.4" cy="337.5" r="0.5"/>
</g>
<g>
	<circle fill="#586273" cx="441.5" cy="338.5" r="0.5"/>
</g>
<g>
	<circle fill="#586273" cx="443.3" cy="336.5" r="0.5"/>
</g>
<rect x="447.8" y="341.6" transform="matrix(-0.6832 0.7302 -0.7302 -0.6832 1005.822 247.7209)" fill="#EF8555" width="2.7" height="0.8"/>
<g>
	<g>
		<polygon fill="#464E5C" points="493.5,370.8 511.4,334.3 512.2,332.7 510.6,331.9 491.9,370 		"/>
		<polygon fill="#586273" points="493.5,370.8 495.1,371.6 513.7,333.4 512.2,332.7 511.4,334.3 		"/>
	</g>
	<g>
		<polygon fill="#464E5C" points="490.4,377.1 491.6,375.7 490.7,375.3 		"/>
		<polygon fill="#F7F9F8" points="491.6,375.7 495.1,371.6 491.9,370 490.7,375.3 		"/>
	</g>
	<g>
		
			<rect x="508.1" y="336.8" transform="matrix(0.8982 0.4396 -0.4396 0.8982 200.2341 -189.7613)" fill="#EF8555" width="3.5" height="1.3"/>
	</g>
</g>
<g>
	<path fill="#F7F9F8" d="M494.3,473.2c0-0.3-0.3-0.6-0.7-0.6l-12.4,0.8c-0.3,0-0.6,0.3-0.6,0.7l0.7,12c0,0.3,0.3,0.6,0.7,0.6
		l12.4-0.8c0.3,0,0.6-0.3,0.6-0.7L494.3,473.2z"/>
	<polygon fill="#B7BFC7" points="494.3,472.6 480.7,473.4 480.8,476.1 494.4,475.2 	"/>
	<g>
		
			<rect x="482.4" y="477.6" transform="matrix(-0.9981 6.159806e-02 -6.159806e-02 -0.9981 1000.2689 925.4499)" fill="#EF8555" width="6.8" height="1.2"/>
		
			<rect x="490.2" y="477.2" transform="matrix(-0.9981 6.181270e-02 -6.181270e-02 -0.9981 1011.707 924.3027)" fill="#B7BFC7" width="2.7" height="1.2"/>
		
			<rect x="482.6" y="479.8" transform="matrix(-0.9981 6.165588e-02 -6.165588e-02 -0.9981 996.8729 929.6536)" fill="#B7BFC7" width="3" height="0.9"/>
		
			<rect x="486.5" y="479.4" transform="matrix(-0.9981 6.160519e-02 -6.160519e-02 -0.9981 1008.1376 928.6412)" fill="#B7BFC7" width="6.6" height="0.9"/>
		
			<rect x="482.7" y="481.3" transform="matrix(-0.9981 6.166825e-02 -6.166825e-02 -0.9981 1004.6683 932.8493)" fill="#B7BFC7" width="10.4" height="1.2"/>
		
			<rect x="482.8" y="483.5" transform="matrix(-0.9981 6.172394e-02 -6.172394e-02 -0.9981 1002.3704 936.8724)" fill="#B7BFC7" width="7.8" height="0.9"/>
	</g>
</g>
<g>
	<g>
		<polygon fill="#B7BFC7" points="126.9,331.7 128.9,291.1 129,289.3 127.2,289.2 125.1,331.6 		"/>
		<polygon fill="#DCE4E8" points="126.9,331.7 128.7,331.8 130.8,289.4 129,289.3 128.9,291.1 		"/>
	</g>
	<g>
		<polygon fill="#464E5C" points="126.5,338.7 127.1,337 126.2,337 		"/>
		<polygon fill="#F7F9F8" points="127.1,337 128.7,331.8 125.1,331.6 126.2,337 		"/>
	</g>
	<g>
		
			<rect x="127" y="293.9" transform="matrix(0.9988 4.954022e-02 -4.954022e-02 0.9988 14.7514 -6.0173)" fill="#62C3ED" width="3.5" height="1.3"/>
	</g>
</g>
<g>
	<g>
		<path fill="#F7F9F8" d="M547.4,341.6l-1-0.7l-0.7,1c-0.3,0.5-0.2,1.2,0.3,1.6l3.9,2.7c0.5,0.3,1.2,0.2,1.6-0.3l0.7-1l-1-0.7
			L547.4,341.6z"/>
		<path fill="#F7F9F8" d="M547.1,340l-0.7,1l1,0.7l3.9,2.7l1,0.7l0.7-1c0.3-0.5,0.2-1.2-0.3-1.6l-3.9-2.7
			C548.2,339.4,547.4,339.5,547.1,340z"/>
	</g>
	<g>
		<path fill="#586273" d="M548.9,342.7l-1-0.7l-1.4,2l5,3.5c0.5,0.4,1.3,0.2,1.6-0.3l0.7-1l-1-0.7L548.9,342.7z"/>
		<path fill="#464E5C" d="M547.9,342l1,0.7l4.1,2.8l1,0.7l0.7-1c0.4-0.5,0.2-1.3-0.3-1.6l-5-3.5L547.9,342z"/>
	</g>
</g>
<g>
	<g>
		<path fill="#FFFFFF" d="M69.2,498.7c0.5,0.5,1.3,0.5,1.9,0l3.4-3.3c0.3-0.3,0.3-0.8,0-1.1s-0.8-0.3-1.1,0l-2.2,2.1
			c-0.1,0.1-0.1,0.2,0,0.3s0.2,0.1,0.3,0l2.2-2.1c0.1-0.1,0.3-0.1,0.5,0c0.1,0.2,0.1,0.3,0,0.5l-3.4,3.3c-0.3,0.3-0.9,0.3-1.3,0
			c-0.3-0.3-0.3-0.9,0-1.3l3.4-3.4c0.6-0.6,1.5-0.5,2,0c0.6,0.6,0.5,1.5,0,2l-4.2,4.1c-0.1,0.1-0.1,0.2,0,0.3c0.1,0.1,0.2,0.1,0.3,0
			l4.2-4.1c0.7-0.7,0.8-1.9,0-2.6c-0.7-0.7-1.9-0.8-2.6,0l-3.4,3.4C68.7,497.4,68.7,498.2,69.2,498.7z"/>
	</g>
</g>
<g>
	<path fill="#CCCCCC" d="M548,349.8c-0.7-0.7-1.9-0.8-2.6,0l-3.4,3.4c-0.5,0.5-0.5,1.3,0,1.9c0.5,0.5,1.3,0.5,1.9,0l3.4-3.3
		c0.3-0.3,0.3-0.8,0-1.1c-0.3-0.3-0.8-0.3-1.1,0l-2.2,2.1c-0.1,0.1-0.1,0.2,0,0.3s0.2,0.1,0.3,0l2.2-2.1c0.1-0.1,0.3-0.1,0.5,0
		c0.1,0.2,0.1,0.3,0,0.5l-3.4,3.3c-0.3,0.3-0.9,0.3-1.3,0c-0.3-0.3-0.3-0.9,0-1.3l3.4-3.4c0.6-0.6,1.5-0.5,2,0c0.6,0.6,0.5,1.5,0,2
		l-4.2,4.1c-0.1,0.1-0.1,0.2,0,0.3s0.2,0.1,0.3,0l4.2-4.1C548.7,351.7,548.7,350.5,548,349.8z"/>
	<g>
		<path fill="#FFFFFF" d="M542.2,354.7c0.5,0.5,1.3,0.5,1.9,0l3.4-3.3c0.3-0.3,0.3-0.8,0-1.1s-0.8-0.3-1.1,0l-2.2,2.1
			c-0.1,0.1-0.1,0.2,0,0.3c0.1,0.1,0.2,0.1,0.3,0l2.2-2.1c0.1-0.1,0.3-0.1,0.5,0c0.1,0.2,0.1,0.3,0,0.5l-3.4,3.3
			c-0.3,0.3-0.9,0.3-1.3,0c-0.3-0.3-0.3-0.9,0-1.3l3.4-3.4c0.6-0.6,1.5-0.5,2,0c0.6,0.6,0.5,1.5,0,2l-4.2,4.1
			c-0.1,0.1-0.1,0.2,0,0.3s0.2,0.1,0.3,0l4.2-4.1c0.7-0.7,0.8-1.9,0-2.6c-0.7-0.7-1.9-0.8-2.6,0l-3.4,3.4
			C541.7,353.3,541.7,354.2,542.2,354.7z"/>
	</g>
</g>
<g>
	<path fill="#CCCCCC" d="M157.6,416.1l-0.2-1.1l-0.2-1.1c-0.1-0.6-0.7-1.1-1.3-1l-0.7,0.1v-0.1l-6,0.8c-0.7,0.1-1.1,0.7-1,1.3
		l0.2,1.2l0.2,1.2c0.1,0.7,0.7,1.1,1.3,1l6-0.8v-0.1l0.7-0.1C157.2,417.3,157.7,416.7,157.6,416.1z"/>
	<g>
		<g>
			<path fill="#F7F9F8" d="M157.8,415.1l1.1-0.2l-0.2-1.1c-0.1-0.6-0.7-1.1-1.3-1l-4.7,0.6c-0.6,0.1-1.1,0.7-1,1.3l0.2,1.1l1.1-0.2
				L157.8,415.1z"/>
			<path fill="#F7F9F8" d="M159.1,416.1L159,415l-1.1,0.2l-4.7,0.6l-1.1,0.2l0.2,1.1c0.1,0.6,0.7,1.1,1.3,1l4.7-0.6
				C158.7,417.3,159.2,416.7,159.1,416.1z"/>
		</g>
		<g>
			<path fill="#586273" d="M156,415.4l1.2-0.2l-0.3-2.4l-6,0.8c-0.7,0.1-1.1,0.7-1,1.3l0.2,1.2l1.2-0.2L156,415.4z"/>
			<path fill="#464E5C" d="M157.2,415.2l-1.2,0.2l-4.9,0.6l-1.2,0.2l0.2,1.2c0.1,0.7,0.7,1.1,1.3,1l6-0.8L157.2,415.2z"/>
		</g>
	</g>
</g>
<g>
	<path fill="#464E5C" d="M400.9,344.2l-47.2,0.1l0,9.9l47.2-0.1L400.9,344.2z M356.3,349.3c0-0.7,0.5-1.1,1.1-1.1
		c0.7,0,1.1,0.5,1.2,1.1c0,0.7-0.5,1.1-1.1,1.2C356.8,350.4,356.3,349.9,356.3,349.3z"/>
	<g>
		<g>
			
				<rect x="359.7" y="352.4" transform="matrix(-2.563279e-03 -1 1 -2.563279e-03 9.4262 714.8501)" fill="#B7BFC7" width="3" height="0.6"/>
		</g>
		<g>
			
				<rect x="364.7" y="352.4" transform="matrix(-2.686064e-03 -1 1 -2.686064e-03 14.4857 719.878)" fill="#B7BFC7" width="3" height="0.6"/>
		</g>
		<g>
			
				<rect x="369.7" y="352.4" transform="matrix(-2.337140e-03 -1 1 -2.337140e-03 19.3327 724.7009)" fill="#B7BFC7" width="3" height="0.6"/>
		</g>
		<g>
			
				<rect x="374.6" y="352.4" transform="matrix(-2.493780e-03 -1 1 -2.493780e-03 24.368 729.7027)" fill="#B7BFC7" width="3" height="0.6"/>
		</g>
		<g>
			
				<rect x="379.7" y="352.4" transform="matrix(-2.713005e-03 -1 1 -2.713005e-03 29.516 734.8023)" fill="#B7BFC7" width="3" height="0.6"/>
		</g>
		<g>
			
				<rect x="384.6" y="352.4" transform="matrix(-2.533715e-03 -1 1 -2.533715e-03 34.3734 739.6474)" fill="#B7BFC7" width="3" height="0.6"/>
		</g>
		<g>
			
				<rect x="389.5" y="352.4" transform="matrix(-2.671401e-03 -1 1 -2.671401e-03 39.4043 744.6425)" fill="#B7BFC7" width="3" height="0.6"/>
		</g>
		<g>
			
				<rect x="394.5" y="352.3" transform="matrix(-2.740066e-03 -1 1 -2.740066e-03 44.4849 749.6133)" fill="#B7BFC7" width="3" height="0.6"/>
		</g>
	</g>
	<g>
		<g>
			<rect x="363.4" y="352.7" fill="#B7BFC7" width="0.6" height="1.5"/>
		</g>
		<g>
			<rect x="368.4" y="352.7" fill="#B7BFC7" width="0.6" height="1.5"/>
		</g>
		<g>
			<rect x="373.3" y="352.7" fill="#B7BFC7" width="0.6" height="1.5"/>
		</g>
		<g>
			<rect x="378.4" y="352.7" fill="#B7BFC7" width="0.6" height="1.5"/>
		</g>
		<g>
			<rect x="383.3" y="352.7" fill="#B7BFC7" width="0.6" height="1.5"/>
		</g>
		<g>
			<rect x="388.2" y="352.6" fill="#B7BFC7" width="0.6" height="1.5"/>
		</g>
		<g>
			<rect x="393.2" y="352.6" fill="#B7BFC7" width="0.6" height="1.5"/>
		</g>
	</g>
	<path fill="#586273" d="M357.5,348.1c0.6,0,1.1,0.5,1.1,1.1l42.3-0.1v-4.9l-47.2,0.1v4.9h2.6C356.4,348.6,356.9,348.1,357.5,348.1z
		"/>
</g>
<path opacity="0.3" fill="#DCE4E8" enable-background="new    " d="M434.2,316l-9.3,9.9l33.1,23l5.3-5.6c0.9-1,0.9-2.6-0.1-3.5
	l-25.5-23.9C436.7,314.9,435.2,315,434.2,316z"/>
<path opacity="0.3" fill="#DCE4E8" enable-background="new    " d="M177.1,300.6l-20.3,0.5l9.5,56l12-0.3c1.5,0,2.8-1.3,2.8-2.9
	l-1.1-50.6C180,301.8,178.7,300.6,177.1,300.6z"/>
<path fill="#CCCCCC" d="M113.9,389.8c-3-6-10.2-8.4-16.2-5.4c-5.4,2.7-7.8,8.8-6.1,14.3l-3.6,1.8c-0.6,0.3-1,0.8-1.1,1.3
	c-0.2,0.5-0.2,1.2,0.1,1.7c0.6,1.1,1.9,1.6,3,1l3.7-1.8c3.5,4.3,9.6,5.8,14.8,3.3C114.5,403,116.9,395.7,113.9,389.8z"/>
<g>
	<g>
		<circle fill="#F7F9F8" cx="105.5" cy="395.2" r="12"/>
	</g>
	<g>
		<path fill="#F7F9F8" d="M89.3,401.8c0.2-0.5,0.6-1,1.1-1.3l6.7-3.3c1.1-0.6,2.5-0.1,3,1c0.6,1.1,0.1,2.5-1,3l-6.7,3.3
			c-1.1,0.6-2.5,0.1-3-1C89.2,403,89.1,402.4,89.3,401.8z"/>
	</g>
	<g>
		<path fill="#EF8555" d="M104.8,404.2c1.6,0.2,3.3-0.2,4.8-0.9c4.5-2.2,6.3-7.6,4.1-12.1c-0.8-1.5-1.9-2.8-3.3-3.6
			c-2.6-1.6-5.9-1.9-8.8-0.4c-4.5,2.2-6.3,7.6-4.1,12.1C98.9,402.2,101.7,403.9,104.8,404.2z"/>
	</g>
	<g>
		<g>
			<path fill="#DB5146" d="M99.7,388.3c1.6-0.3,3.3-0.3,4.9,0.2c4.7,1.6,7.3,6.7,5.7,11.4c-0.5,1.6-1.5,3-2.8,4.1
				c3-0.7,5.5-2.9,6.5-6c1.6-4.7-1-9.9-5.7-11.4C105.3,385.6,102.1,386.3,99.7,388.3z"/>
		</g>
		<g>
			<path fill="#E66F58" d="M104.6,388.5c-1.6-0.5-3.3-0.6-4.9-0.2c-1.2,1-2.2,2.4-2.8,4.1c-1.6,4.7,1,9.9,5.7,11.4
				c1.6,0.5,3.3,0.6,4.9,0.2c1.2-1,2.2-2.4,2.8-4.1C111.9,395.2,109.3,390.1,104.6,388.5z"/>
		</g>
	</g>
</g>
<path fill="#CCCCCC" d="M365.9,328c6.1,2.7,13.2-0.1,15.9-6.2c2.4-5.5,0.5-11.8-4.4-15l1.6-3.7c0.3-0.6,0.3-1.2,0-1.7
	c-0.2-0.5-0.6-1-1.2-1.3c-1.1-0.5-2.5,0-3,1.1l-1.7,3.8c-5.4-1.1-11.1,1.6-13.5,6.9C357,318.2,359.8,325.3,365.9,328z"/>
<g>
	<g>
		<circle fill="#F7F9F8" cx="368.9" cy="318.5" r="12"/>
	</g>
	<g>
		<path fill="#F7F9F8" d="M377.2,303.1c0.2,0.5,0.2,1.1,0,1.7l-3,6.8c-0.5,1.1-1.8,1.6-3,1.1s-1.6-1.8-1.1-3l3-6.8
			c0.5-1.1,1.8-1.6,3-1.1C376.6,302.1,377,302.5,377.2,303.1z"/>
	</g>
	<g>
		<path fill="#EF8555" d="M363.8,311.1c-1.3,0.9-2.4,2.2-3.1,3.8c-2,4.6,0,9.9,4.6,11.9c1.6,0.7,3.3,0.9,4.8,0.7
			c3-0.4,5.8-2.3,7.1-5.3c2-4.6,0-9.9-4.6-11.9C369.6,308.9,366.2,309.4,363.8,311.1z"/>
	</g>
	<g>
		<g>
			<path fill="#DB5146" d="M377.8,320.1c-1,1.3-2.3,2.3-3.9,2.9c-4.7,1.8-9.9-0.5-11.7-5.2c-0.6-1.6-0.8-3.3-0.5-4.9
				c-1.8,2.4-2.4,5.7-1.3,8.8c1.8,4.7,7,7,11.7,5.2C375.2,325.8,377.3,323.1,377.8,320.1z"/>
		</g>
		<g>
			<path fill="#E66F58" d="M373.9,323.1c1.6-0.6,2.9-1.6,3.9-2.9c0.3-1.6,0.2-3.3-0.5-4.9c-1.8-4.7-7-7-11.7-5.2
				c-1.6,0.6-2.9,1.6-3.9,2.9c-0.3,1.6-0.2,3.3,0.5,4.9C364,322.5,369.2,324.9,373.9,323.1z"/>
		</g>
	</g>
</g>
<path fill="#CCCCCC" d="M532.2,420.3c-5.2,4.1-6.1,11.7-2,16.9c3.7,4.7,10.2,5.9,15.3,3.1l2.5,3.2c0.4,0.5,0.9,0.8,1.5,0.8
	c0.6,0.1,1.2-0.1,1.7-0.5c1-0.8,1.1-2.2,0.4-3.2l-2.6-3.3c3.6-4.3,3.7-10.6,0.2-15.1C545,417,537.4,416.1,532.2,420.3z"/>
<g>
	<g>
		<circle fill="#F7F9F8" cx="539.2" cy="427.4" r="12"/>
	</g>
	<g>
		<path fill="#F7F9F8" d="M549,441.9c-0.6-0.1-1.1-0.3-1.5-0.8l-4.6-5.9c-0.8-1-0.6-2.4,0.4-3.2c1-0.8,2.4-0.6,3.2,0.4l4.6,5.9
			c0.8,1,0.6,2.4-0.4,3.2C550.1,441.9,549.5,442,549,441.9z"/>
	</g>
	<g>
		<path fill="#EF8555" d="M548.2,426.3c-0.2-1.6-0.8-3.2-1.9-4.5c-3.1-3.9-8.8-4.6-12.7-1.5c-1.3,1.1-2.3,2.4-2.9,3.9
			c-1.1,2.9-0.7,6.2,1.4,8.8c3.1,3.9,8.8,4.6,12.7,1.5C547.3,432.5,548.5,429.3,548.2,426.3z"/>
	</g>
	<g>
		<g>
			<path fill="#DB5146" d="M533.6,434.5c-0.7-1.5-1-3.1-0.8-4.8c0.6-5,5.1-8.5,10.1-7.9c1.7,0.2,3.3,0.9,4.5,1.9
				c-1.3-2.8-3.9-4.8-7.2-5.2c-5-0.6-9.4,2.9-10.1,7.9C529.8,429.5,531.2,432.6,533.6,434.5z"/>
		</g>
		<g>
			<path fill="#E66F58" d="M532.8,429.7c-0.2,1.7,0.1,3.4,0.8,4.8c1.3,1,2.8,1.6,4.5,1.9c5,0.6,9.4-2.9,10.1-7.9
				c0.2-1.7-0.1-3.4-0.8-4.8c-1.3-1-2.8-1.6-4.5-1.9C537.9,421.2,533.4,424.7,532.8,429.7z"/>
		</g>
	</g>
</g>
<polygon fill="#B7B7B7" points="203.5,512.1 161.1,512.7 161.1,514.5 161.1,516.3 203.6,515.6 203.6,513.8 "/>
<polygon fill="#B7B7B7" points="208.8,513.3 203.5,512.1 203.6,515.6 208.9,514.2 210.6,513.7 "/>
<g>
	<g>
		<polygon fill="#464E5C" points="203.8,512.5 163.1,513.2 161.3,513.3 161.4,515 203.8,514.3 		"/>
		<polygon fill="#586273" points="203.8,512.5 203.8,510.8 161.3,511.5 161.3,513.3 163.1,513.2 		"/>
	</g>
	<g>
		<polygon fill="#464E5C" points="210.8,512.4 209.1,512.1 209.1,512.9 		"/>
		<polygon fill="#F7F9F8" points="209.1,512.1 203.8,510.8 203.8,514.3 209.1,512.9 		"/>
	</g>
	<g>
		
			<rect x="164.9" y="512.5" transform="matrix(-1.675889e-02 -0.9999 0.9999 -1.675889e-02 -343.6677 688.3726)" fill="#EF8555" width="3.5" height="1.3"/>
	</g>
</g>
<path fill="#586273" d="M204.6,496L204.6,496L204.6,496z"/>
<path opacity="0.3" fill="#848484" enable-background="new    " d="M218.7,437.3l-87.4-0.6c0,0-2.1,0-2.1,2.1c0,2.1,2.1,2.1,2.1,2.1
	l6.3,0c0,0-2.1,0-2.1,2.1c0,2.1-0.3,43.5-0.3,43.5c0,2.2,2,4,4.2,4l70.9,0.5c2.2,0,4-1.8,4-3.9c0,0,0.2-33.2,0.3-41.6l0,0
	c0,0,0-0.3,0-1.9c0-2.1-2.1-2.1-2.1-2.1l6.3,0c0,0,2.1,0,2.1-2.1C220.8,437.3,218.7,437.3,218.7,437.3z"/>
<g>
	<path fill="#DCE4E8" d="M215.8,486.6c0,2.2-1.8,3.9-4,3.9l-70.9-0.5c-2.2,0-4.2-1.8-4.2-4c0,0,0.3-41.4,0.3-43.5
		c0-2.1,2.1-2.1,2.1-2.1l74.9,0.5c0,0,2.1,0,2.1,2.1C216,445.2,215.8,486.6,215.8,486.6z"/>
	<path fill="#F7F9F8" d="M220.2,441l-87.4-0.6c0,0-2.1,0-2.1-2.1c0-2.1,2.1-2.1,2.1-2.1l87.4,0.6c0,0,2.1,0,2.1,2.1
		C222.3,441.1,220.2,441,220.2,441z"/>
	<path opacity="0.3" fill="#B7BFC7" enable-background="new    " d="M216,445l-79.3,30.2c0,0,0.2-30.5,0.2-32.6
		c0-2.1,2.1-2.1,2.1-2.1l74.9,0.5c0,0,2.1,0,2.1,2.1C216,445.2,216,445,216,445z"/>
	<g>
		
			<rect x="165.4" y="476.1" transform="matrix(-1 -6.584271e-03 6.584271e-03 -1 349.1543 964.06)" fill="#F7F9F8" width="21.6" height="10.7"/>
		<g>
			
				<rect x="148.8" y="448.3" transform="matrix(-1 -6.564959e-03 6.564959e-03 -1 298.8821 900.2805)" fill="#F7F9F8" width="4.2" height="2.8"/>
			
				<rect x="148.8" y="452.7" transform="matrix(-1 -6.567344e-03 6.567344e-03 -1 298.7715 910.3022)" fill="#F7F9F8" width="4.2" height="3.9"/>
			
				<rect x="148.8" y="458.3" transform="matrix(-1 -6.590708e-03 6.590708e-03 -1 301.438 921.981)" fill="#F7F9F8" width="7" height="4.4"/>
			
				<rect x="148.7" y="464.1" transform="matrix(-1 -6.566152e-03 6.566152e-03 -1 304.3584 933.1178)" fill="#F7F9F8" width="10" height="3.9"/>
			
				<rect x="154.4" y="452.7" transform="matrix(-1 -6.592854e-03 6.592854e-03 -1 310.1965 910.4205)" fill="#F7F9F8" width="4.4" height="3.9"/>
			
				<rect x="157.1" y="458.3" transform="matrix(-1 -6.542787e-03 6.542787e-03 -1 315.6891 922.0971)" fill="#F7F9F8" width="4.4" height="4.4"/>
			
				<rect x="160.1" y="464.1" transform="matrix(-1 -6.592854e-03 6.592854e-03 -1 321.5969 933.2556)" fill="#F7F9F8" width="4.4" height="3.9"/>
			
				<rect x="165.7" y="464.2" transform="matrix(-1 -6.564959e-03 6.564959e-03 -1 332.5109 933.3632)" fill="#F7F9F8" width="4.2" height="3.9"/>
			
				<rect x="171.5" y="464.2" transform="matrix(-1 -6.564959e-03 6.564959e-03 -1 344.1388 933.4778)" fill="#F7F9F8" width="4.2" height="3.9"/>
			
				<rect x="177.1" y="464.2" transform="matrix(-1 -6.581410e-03 6.581410e-03 -1 355.2235 933.5933)" fill="#F7F9F8" width="4.2" height="3.9"/>
			
				<rect x="182.9" y="464.3" transform="matrix(-1 -6.617887e-03 6.617887e-03 -1 366.8345 933.7148)" fill="#F7F9F8" width="4.2" height="3.9"/>
			
				<rect x="188.2" y="464.3" transform="matrix(-1 -6.543025e-03 6.543025e-03 -1 377.8469 933.8137)" fill="#F7F9F8" width="4.4" height="3.9"/>
			
				<rect x="194" y="464.4" transform="matrix(-1 -6.587370e-03 6.587370e-03 -1 394.9998 934.0314)" fill="#F7F9F8" width="10" height="3.9"/>
			
				<rect x="162.9" y="458.4" transform="matrix(-1 -6.564959e-03 6.564959e-03 -1 327.039 922.2142)" fill="#F7F9F8" width="4.2" height="4.4"/>
			
				<rect x="168.5" y="458.4" transform="matrix(-1 -6.544933e-03 6.544933e-03 -1 338.4848 922.3251)" fill="#F7F9F8" width="4.4" height="4.4"/>
			
				<rect x="174.3" y="458.4" transform="matrix(-1 -6.569966e-03 6.569966e-03 -1 349.8334 922.443)" fill="#F7F9F8" width="4.2" height="4.4"/>
			
				<rect x="179.9" y="458.5" transform="matrix(-1 -6.592854e-03 6.592854e-03 -1 361.183 922.5607)" fill="#F7F9F8" width="4.4" height="4.4"/>
			
				<rect x="185.7" y="458.5" transform="matrix(-1 -6.615503e-03 6.615503e-03 -1 372.5327 922.6788)" fill="#F7F9F8" width="4.2" height="4.4"/>
			
				<rect x="191.3" y="458.5" transform="matrix(-1 -6.592854e-03 6.592854e-03 -1 383.9797 922.789)" fill="#F7F9F8" width="4.4" height="4.4"/>
			
				<rect x="197.1" y="458.6" transform="matrix(-1 -6.554946e-03 6.554946e-03 -1 398.1496 922.9043)" fill="#F7F9F8" width="7" height="4.4"/>
			
				<rect x="160.2" y="452.8" transform="matrix(-1 -6.599052e-03 6.599052e-03 -1 321.7833 910.536)" fill="#F7F9F8" width="4.4" height="3.9"/>
			
				<rect x="165.8" y="452.8" transform="matrix(-1 -6.566867e-03 6.566867e-03 -1 332.738 910.5668)" fill="#F7F9F8" width="4.2" height="3.9"/>
			
				<rect x="171.6" y="452.8" transform="matrix(-1 -6.576165e-03 6.576165e-03 -1 344.3617 910.683)" fill="#F7F9F8" width="4.2" height="3.9"/>
			
				<rect x="177.1" y="452.8" transform="matrix(-1 -6.572589e-03 6.572589e-03 -1 355.4556 910.7949)" fill="#F7F9F8" width="4.2" height="3.9"/>
			
				<rect x="183" y="452.9" transform="matrix(-1 -6.569966e-03 6.569966e-03 -1 367.0847 910.9092)" fill="#F7F9F8" width="4.2" height="3.9"/>
			
				<rect x="188.3" y="452.9" transform="matrix(-1 -6.592854e-03 6.592854e-03 -1 378.0518 911.0264)" fill="#F7F9F8" width="4.4" height="3.9"/>
			
				<rect x="194.1" y="453" transform="matrix(-1 -6.557330e-03 6.557330e-03 -1 395.2416 911.2288)" fill="#F7F9F8" width="10" height="3.9"/>
			
				<rect x="148.7" y="469.4" transform="matrix(-1 -6.564959e-03 6.564959e-03 -1 298.4318 944.2291)" fill="#F7F9F8" width="4.2" height="4.4"/>
			
				<rect x="154.3" y="469.4" transform="matrix(-1 -6.542787e-03 6.542787e-03 -1 309.8788 944.34)" fill="#F7F9F8" width="4.4" height="4.4"/>
			
				<rect x="160.1" y="469.6" transform="matrix(-1 -6.578787e-03 6.578787e-03 -1 344.0187 944.6874)" fill="#F7F9F8" width="27" height="4.4"/>
			
				<rect x="188.2" y="469.7" transform="matrix(-1 -6.590708e-03 6.590708e-03 -1 377.711 945.0298)" fill="#F7F9F8" width="4.4" height="4.4"/>
			
				<rect x="194" y="469.7" transform="matrix(-1 -6.612404e-03 6.612404e-03 -1 389.2903 945.1486)" fill="#F7F9F8" width="4.4" height="4.4"/>
			
				<rect x="199.8" y="469.8" transform="matrix(-1 -6.567344e-03 6.567344e-03 -1 400.71 945.2537)" fill="#F7F9F8" width="4.2" height="4.4"/>
			
				<rect x="154.4" y="448.3" transform="matrix(-1 -6.544933e-03 6.544933e-03 -1 310.3277 900.3918)" fill="#F7F9F8" width="4.4" height="2.8"/>
			
				<rect x="160.2" y="448.3" transform="matrix(-1 -6.592854e-03 6.592854e-03 -1 321.9341 900.5141)" fill="#F7F9F8" width="4.4" height="2.8"/>
			
				<rect x="165.8" y="448.4" transform="matrix(-1 -6.564959e-03 6.564959e-03 -1 332.7712 900.6209)" fill="#F7F9F8" width="4.2" height="2.8"/>
			
				<rect x="171.6" y="448.4" transform="matrix(-1 -6.564959e-03 6.564959e-03 -1 344.3991 900.7355)" fill="#F7F9F8" width="4.2" height="2.8"/>
			
				<rect x="177.2" y="448.4" transform="matrix(-1 -6.571874e-03 6.571874e-03 -1 355.5648 900.8501)" fill="#F7F9F8" width="4.2" height="2.8"/>
			
				<rect x="183" y="448.5" transform="matrix(-1 -6.566867e-03 6.566867e-03 -1 367.1949 900.9638)" fill="#F7F9F8" width="4.2" height="2.8"/>
			
				<rect x="188.3" y="448.5" transform="matrix(-1 -6.592854e-03 6.592854e-03 -1 378.1608 901.0817)" fill="#F7F9F8" width="4.4" height="2.8"/>
			
				<rect x="194.2" y="448.6" transform="matrix(-1 -6.614788e-03 6.614788e-03 -1 389.7406 901.2004)" fill="#F7F9F8" width="4.4" height="2.8"/>
			
				<rect x="200" y="448.6" transform="matrix(-1 -6.567344e-03 6.567344e-03 -1 401.1602 901.3051)" fill="#F7F9F8" width="4.2" height="2.8"/>
		</g>
	</g>
	
		<rect x="157.7" y="440.8" transform="matrix(-1 -6.580218e-03 6.580218e-03 -1 350.1823 884.7688)" fill="#DCE4E8" width="37.7" height="2.1"/>
</g>
</svg>
