<?xml version="1.0" encoding="utf-8"?>
<!-- Generator: Adobe Illustrator 18.0.0, SVG Export Plug-In . SVG Version: 6.00 Build 0)  -->
<!DOCTYPE svg PUBLIC "-//W3C//DTD SVG 1.1//EN" "http://www.w3.org/Graphics/SVG/1.1/DTD/svg11.dtd">
<svg version="1.1" id="Layer_1" xmlns="http://www.w3.org/2000/svg" xmlns:xlink="http://www.w3.org/1999/xlink" x="0px" y="0px"
	 viewBox="0 530 612 262" enable-background="new 0 530 612 262" xml:space="preserve">
<polygon fill="#586273" points="52.2,714.8 46,724.8 53.3,727.1 54.1,715.4 54.3,711.5 "/>
<g opacity="0.2">
	<path fill="#586273" d="M11.2,612.9L28,751.5c0.5,4.2,4.4,7.3,8.6,6.8l101-12.3c4.2-0.5,7.3-4.4,6.8-8.6l-16.8-138.6
		c-0.5-4.2-4.4-7.3-8.6-6.8L18,604.3C13.7,604.8,10.7,608.7,11.2,612.9z"/>
	<path fill="#586273" d="M227.7,569.2c-8.8,13.8-4.8,32.1,9,41c12.4,7.9,28.5,5.4,38-5.2l8.3,5.3c1.3,0.8,2.8,1,4.2,0.7
		c1.7-0.4,3.1-1.5,3.9-3.2c1-2.4-0.1-5.6-2.3-7l-8.4-5.4c4.8-12.8,0.2-27.7-11.8-35.3C254.8,551.3,236.5,555.4,227.7,569.2z"/>
	
		<rect x="475.5" y="586.2" transform="matrix(0.8189 0.5739 -0.5739 0.8189 480.7818 -185.5115)" fill="#586273" width="117.8" height="165.8"/>
	<path fill="#586273" d="M442.1,667.8l43.6-2c3.4-0.2,6.1-3.1,5.9-6.5l-4-87.2c-0.2-3.4-3.1-6.1-6.5-5.9l-43.6,2
		c-3.4,0.2-6.1,3.1-5.9,6.5l4,87.2C435.8,665.3,438.7,668,442.1,667.8z"/>
	<polygon fill="#586273" points="494.4,774.2 581.8,743 583.4,742.5 583.4,742.5 594.4,738.6 592.9,734.4 591.4,730.2 491.4,765.9 
		492.9,770.1 	"/>
	<polygon fill="#586273" points="480.8,775.6 494.4,774.2 491.4,765.9 480,773.5 476.3,776 	"/>
</g>
<g>
	<g>
		<path fill="#F7F9F8" d="M16.5,613.6c0,0,15,124.1,15,124.1l101-12.3c0,0-15.1-124.1-15.1-124.1L16.5,613.6z"/>
	</g>
	<path fill="#586273" d="M115.8,586.9l-101,12.3c-4.2,0.5-7.3,4.4-6.8,8.6l16.8,138.6c0.5,4.2,4.4,7.3,8.6,6.8l101-12.3
		c4.2-0.5,7.3-4.4,6.8-8.6l-16.8-138.6C123.9,589.5,120,586.4,115.8,586.9z M132.6,725.5l-101,12.3c0,0-15-124.1-15-124.1
		c0,0,101-12.2,101-12.2L132.6,725.5z"/>
	<g>
		
			<rect x="71.4" y="737.4" transform="matrix(0.9927 -0.1204 0.1204 0.9927 -88.4478 15.3835)" fill="#464E5C" width="23.3" height="3.9"/>
	</g>
	
		<rect x="36.2" y="709.1" transform="matrix(0.9927 -0.1205 0.1205 0.9927 -86.368 10.1801)" fill="#E66F58" width="9.7" height="20.8"/>
	
		<rect x="50.9" y="693.9" transform="matrix(0.9927 -0.1204 0.1204 0.9927 -85.1781 11.8742)" fill="#E66F58" width="9.7" height="34.2"/>
	
		<rect x="67.6" y="700.8" transform="matrix(0.9927 -0.1203 0.1203 0.9927 -85.3012 13.8514)" fill="#E66F58" width="8.9" height="25.2"/>
	
		<rect x="82.1" y="682.6" transform="matrix(0.9927 -0.1205 0.1205 0.9927 -84.1033 15.5956)" fill="#E66F58" width="9.7" height="41.6"/>
	
		<rect x="98.3" y="691.8" transform="matrix(0.9927 -0.1203 0.1203 0.9927 -84.3047 17.5347)" fill="#E66F58" width="9.7" height="30.4"/>
	
		<rect x="113.3" y="670.7" transform="matrix(0.9927 -0.1204 0.1204 0.9927 -82.8899 19.2402)" fill="#E66F58" width="8.9" height="49.7"/>
	<g>
		<path fill="#4A9ED5" d="M33.3,682.6c-0.7,0.1-1.4-0.2-1.8-0.8c-0.7-0.9-0.5-2.1,0.4-2.8l28.7-21.7c0.9-0.7,2.1-0.5,2.8,0.4
			c0.7,0.9,0.5,2.1-0.4,2.8l-28.7,21.7C34,682.4,33.7,682.5,33.3,682.6z"/>
	</g>
	<g>
		<path fill="#4A9ED5" d="M81.9,671.4c-0.7,0.1-1.4-0.2-1.8-0.8c-0.7-0.9-0.5-2.1,0.4-2.8l32.1-24.6c0.9-0.7,2.1-0.5,2.8,0.4
			c0.7,0.9,0.5,2.1-0.4,2.8L82.9,671C82.6,671.2,82.2,671.3,81.9,671.4z"/>
	</g>
	<g>
		<path fill="#4A9ED5" d="M81.9,671.3c-0.4,0-0.8,0-1.2-0.2l-19.9-10.5c-1-0.5-1.3-1.7-0.8-2.7c0.5-1,1.7-1.3,2.7-0.8l19.9,10.5
			c1,0.5,1.3,1.7,0.8,2.7C83.1,670.9,82.5,671.3,81.9,671.3z"/>
	</g>
	
		<rect x="25.2" y="617.8" transform="matrix(0.9927 -0.1204 0.1204 0.9927 -75.4413 8.772)" fill="#B7BFC7" width="19.3" height="21.5"/>
	
		<rect x="47.1" y="615" transform="matrix(0.9927 -0.1204 0.1204 0.9927 -73.9251 11.4531)" fill="#DCE4E8" width="21.5" height="5.2"/>
	
		<rect x="48.1" y="623.4" transform="matrix(0.9927 -0.1203 0.1203 0.9927 -74.9284 11.2718)" fill="#DCE4E8" width="15.6" height="5.2"/>
	
		<rect x="96.7" y="617.5" transform="matrix(0.9927 -0.1204 0.1204 0.9927 -73.8811 17.1342)" fill="#DCE4E8" width="16.3" height="5.2"/>
	
		<rect x="66.5" y="620.5" transform="matrix(0.9927 -0.1204 0.1204 0.9927 -74.4123 14.1813)" fill="#DCE4E8" width="27.5" height="5.2"/>
	
		<rect x="49.1" y="631.9" transform="matrix(0.9927 -0.1204 0.1204 0.9927 -76.0144 11.0621)" fill="#DCE4E8" width="8.9" height="5.2"/>
	
		<rect x="60.8" y="629.9" transform="matrix(0.9927 -0.1204 0.1204 0.9927 -75.6161 13.0361)" fill="#DCE4E8" width="18.6" height="5.2"/>
	
		<rect x="71.4" y="612.8" transform="matrix(0.9927 -0.1204 0.1204 0.9927 -73.5349 13.6124)" fill="#DCE4E8" width="8.9" height="5.2"/>
	
		<rect x="83.2" y="610.1" transform="matrix(0.9927 -0.1204 0.1204 0.9927 -73.0514 16.2088)" fill="#DCE4E8" width="29" height="5.2"/>
	<g>
		<g>
			<circle fill="#F7F9F8" cx="249.7" cy="580.1" r="29.7"/>
		</g>
		<g>
			<path fill="#F7F9F8" d="M284.2,606c-1.4,0.3-2.9,0.1-4.2-0.7l-15.4-9.9c-2.6-1.7-3.3-5.1-1.7-7.7c1.7-2.6,5.1-3.3,7.7-1.7
				l15.3,9.7c2.2,1.4,3.3,4.6,2.3,7C287.4,604.5,285.9,605.7,284.2,606z"/>
		</g>
		<g>
			<path fill="#EF8555" d="M269.6,570.3c-1.7-3.6-4.4-6.7-8-9c-10.4-6.6-24.1-3.6-30.7,6.8c-2.3,3.6-3.4,7.6-3.5,11.5
				c-0.2,8,4,15.9,11.8,20.1c9.6,5.1,21.7,2.5,28.3-6.2C272.7,586.5,273.2,577.5,269.6,570.3z"/>
		</g>
		<g>
			<g>
				<path fill="#DB5146" d="M242.4,601.1c-2.7-2.8-4.8-6.5-5.7-10.6c-2.6-12,4.9-23.9,16.9-26.5c4.1-0.9,8.3-0.6,12,0.7
					c-5.2-5.4-13-8.1-20.8-6.3c-12,2.6-19.6,14.5-16.9,26.5C229.7,592.8,235.4,598.7,242.4,601.1z"/>
			</g>
			<g>
				<path fill="#E66F58" d="M236.8,590.5c0.9,4.1,2.9,7.8,5.7,10.6c4.2,1.4,8.8,1.6,13.4,0.3c10.6-3.1,17.5-13.8,15.8-24.7
					c-0.7-4.7-2.9-8.9-5.9-12c-3.7-1.3-7.9-1.6-12-0.7C241.7,566.7,234.1,578.5,236.8,590.5z"/>
			</g>
		</g>
	</g>
	<g>
		<g>
			<g>
				<g>
					
						<rect x="452" y="611.8" transform="matrix(-0.5739 0.8189 -0.8189 -0.5739 1391.1521 617.5562)" fill="#F7F9F8" width="165.8" height="117.8"/>
				</g>
			</g>
		</g>
		<g>
			
				<rect x="556.2" y="658.1" transform="matrix(0.8189 0.5739 -0.5739 0.8189 483.5308 -211.8395)" fill="#B7BFC7" width="42.5" height="4.5"/>
			
				<rect x="551.9" y="664.2" transform="matrix(0.8189 0.5739 -0.5739 0.8189 486.2777 -208.2775)" fill="#DCE4E8" width="42.5" height="4.5"/>
			
				<rect x="547.6" y="670.3" transform="matrix(0.8189 0.5739 -0.5739 0.8189 489.0212 -204.7152)" fill="#DCE4E8" width="42.5" height="4.5"/>
			
				<rect x="543.4" y="676.4" transform="matrix(0.8189 0.5739 -0.5739 0.8189 491.7428 -201.1509)" fill="#DCE4E8" width="42.5" height="4.5"/>
		</g>
		
			<rect x="512.1" y="630" transform="matrix(0.8189 0.5739 -0.5739 0.8189 464.6357 -208.0979)" fill="#DCE4E8" width="100" height="4.5"/>
		
			<rect x="520.7" y="610.3" transform="matrix(0.8189 0.5739 -0.5739 0.8189 459.1878 -215.2263)" fill="#B7BFC7" width="100" height="19.4"/>
		<g>
			
				<rect x="483" y="671.5" transform="matrix(0.8189 0.5739 -0.5739 0.8189 483.2126 -183.8663)" fill="#DCE4E8" width="100" height="4.5"/>
			
				<rect x="478.7" y="677.6" transform="matrix(0.8189 0.5739 -0.5739 0.8189 485.9417 -180.3033)" fill="#DCE4E8" width="100" height="4.5"/>
			
				<rect x="474.4" y="683.8" transform="matrix(0.8189 0.5739 -0.5739 0.8189 488.6666 -176.7395)" fill="#DCE4E8" width="100" height="4.5"/>
		</g>
		<g>
			
				<rect x="449.6" y="719.2" transform="matrix(0.8189 0.5739 -0.5739 0.8189 504.5109 -156.0715)" fill="#DCE4E8" width="100" height="4.5"/>
			
				<rect x="447.3" y="718.9" transform="matrix(0.8189 0.5739 -0.5739 0.8189 501.8871 -148.412)" fill="#DCE4E8" width="77.6" height="4.5"/>
		</g>
		<g>
			
				<rect x="469.3" y="685.7" transform="matrix(0.8189 0.5739 -0.5739 0.8189 485.8339 -163.8246)" fill="#B7BFC7" width="66.4" height="4.5"/>
			
				<rect x="465" y="691.8" transform="matrix(0.8189 0.5739 -0.5739 0.8189 488.5502 -160.2611)" fill="#DCE4E8" width="66.4" height="4.5"/>
			
				<rect x="460.8" y="697.9" transform="matrix(0.8189 0.5739 -0.5739 0.8189 491.2913 -156.6976)" fill="#DCE4E8" width="66.4" height="4.5"/>
			
				<rect x="529.2" y="715.2" transform="matrix(0.8189 0.5739 -0.5739 0.8189 514.2443 -179.9233)" fill="#4A9ED5" width="26.1" height="19.4"/>
		</g>
		<g>
			
				<rect x="506.1" y="612.4" transform="matrix(0.8189 0.574 -0.574 0.8189 451.3576 -178.6461)" fill="#DCE4E8" width="5.2" height="26.9"/>
			
				<rect x="512.2" y="616.7" transform="matrix(0.819 0.5738 -0.5738 0.819 454.7271 -181.3627)" fill="#DCE4E8" width="5.2" height="26.9"/>
			
				<rect x="518.3" y="621" transform="matrix(0.819 0.5738 -0.5738 0.819 458.262 -184.0909)" fill="#DCE4E8" width="5.2" height="26.9"/>
			
				<rect x="524.4" y="625.2" transform="matrix(0.819 0.5739 -0.5739 0.819 461.9234 -186.8295)" fill="#DCE4E8" width="5.2" height="26.9"/>
			
				<rect x="530.6" y="629.5" transform="matrix(0.8189 0.574 -0.574 0.8189 465.6028 -189.5694)" fill="#DCE4E8" width="5.2" height="26.9"/>
			
				<rect x="536.7" y="633.8" transform="matrix(0.8188 0.5741 -0.5741 0.8188 469.2728 -192.3091)" fill="#DCE4E8" width="5.2" height="26.9"/>
			
				<rect x="542.8" y="638.1" transform="matrix(0.8189 0.5739 -0.5739 0.8189 472.6456 -195.024)" fill="#DCE4E8" width="5.2" height="26.9"/>
			
				<rect x="501.8" y="626" transform="matrix(0.8189 0.574 -0.574 0.8189 454.0886 -175.0821)" fill="#4A9ED5" width="5.2" height="11.9"/>
			
				<rect x="508.6" y="628.2" transform="matrix(0.819 0.5738 -0.5738 0.819 457.0751 -178.3364)" fill="#4A9ED5" width="5.2" height="14.2"/>
			
				<rect x="513.2" y="637.2" transform="matrix(0.8189 0.5739 -0.5739 0.8189 461.6696 -179.825)" fill="#4A9ED5" width="5.2" height="9"/>
			
				<rect x="521.4" y="634.7" transform="matrix(0.8189 0.5739 -0.5739 0.8189 463.8952 -184.3396)" fill="#4A9ED5" width="5.2" height="16.4"/>
			
				<rect x="528.4" y="636.3" transform="matrix(0.8189 0.574 -0.574 0.8189 466.9682 -187.7873)" fill="#4A9ED5" width="5.2" height="19.4"/>
			
				<rect x="530.2" y="654.2" transform="matrix(0.8189 0.5739 -0.5739 0.8189 473.1678 -186.9478)" fill="#4A9ED5" width="5.2" height="4.5"/>
			
				<rect x="538.5" y="651.6" transform="matrix(0.8188 0.574 -0.574 0.8188 475.5119 -191.4712)" fill="#4A9ED5" width="5.2" height="11.9"/>
		</g>
	</g>
	<path fill="#586273" d="M483.5,571.7l-43.6,2c-3.4,0.2-6.1,3.1-5.9,6.5l4,87.2c0.2,3.4,3.1,6.1,6.5,5.9l43.6-2
		c3.4-0.2,6.1-3.1,5.9-6.5l-4-87.2C489.8,574.2,486.9,571.5,483.5,571.7z"/>
	<polygon fill="#586273" points="487.5,658.9 443.9,660.9 440.2,579.9 440.2,579.9 483.8,577.9 483.8,577.9 	"/>
	
		<rect x="461.3" y="664.6" transform="matrix(0.9989 -4.592337e-02 4.592337e-02 0.9989 -30.0983 22.1023)" fill="#464E5C" width="9.4" height="3.1"/>
	<g>
		<polygon fill="#F7F9F8" points="440.2,579.9 440.2,579.9 443.9,660.9 487.5,658.9 483.8,577.9 483.8,577.9 		"/>
	</g>
	<g>
		<path fill="#4A9ED5" d="M476.1,611.5l-1.4-4.3c-0.1-0.4-0.6-1-1.1-1.1l-7.1-2.7c0,0,0,0,0,0l-0.1-1.3c1-1.4,1.6-3.3,1.5-5.4
			l-0.1-1.7c-0.1-3-2.6-5.3-5.4-5.2l0,0l0,0l0,0c-2.8,0.1-5,2.7-4.9,5.7l0.1,1.7c0.1,2.1,0.8,4,2,5.2l0.1,1.3c0,0,0,0,0,0l-6.8,3.4
			c-0.4,0.2-0.8,0.8-1,1.2l-1,4.4c-0.1,0.5,0.2,0.8,0.7,0.8l12-0.6l0,0l12-0.6C476,612.3,476.3,611.9,476.1,611.5z"/>
	</g>
	
		<rect x="450.7" y="620.9" transform="matrix(0.9989 -4.607904e-02 4.607904e-02 0.9989 -28.2737 22.0463)" fill="#DCE4E8" width="26.8" height="6.7"/>
	
		<rect x="451.1" y="631" transform="matrix(0.9989 -4.601474e-02 4.601474e-02 0.9989 -28.6957 22.0466)" fill="#DCE4E8" width="26.8" height="6.7"/>
	
		<rect x="458.2" y="641" transform="matrix(0.9989 -4.604226e-02 4.604226e-02 0.9989 -29.174 22.0859)" fill="#DCE4E8" width="13.4" height="6.7"/>
	<g>
		<circle fill="#586273" cx="454.4" cy="634.8" r="1.3"/>
	</g>
	<g>
		<circle fill="#586273" cx="461" cy="634.5" r="1.3"/>
	</g>
	<g>
		<circle fill="#586273" cx="457.7" cy="634.6" r="1.3"/>
	</g>
	<g>
		<circle fill="#586273" cx="464.4" cy="634.3" r="1.3"/>
	</g>
	<g>
		<circle fill="#586273" cx="453.9" cy="624.8" r="1.3"/>
	</g>
	<g>
		<circle fill="#586273" cx="467.3" cy="624.1" r="1.3"/>
	</g>
	<g>
		<circle fill="#586273" cx="460.6" cy="624.4" r="1.3"/>
	</g>
	<g>
		<circle fill="#586273" cx="457.2" cy="624.6" r="1.3"/>
	</g>
	<g>
		<circle fill="#586273" cx="463.9" cy="624.3" r="1.3"/>
	</g>
	
		<rect x="461.6" y="643.3" transform="matrix(0.9989 -4.604869e-02 4.604869e-02 0.9989 -29.1778 22.0922)" fill="#E66F58" width="6.7" height="2"/>
	<g>
		<g>
			<polygon fill="#464E5C" points="494,773.2 589.8,739 594,737.5 592.5,733.4 492.5,769.1 			"/>
			<polygon fill="#586273" points="494,773.2 495.5,777.4 595.5,741.7 594,737.5 589.8,739 			"/>
		</g>
		<g>
			<polygon fill="#464E5C" points="477.4,779.2 481.9,778.7 481.2,776.6 			"/>
			<polygon fill="#F7F9F8" points="481.9,778.7 495.5,777.4 492.5,769.1 481.2,776.6 			"/>
		</g>
		<g>
			
				<rect x="577.1" y="740.3" transform="matrix(-0.3364 -0.9417 0.9417 -0.3364 78.3288 1539.1827)" fill="#EF8555" width="8.8" height="3.3"/>
		</g>
	</g>
	<path opacity="0.3" fill="#DCE4E8" d="M483.5,571.7l-33.9,1.6l19.2,99l19.3-0.9c3.4-0.2,6.1-3.1,5.9-6.5l-4-87.2
		C489.8,574.2,486.9,571.5,483.5,571.7z"/>
	<path opacity="0.3" fill="#DCE4E8" d="M115.8,586.9L60,593.7L101.5,745l33-4.1c4.2-0.5,7.3-4.4,6.8-8.6l-16.8-138.6
		C123.9,589.5,120,586.4,115.8,586.9z"/>
</g>
</svg>
