<?xml version="1.0" encoding="utf-8"?>
<!-- Generator: Adobe Illustrator 18.0.0, SVG Export Plug-In . SVG Version: 6.00 Build 0)  -->
<!DOCTYPE svg PUBLIC "-//W3C//DTD SVG 1.1//EN" "http://www.w3.org/Graphics/SVG/1.1/DTD/svg11.dtd">
<svg version="1.1" id="Layer_1" xmlns="http://www.w3.org/2000/svg" xmlns:xlink="http://www.w3.org/1999/xlink" x="0px" y="0px"
	 viewBox="0 0 169.7 180.9" enable-background="new 0 0 169.7 180.9" xml:space="preserve">
<g>
	<g>
		
			<rect x="9.9" y="5.3" transform="matrix(0.9996 2.712042e-02 -2.712042e-02 0.9996 2.5207 -1.9049)" opacity="0.2" fill="#596374" width="123.2" height="173.4"/>
		<polygon opacity="0.2" fill="#596374" points="168.8,38.5 164.3,37.5 159.8,36.6 139.8,131.9 139.5,133.3 139.5,133.3 137,145.2 
			141.6,146.1 146.1,147.1 		"/>
		<polygon opacity="0.2" fill="#596374" points="168.3,24.2 168.1,19.4 166,23.7 159.8,36.6 168.8,38.5 		"/>
		
			<rect x="1.4" y="0.8" transform="matrix(0.9999 -1.568647e-02 1.568647e-02 0.9999 -1.3648 0.9981)" opacity="0.2" fill="#596374" width="123.2" height="173.4"/>
	</g>
	<g>
		<g>
			<g>
				
					<rect x="-22.6" y="26.5" transform="matrix(2.257032e-02 0.9997 -0.9997 2.257032e-02 150.6514 22.0291)" fill="#E6EDF1" width="173.4" height="123.2"/>
			</g>
		</g>
		<g>
			<g>
				
					<rect x="-14.1" y="30.9" transform="matrix(-2.711969e-02 0.9996 -0.9996 -2.711969e-02 167.077 22.4694)" fill="#F7F9F8" width="173.4" height="123.2"/>
			</g>
		</g>
		<g>
			<path fill="#B7BFC7" d="M53,21.3c-0.8-0.1-1.6-0.2-2.4-0.2c-2.9-0.1-5.7,0.3-8.3,1.1l7.6,25.7L53,21.3z"/>
			<path fill="#EF8556" d="M74.7,38C71.2,29,62.9,22.4,53,21.3l-3.1,26.6L74.7,38z"/>
			<path fill="#DCE4E8" d="M42.3,22.2c-10.8,3.2-18.9,13.1-19.2,25C22.7,60,31.4,70.9,43.4,73.9l6.4-26L42.3,22.2z"/>
			<path fill="#596374" d="M49.8,47.9l-6.4,26c1.8,0.4,3.7,0.7,5.7,0.8c14.8,0.4,27.1-11.3,27.5-26c0.1-3.7-0.6-7.3-1.9-10.6
				L49.8,47.9z"/>
		</g>
		
			<rect x="19.9" y="115.1" transform="matrix(0.9996 2.712006e-02 -2.712006e-02 0.9996 3.2106 -1.9125)" fill="#DCE4E8" width="104.5" height="4.7"/>
		
			<rect x="20.1" y="107.3" transform="matrix(0.9996 2.712022e-02 -2.712022e-02 0.9996 2.9993 -1.9211)" fill="#DCE4E8" width="104.5" height="4.7"/>
		
			<rect x="20.3" y="99.5" transform="matrix(0.9996 2.712003e-02 -2.712003e-02 0.9996 2.7879 -1.9297)" fill="#DCE4E8" width="104.5" height="4.7"/>
		
			<rect x="20.5" y="91.7" transform="matrix(0.9996 2.712006e-02 -2.712006e-02 0.9996 2.5765 -1.9383)" fill="#DCE4E8" width="104.5" height="4.7"/>
		<g>
			
				<rect x="88.3" y="35.2" transform="matrix(0.9996 2.698466e-02 -2.698466e-02 0.9996 1.0463 -2.4328)" fill="#EF8556" width="4.7" height="4.7"/>
			
				<rect x="96.1" y="35.8" transform="matrix(0.9996 2.713145e-02 -2.713145e-02 0.9996 1.075 -3.0063)" fill="#DCE4E8" width="30.4" height="4.7"/>
			
				<rect x="88.1" y="43" transform="matrix(0.9996 2.701602e-02 -2.701602e-02 0.9996 1.2581 -2.4271)" fill="#DCE4E8" width="4.7" height="4.7"/>
			
				<rect x="95.9" y="43.6" transform="matrix(0.9996 2.713342e-02 -2.713342e-02 0.9996 1.2865 -2.9979)" fill="#DCE4E8" width="30.4" height="4.7"/>
			
				<rect x="87.9" y="50.8" transform="matrix(0.9996 2.714759e-02 -2.714759e-02 0.9996 1.476 -2.4302)" fill="#B7BFC7" width="4.7" height="4.7"/>
			
				<rect x="95.7" y="51.4" transform="matrix(0.9996 2.713409e-02 -2.713409e-02 0.9996 1.498 -2.9894)" fill="#DCE4E8" width="30.4" height="4.7"/>
			
				<rect x="87.7" y="58.6" transform="matrix(0.9996 2.714759e-02 -2.714759e-02 0.9996 1.6875 -2.4216)" fill="#596374" width="4.7" height="4.7"/>
			
				<rect x="95.5" y="59.2" transform="matrix(0.9996 2.710903e-02 -2.710903e-02 0.9996 1.7079 -2.978)" fill="#DCE4E8" width="30.4" height="4.7"/>
		</g>
		
			<rect x="19.7" y="122" transform="matrix(0.9996 2.711835e-02 -2.711835e-02 0.9996 3.3873 -1.0584)" fill="#DCE4E8" width="42.1" height="4.7"/>
		<polygon fill="#DCE4E8" points="123.8,139.9 116.5,138.2 109,142.8 102.1,150.3 96.6,145.2 87,143.2 81.2,149.4 75.6,151.6 
			68.4,146.4 62.8,147.9 57.5,154.4 52,150 46.5,155 41.6,153 37.4,157.5 28.5,160.8 18.8,157.3 18.5,165.1 123,167.9 		"/>
		<polygon fill="#64C3EE" points="123.5,150 116.2,151.4 108.6,157.6 105.1,155.1 99.4,159.1 94,155.3 88.4,152.7 84.4,154 
			78.6,159.5 74,154.7 69.7,155.8 67.3,154.3 63.6,160 55.6,157.2 50.2,161.7 44.9,158.8 40.6,161.6 34.2,160.6 28.5,162.4 
			23.6,161.4 18.6,162.8 18.5,165.1 123,167.9 		"/>
	</g>
	<g>
		<g>
			<polygon fill="#D56E40" points="165.2,38.9 143.5,142.9 142.5,147.5 147,148.4 169.7,39.8 			"/>
			<polygon fill="#EF8556" points="165.2,38.9 160.7,37.9 138,146.5 142.5,147.5 143.5,142.9 			"/>
		</g>
		<g>
			<polygon fill="#474F5D" points="169,20.7 166.9,25 169.2,25.5 			"/>
			<polygon fill="#F7F9F8" points="166.9,25 160.7,37.9 169.7,39.8 169.2,25.5 			"/>
		</g>
		<g>
			
				<rect x="140.7" y="132.2" transform="matrix(0.9789 0.2045 -0.2045 0.9789 30.4577 -26.8976)" fill="#596374" width="9.2" height="3.5"/>
		</g>
	</g>
</g>
</svg>
