<?xml version="1.0" encoding="utf-8"?>
<!-- Generator: Adobe Illustrator 18.0.0, SVG Export Plug-In . SVG Version: 6.00 Build 0)  -->
<!DOCTYPE svg PUBLIC "-//W3C//DTD SVG 1.1//EN" "http://www.w3.org/Graphics/SVG/1.1/DTD/svg11.dtd">
<svg version="1.1" id="Layer_1" xmlns="http://www.w3.org/2000/svg" xmlns:xlink="http://www.w3.org/1999/xlink" x="0px" y="0px"
	 viewBox="0 0 1600 630" enable-background="new 0 0 1600 630" xml:space="preserve">
<g>
	<g>
		<polygon fill="#DDDDDD" points="299.5,245.5 294.6,245.6 289.6,245.8 292.9,349.7 293,351.3 293,351.3 293.4,364.3 298.3,364.1 
			303.3,363.9 		"/>
		<polygon fill="#DDDDDD" points="295.3,230.8 294,225.9 292.9,230.8 289.6,245.8 299.5,245.5 		"/>
		
			<rect x="136.1" y="230.4" transform="matrix(0.9681 -0.2507 0.2507 0.9681 -74.5191 60.9329)" fill="#DDDDDD" width="131.6" height="185.2"/>
		
			<rect x="146.1" y="232.9" transform="matrix(0.9779 -0.209 0.209 0.9779 -63.3521 51.4866)" fill="#DDDDDD" width="131.6" height="185.2"/>
	</g>
	<g>
		<g>
			<g>
				<g>
					
						<rect x="112.8" y="252.9" transform="matrix(0.2573 0.9663 -0.9663 0.2573 460.5779 38.1835)" fill="#E6EEF2" width="185.2" height="131.6"/>
				</g>
			</g>
			<g>
				<g>
					
						<rect x="122.8" y="255.4" transform="matrix(0.209 0.9779 -0.9779 0.209 484.5513 43.4036)" fill="#F7F9F8" width="185.2" height="131.6"/>
				</g>
			</g>
			<g>
				<path fill="#B7BFC7" d="M177.1,252.2c-0.9,0.1-1.7,0.2-2.6,0.4c-3,0.6-5.8,1.7-8.3,3.2l14.3,24.8L177.1,252.2z"/>
				<path fill="#EF8555" d="M203.9,264.1c-5.9-8.4-16.1-13.2-26.8-11.9l3.4,28.4L203.9,264.1z"/>
				<path fill="#DCE4E8" d="M166.3,255.8c-10.5,6-16.3,18.3-13.7,30.8c2.9,13.4,14.7,22.6,27.9,22.6l0.1-28.6L166.3,255.8z"/>
				<path fill="#586273" d="M180.6,280.6l-0.1,28.6c2,0,4-0.2,6.1-0.6c15.4-3.3,25.3-18.5,22-34c-0.8-3.9-2.4-7.5-4.6-10.6
					L180.6,280.6z"/>
			</g>
			
				<rect x="165.4" y="344.7" transform="matrix(0.9779 -0.209 0.209 0.9779 -67.6816 53.9019)" fill="#DCE4E8" width="111.6" height="5"/>
			
				<rect x="163.6" y="336.5" transform="matrix(0.9779 -0.209 0.209 0.9779 -66.0171 53.3579)" fill="#DCE4E8" width="111.6" height="5"/>
			
				<rect x="161.9" y="328.4" transform="matrix(0.9779 -0.209 0.209 0.9779 -64.3527 52.8141)" fill="#DCE4E8" width="111.6" height="5"/>
			
				<rect x="160.1" y="320.2" transform="matrix(0.9779 -0.209 0.209 0.9779 -62.6882 52.27)" fill="#DCE4E8" width="111.6" height="5"/>
			<g>
				
					<rect x="217.9" y="257.1" transform="matrix(0.9779 -0.2092 0.2092 0.9779 -49.4232 51.8311)" fill="#EF8555" width="5" height="5"/>
				
					<rect x="225.7" y="252.5" transform="matrix(0.9779 -0.209 0.209 0.9779 -47.9514 56.2022)" fill="#DCE4E8" width="32.5" height="5"/>
				
					<rect x="219.6" y="265.3" transform="matrix(0.9779 -0.2091 0.2091 0.9779 -51.082 52.367)" fill="#DCE4E8" width="5" height="5"/>
				
					<rect x="227.4" y="260.6" transform="matrix(0.9779 -0.209 0.209 0.9779 -49.6153 56.7455)" fill="#DCE4E8" width="32.5" height="5"/>
				
					<rect x="221.3" y="273.4" transform="matrix(0.9779 -0.209 0.209 0.9779 -52.718 52.8749)" fill="#B7BFC7" width="5" height="5"/>
				
					<rect x="229.2" y="268.8" transform="matrix(0.9779 -0.209 0.209 0.9779 -51.2796 57.2893)" fill="#DCE4E8" width="32.5" height="5"/>
				
					<rect x="223.1" y="281.5" transform="matrix(0.9779 -0.209 0.209 0.9779 -54.3822 53.4187)" fill="#586273" width="5" height="5"/>
				
					<rect x="230.9" y="276.9" transform="matrix(0.9779 -0.209 0.209 0.9779 -52.9495 57.8407)" fill="#DCE4E8" width="32.5" height="5"/>
			</g>
			
				<rect x="167.8" y="359.8" transform="matrix(0.9779 -0.209 0.209 0.9779 -71.5225 47.7883)" fill="#DCE4E8" width="45" height="5"/>
			<polygon fill="#DCE4E8" points="280.5,357.5 272.5,357.6 265.9,364.2 260.6,373.8 253.6,369.9 243.2,370.2 238.7,378.1 
				233.4,381.8 224.6,378.2 219.2,381.2 215.3,389.2 208.5,386.1 204.1,392.6 198.5,391.8 195.3,397.6 186.9,403.2 175.8,402 
				177.6,410.2 286.7,386.8 			"/>
			<polygon fill="#62C3ED" points="282.7,368.1 275.5,371.4 269.2,379.7 264.9,378 260,383.6 253.4,381 246.9,379.7 243.1,382.1 
				238.5,389.2 232.5,385.4 228.4,387.6 225.4,386.7 223.1,393.5 214,392.6 209.5,398.6 203.3,397 199.6,401 192.7,401.5 
				187.2,404.8 181.9,405.1 177.1,407.7 177.6,410.2 286.7,386.8 			"/>
		</g>
		<g>
			<g>
				<polygon fill="#D46E40" points="298.1,242.2 301.7,355.7 301.8,360.7 306.8,360.5 303,242 				"/>
				<polygon fill="#EF8555" points="298.1,242.2 293.2,242.4 296.9,360.8 301.8,360.7 301.7,355.7 				"/>
			</g>
			<g>
				<polygon fill="#464E5C" points="297.5,222.5 296.4,227.4 298.9,227.4 				"/>
				<polygon fill="#F7F9F8" points="296.4,227.4 293.2,242.4 303,242 298.9,227.4 				"/>
			</g>
			<g>
				
					<rect x="296.4" y="344" transform="matrix(0.9995 -3.170999e-02 3.170999e-02 0.9995 -10.8161 9.7305)" fill="#586273" width="9.9" height="3.7"/>
			</g>
		</g>
	</g>
</g>
<g>
	<g opacity="0.2">
		
			<rect x="1329.8" y="227.8" transform="matrix(0.8863 0.4631 -0.4631 0.8863 303.0766 -608.2436)" fill="#586273" width="121.3" height="170.7"/>
		<path fill="#586273" d="M1296.5,325.9l44.2-7.9c3.5-0.6,5.8-4,5.2-7.4l-15.7-88.5c-0.6-3.5-4-5.8-7.4-5.2l-44.2,7.9
			c-3.5,0.6-5.8,4-5.2,7.4l15.7,88.5C1289.7,324.1,1293,326.5,1296.5,325.9z"/>
		<polygon fill="#586273" points="1363.6,425.8 1448.7,382.3 1450.3,381.5 1450.3,381.5 1460.9,376.1 1458.9,372 1456.8,368 
			1359.5,417.7 1361.6,421.8 		"/>
		<polygon fill="#586273" points="1349.9,429 1363.6,425.8 1359.5,417.7 1348.9,427 1345.3,430.1 		"/>
	</g>
	<g>
		<g>
			<g>
				<g>
					<g>
						
							<rect x="1305.8" y="254.1" transform="matrix(-0.4631 0.8863 -0.8863 -0.4631 2314.3381 -772.5967)" fill="#F7F9F8" width="170.7" height="121.3"/>
					</g>
				</g>
			</g>
			<g>
				
					<rect x="1411.4" y="296.2" transform="matrix(0.8863 0.463 -0.463 0.8863 301.1172 -629.7351)" fill="#B7BFC7" width="43.8" height="4.6"/>
				
					<rect x="1407.8" y="303" transform="matrix(0.8863 0.4631 -0.4631 0.8863 303.8822 -627.3347)" fill="#DCE4E8" width="43.8" height="4.6"/>
				
					<rect x="1404.2" y="309.8" transform="matrix(0.8863 0.4631 -0.4631 0.8863 306.6437 -624.9304)" fill="#DCE4E8" width="43.8" height="4.6"/>
				
					<rect x="1400.7" y="316.6" transform="matrix(0.8863 0.4631 -0.4631 0.8863 309.3818 -622.4978)" fill="#DCE4E8" width="43.8" height="4.6"/>
			</g>
			
				<rect x="1362.3" y="269.5" transform="matrix(0.8863 0.4631 -0.4631 0.8863 286.5899 -623.7712)" fill="#DCE4E8" width="102.9" height="4.6"/>
			
				<rect x="1369.4" y="248.2" transform="matrix(0.8863 0.4631 -0.4631 0.8863 281.1085 -628.6307)" fill="#B7BFC7" width="102.9" height="20"/>
			<g>
				
					<rect x="1338.1" y="315.8" transform="matrix(0.8863 0.4631 -0.4631 0.8863 305.2839 -607.3192)" fill="#DCE4E8" width="102.9" height="4.6"/>
				
					<rect x="1334.6" y="322.6" transform="matrix(0.8863 0.4631 -0.4631 0.8863 308.03 -604.897)" fill="#DCE4E8" width="102.9" height="4.6"/>
				
					<rect x="1331" y="329.4" transform="matrix(0.8863 0.4631 -0.4631 0.8863 310.7716 -602.4691)" fill="#DCE4E8" width="102.9" height="4.6"/>
			</g>
			<g>
				
					<rect x="1310.4" y="368.9" transform="matrix(0.8863 0.4631 -0.4631 0.8863 326.7159 -588.4359)" fill="#DCE4E8" width="102.9" height="4.6"/>
				
					<rect x="1308.2" y="370.4" transform="matrix(0.8863 0.4631 -0.4631 0.8863 325.8224 -581.8819)" fill="#DCE4E8" width="79.9" height="4.6"/>
			</g>
			<g>
				
					<rect x="1326.2" y="334.4" transform="matrix(0.8863 0.4631 -0.4631 0.8863 310.5424 -591.6826)" fill="#B7BFC7" width="68.4" height="4.6"/>
				
					<rect x="1322.7" y="341.2" transform="matrix(0.8863 0.463 -0.463 0.8863 313.2746 -589.2445)" fill="#DCE4E8" width="68.4" height="4.6"/>
				
					<rect x="1319.1" y="348" transform="matrix(0.8863 0.4631 -0.4631 0.8863 316.0336 -586.8359)" fill="#DCE4E8" width="68.4" height="4.6"/>
				
					<rect x="1392.4" y="359.1" transform="matrix(0.8863 0.4631 -0.4631 0.8863 330.7439 -609.0738)" fill="#62C3ED" width="26.9" height="20"/>
			</g>
			<g>
				
					<rect x="1355.8" y="258.6" transform="matrix(0.8863 0.4631 -0.4631 0.8863 280.6319 -598.1786)" fill="#DCE4E8" width="5.4" height="27.6"/>
				
					<rect x="1362.6" y="262.1" transform="matrix(0.8864 0.4629 -0.4629 0.8864 282.843 -600.6673)" fill="#DCE4E8" width="5.4" height="27.6"/>
				
					<rect x="1369.4" y="265.7" transform="matrix(0.8864 0.4629 -0.4629 0.8864 285.233 -603.3781)" fill="#DCE4E8" width="5.4" height="27.6"/>
				
					<rect x="1376.2" y="269.2" transform="matrix(0.8864 0.463 -0.463 0.8864 287.7595 -606.2568)" fill="#DCE4E8" width="5.4" height="27.6"/>
				
					<rect x="1383" y="272.8" transform="matrix(0.8863 0.4631 -0.4631 0.8863 290.305 -609.1575)" fill="#DCE4E8" width="5.4" height="27.7"/>
				
					<rect x="1389.8" y="276.4" transform="matrix(0.8862 0.4632 -0.4632 0.8862 292.8401 -612.0444)" fill="#DCE4E8" width="5.4" height="27.6"/>
				
					<rect x="1396.6" y="279.9" transform="matrix(0.8863 0.463 -0.463 0.8863 295.0561 -614.5431)" fill="#DCE4E8" width="5.4" height="27.6"/>
				
					<rect x="1352.2" y="273.1" transform="matrix(0.8863 0.4631 -0.4631 0.8863 283.3802 -595.7574)" fill="#62C3ED" width="5.4" height="12.3"/>
				
					<rect x="1359.6" y="274.4" transform="matrix(0.8864 0.4629 -0.4629 0.8864 285.2076 -598.6466)" fill="#62C3ED" width="5.4" height="14.6"/>
				
					<rect x="1365.1" y="283.1" transform="matrix(0.8863 0.463 -0.463 0.8863 288.6715 -600.647)" fill="#62C3ED" width="5.4" height="9.2"/>
				
					<rect x="1373.7" y="279.4" transform="matrix(0.8863 0.4631 -0.4631 0.8863 289.7479 -604.6417)" fill="#62C3ED" width="5.4" height="16.9"/>
				
					<rect x="1381.2" y="280" transform="matrix(0.8863 0.4631 -0.4631 0.8863 291.6791 -607.9468)" fill="#62C3ED" width="5.4" height="20"/>
				
					<rect x="1384.5" y="298.1" transform="matrix(0.8863 0.463 -0.463 0.8863 296.7457 -608.1508)" fill="#62C3ED" width="5.4" height="4.6"/>
				
					<rect x="1393.1" y="294.4" transform="matrix(0.8863 0.4632 -0.4632 0.8863 297.9496 -612.2978)" fill="#62C3ED" width="5.4" height="12.3"/>
			</g>
		</g>
		<path fill="#586273" d="M1325.5,220.5l-44.2,7.9c-3.5,0.6-5.8,4-5.2,7.4l15.7,88.5c0.6,3.5,4,5.8,7.4,5.2l44.2-7.9
			c3.5-0.6,5.8-4,5.2-7.4l-15.7-88.5C1332.3,222.2,1329,219.9,1325.5,220.5z"/>
		<polygon fill="#586273" points="1341.2,309 1297,316.8 1282.4,234.7 1282.4,234.7 1326.6,226.8 1326.6,226.8 		"/>
		
			<rect x="1315.4" y="317.6" transform="matrix(0.9846 -0.1749 0.1749 0.9846 -35.4818 235.785)" fill="#464E5C" width="9.6" height="3.2"/>
		<g>
			<polygon fill="#F7F9F8" points="1282.4,234.7 1282.4,234.7 1297,316.8 1341.2,309 1326.6,226.8 1326.6,226.8 			"/>
		</g>
		<g>
			<path fill="#62C3ED" d="M1323.3,262.1l-2-4.2c-0.2-0.4-0.8-0.9-1.2-1l-7.6-1.8c0,0,0,0,0,0l-0.2-1.3c0.8-1.5,1.2-3.6,0.8-5.7
				l-0.3-1.7c-0.5-3-3.3-5.1-6.2-4.6l0,0l0,0l0,0c-2.9,0.5-4.8,3.4-4.2,6.4l0.3,1.7c0.4,2.1,1.4,3.9,2.7,5.1l0.2,1.3c0,0,0,0,0,0
				l-6.5,4.4c-0.4,0.3-0.8,0.9-0.8,1.4l-0.5,4.6c0,0.5,0.3,0.8,0.8,0.7l12.2-2.2l0,0l12.2-2.2C1323.3,263,1323.5,262.5,1323.3,262.1
				z"/>
		</g>
		
			<rect x="1298.9" y="273.4" transform="matrix(0.9846 -0.175 0.175 0.9846 -28.1838 234.0208)" fill="#DCE4E8" width="27.5" height="6.9"/>
		
			<rect x="1300.7" y="283.5" transform="matrix(0.9846 -0.175 0.175 0.9846 -29.933 234.408)" fill="#DCE4E8" width="27.5" height="6.9"/>
		
			<rect x="1309.3" y="293.7" transform="matrix(0.9846 -0.175 0.175 0.9846 -31.6926 234.8948)" fill="#DCE4E8" width="13.8" height="6.9"/>
		<g>
			<circle fill="#586273" cx="1304.2" cy="288.8" r="1.3"/>
		</g>
		<g>
			<circle fill="#586273" cx="1310.9" cy="287.6" r="1.3"/>
		</g>
		<g>
			<circle fill="#586273" cx="1307.6" cy="288.2" r="1.3"/>
		</g>
		<g>
			<path fill="#586273" d="M1315.6,286.8c0.1,0.7-0.3,1.4-1,1.5c-0.7,0.1-1.4-0.3-1.5-1c-0.1-0.7,0.3-1.4,1-1.5
				C1314.8,285.6,1315.5,286.1,1315.6,286.8z"/>
		</g>
		<g>
			<circle fill="#586273" cx="1302.4" cy="278.6" r="1.3"/>
		</g>
		<g>
			<circle fill="#586273" cx="1315.9" cy="276.2" r="1.3"/>
		</g>
		<g>
			<circle fill="#586273" cx="1309.1" cy="277.4" r="1.3"/>
		</g>
		<g>
			<circle fill="#586273" cx="1305.7" cy="278" r="1.3"/>
		</g>
		<g>
			<circle fill="#586273" cx="1312.5" cy="276.8" r="1.3"/>
		</g>
		
			<rect x="1312.8" y="296.1" transform="matrix(0.9846 -0.175 0.175 0.9846 -31.6899 234.9153)" fill="#EF8555" width="6.9" height="2.1"/>
		<g>
			<g>
				<polygon fill="#464E5C" points="1363.1,424.8 1456.4,377.2 1460.4,375.1 1458.3,371 1361,420.8 				"/>
				<polygon fill="#586273" points="1363.1,424.8 1365.2,428.9 1462.5,379.1 1460.4,375.1 1456.4,377.2 				"/>
			</g>
			<g>
				<polygon fill="#464E5C" points="1346.9,433.1 1351.5,432.1 1350.4,430 				"/>
				<polygon fill="#F7F9F8" points="1351.5,432.1 1365.2,428.9 1361,420.8 1350.4,430 				"/>
			</g>
			<g>
				
					<rect x="1443.7" y="379.6" transform="matrix(-0.4555 -0.8903 0.8903 -0.4555 1768.3981 1844.2811)" fill="#EF8555" width="9.1" height="3.4"/>
			</g>
		</g>
		<path opacity="0.3" fill="#DCE4E8" d="M1325.5,220.5l-34.3,6.1l32.7,98.5l19.6-3.5c3.5-0.6,5.8-4,5.2-7.4l-15.7-88.5
			C1332.3,222.2,1329,219.9,1325.5,220.5z"/>
	</g>
</g>
</svg>
