<?xml version="1.0" encoding="utf-8"?>
<!-- Generator: Adobe Illustrator 18.0.0, SVG Export Plug-In . SVG Version: 6.00 Build 0)  -->
<!DOCTYPE svg PUBLIC "-//W3C//DTD SVG 1.1//EN" "http://www.w3.org/Graphics/SVG/1.1/DTD/svg11.dtd">
<svg version="1.1" id="Layer_1" xmlns="http://www.w3.org/2000/svg" xmlns:xlink="http://www.w3.org/1999/xlink" x="0px" y="0px"
	 viewBox="0 0 302.6 211.2" enable-background="new 0 0 302.6 211.2" xml:space="preserve">
<g>
	<path fill="#FFFFFF" d="M106.3,111.1c0,5.4-0.2,10.5,1.4,15.5c2.1,6.5,6.7,10.5,13,12.8c7.3,2.6,15,3.1,22.7,3
		c10.7-0.1,21.2-1.6,31.6-4c1.5-0.3,3-0.5,4.5-0.7c3-0.3,5,1,5.6,3.9c0.9,4.7,0.8,9.5,0,14.2c-0.5,2.8-2.5,4.5-5.1,5.5
		c-6.5,2.4-13.3,3.6-20.2,4.5c-8.2,1.1-16.4,1.3-24.6,0.9c-8.6-0.4-17.2-1.6-25.4-4.5c-8.4-3-15.5-7.7-20.7-15.1
		c-3.7-5.4-6.1-11.4-7.2-17.8c-0.7-4.3-1.4-8.6-1.4-12.9c-0.1-10.8-0.1-21.7,0.2-32.5c0.2-7.8,2-15.4,5.5-22.5
		c5.1-10.5,13.4-17.5,24.4-21.3c12-4.1,24.3-4.6,36.8-3.2c7.4,0.8,14.6,2.8,21.1,6.6c7.9,4.6,13.5,11.2,17,19.7
		c3.9,9.4,4.7,19.3,4.4,29.4c-0.1,3.6-0.5,7.2-1.1,10.7c-0.8,4.9-3.2,7.1-8.2,7.6c-1.8,0.2-3.6,0.2-5.4,0.2c-22.2,0-44.4,0-66.6,0
		C107.8,111.1,107.1,111.1,106.3,111.1z M165.3,89.8c0-3,0.2-5.9,0-8.7c-0.7-10.3-5.7-17.5-15.8-20.6c-9.4-2.8-18.8-2.8-28.2,0.2
		c-7.1,2.2-11.8,7-13.9,14.2c-1.4,4.9-1.1,9.9-1,14.9C126.1,89.8,145.7,89.8,165.3,89.8z"/>
	<path fill="#FFFFFF" d="M226.5,63.1c-4.1,0-8,0-11.9,0c-1.7,0-3.3-0.1-5-0.3c-2.9-0.4-4.5-1.8-4.7-4.7c-0.2-3.5-0.3-7,0-10.4
		c0.3-3.7,3.1-5.2,6.4-5.9c4.6-1,9.2-1.8,13.8-2.7c1.1-0.2,1.4-0.7,1.6-1.8c0.9-7.4,1.9-14.8,2.8-22.2c0.1-0.7,0.2-1.4,0.3-2.1
		c1-4.8,2.8-6.6,7.6-6.9c3.2-0.2,6.4,0,9.5,0.2c2.9,0.3,4.5,1.9,5,4.9c0.2,1.5,0.3,3.1,0.3,4.7c0,7,0,13.9,0,20.9c0,0.6,0,1.2,0,2
		c0.7,0,1.3,0,1.9,0c11,0,21.9,0,32.9,0c2.1,0,4.2,0.2,6.3,0.7c2.6,0.5,4.3,2.4,4.4,5c0.2,4.3,0.3,8.7,0,13c-0.2,3-2.3,4.9-5.4,5.2
		c-1.8,0.2-3.7,0.3-5.6,0.3c-10.9,0-21.7,0-32.6,0c-0.6,0-1.2,0-1.8,0c-0.1,0.5-0.1,0.9-0.1,1.2c0,19.4,0,38.8,0.1,58.2
		c0,4.5,0.9,8.8,3.4,12.7c2.9,4.5,7.4,6.5,12.5,7c8,0.8,15.9-0.4,23.7-1.9c2.1-0.4,4.2-0.5,6.3-0.5c2,0,3.3,1.3,3.8,3.2
		c0.4,1.5,0.6,3,0.6,4.5c0,3-0.1,6-0.3,8.9c-0.3,3.6-2.3,6.2-5.7,7c-4.5,1.2-9.1,2.1-13.8,2.7c-8,1-16,1-24-0.5
		c-9.9-1.8-18.5-6-24.5-14.5c-3.1-4.4-5-9.3-6.3-14.5c-1.4-5.8-1.7-11.8-1.7-17.7c0-17.8,0-35.6,0-53.5
		C226.5,64.7,226.5,64,226.5,63.1z"/>
	<path fill="#FFFFFF" d="M25.5,74.2c0-20.6,0-41.3,0-61.9c0-2.1,0.2-4.2,0.6-6.3c0.5-2.9,2.4-4.7,5.3-5.3c4.7-0.8,9.5-0.8,14.2-0.1
		c4,0.6,5.8,2.8,6.2,7c0.2,1.5,0.2,3,0.2,4.5c0,37.3,0,74.6,0,111.9c0,13.3-1.1,26.4-4.5,39.3c-4.8,18.3-14.7,33.4-29.2,45.5
		c-2.3,1.9-4.8,3.4-7.9,1.7c-1-0.6-2.1-1.3-2.8-2.3c-2.2-2.9-4.5-5.8-6.3-8.9c-2.5-4.4-1.8-7.5,1.8-11c3.7-3.6,7.3-7.2,10.2-11.5
		c3.9-5.8,6.5-12.2,8.3-18.9c2.9-10.5,3.7-21.1,3.7-31.9C25.5,108.7,25.5,91.4,25.5,74.2z"/>
</g>
</svg>
