<?xml version="1.0" encoding="utf-8"?>
<!-- Generator: Adobe Illustrator 18.0.0, SVG Export Plug-In . SVG Version: 6.00 Build 0)  -->
<!DOCTYPE svg PUBLIC "-//W3C//DTD SVG 1.1//EN" "http://www.w3.org/Graphics/SVG/1.1/DTD/svg11.dtd">
<svg version="1.1" id="Layer_1" xmlns="http://www.w3.org/2000/svg" xmlns:xlink="http://www.w3.org/1999/xlink" x="0px" y="0px"
	 viewBox="0 0 99.9 84.2" enable-background="new 0 0 99.9 84.2" xml:space="preserve">
<g>
	<g>
		<path fill="#4A9ED5" d="M77.2,22.7C75.2,9.8,64.6,0,51.7,0C41.2,0,32.2,6.5,28.2,15.8C12.2,18.3,0,32.5,0,49.8
			c0,19,14.8,34.4,33,34.4c1.3,0,2.6-0.1,3.9-0.3V84h29.9c1.1,0.1,2.2,0.2,3.3,0.2c16.5,0,30-14,30-31.3
			C99.9,38.3,90.2,26.1,77.2,22.7z"/>
	</g>
	<g>
		<g>
			<path fill="#2783B7" d="M69.9,84.2C84,84.2,95.8,74.1,99,60.5L57.9,24l1,18.8L34.7,66.4L52.8,84h13.9
				C67.7,84.2,68.8,84.2,69.9,84.2z"/>
		</g>
	</g>
	<g>
		<g>
			<g>
				<g>
					<path fill="#FFFFFF" d="M54.3,26.1c1.8,0,3.2,1.5,3.2,3.2v12.9c0,1.8-1.5,3.2-3.2,3.2h-6.5c-1.8,0-3.2-1.5-3.2-3.2V29.4
						c0-1.8,1.5-3.2,3.2-3.2H54.3L54.3,26.1z M54.3,22.9h-6.5c-3.6,0-6.5,2.9-6.5,6.5v12.9c0,3.6,2.9,6.5,6.5,6.5h6.5
						c3.6,0,6.5-2.9,6.5-6.5V29.4C60.7,25.8,57.8,22.9,54.3,22.9L54.3,22.9z"/>
				</g>
			</g>
		</g>
		<g>
			<g>
				<g>
					<g>
						<path fill="#FFFFFF" d="M38.1,39.1c-1.8,0-3.2,1.5-3.2,3.2v22.6c0,1.8,1.5,3.2,3.2,3.2h3.2V39.1H38.1z"/>
					</g>
				</g>
			</g>
			<g>
				<g>
					<g>
						<path fill="#FFFFFF" d="M64,39.1h-3.2v29.1H64c1.8,0,3.2-1.5,3.2-3.2V42.3C67.2,40.5,65.7,39.1,64,39.1z"/>
					</g>
				</g>
			</g>
			<g>
				<g>
					<g>
						<rect x="41.3" y="39.1" fill="#D6D6D6" width="19.4" height="29.1"/>
					</g>
				</g>
			</g>
		</g>
		<g>
			<g>
				<g>
					<g>
						<circle fill="#727272" cx="51" cy="49.7" r="3"/>
					</g>
				</g>
			</g>
			<g>
				<g>
					<g>
						<polygon fill="#727272" points="49.9,50.9 48.7,61 53.3,61 52.2,50.9 						"/>
					</g>
				</g>
			</g>
		</g>
	</g>
</g>
</svg>
