<?xml version="1.0" encoding="utf-8"?>
<!-- Generator: Adobe Illustrator 18.0.0, SVG Export Plug-In . SVG Version: 6.00 Build 0)  -->
<!DOCTYPE svg PUBLIC "-//W3C//DTD SVG 1.1//EN" "http://www.w3.org/Graphics/SVG/1.1/DTD/svg11.dtd">
<svg version="1.1" id="Layer_1" xmlns="http://www.w3.org/2000/svg" xmlns:xlink="http://www.w3.org/1999/xlink" x="0px" y="0px"
	 viewBox="0 576.3 612 215.7" enable-background="new 0 576.3 612 215.7" xml:space="preserve">
<g>
	<g>
		<g>
			<g>
				<g>
					<g>
						<path fill="#4B9ED5" d="M176.4,693.5c8.7,10.4,8.4,21.1,4.5,31.8c-2.9,7.9-9.8,11.3-17.7,12.7c-4.5,0.8-9,0.7-13.6,1.1
							c-4.2,0.3-8.4,0.5-12.6,1c-2,0.2-3.8,1.2-4.2,3.5c-0.5,2.8,0.6,4.7,3.7,5.2c3.5,0.6,7.2,0.8,10.8,1c6.5,0.4,13,0.6,19.5,1
							c2.1,0.1,4.2,0.8,6.2,1.4c7.2,2.1,11.5,6.8,12,14.3c0.3,4.3,0,8.8-0.9,13c-1.3,5.9-5.5,9.7-11.2,11.3
							c-13.5,3.8-27.1,3.7-40.6,0.1c-6.8-1.8-11.3-6.1-12.4-13.2c-1.2-7.8-0.2-15.1,6.7-20.3c0.3-0.2,0.6-0.5,1.1-0.9
							c-5.3-2.8-6.8-7.3-5.6-12.7c1.3-5.8,5.9-7.6,11.2-8.9c-1.9-1.3-3.6-2.4-5.2-3.7c-4.3-3.8-6.1-8.9-6.6-14.4
							c-0.9-9.2,0.1-18,7.7-24.5c5.2-4.5,11.5-6.3,18.2-6.9c6.6-0.6,13.2-0.2,19.5,2.2c0.6,0.2,1.8-0.1,2.4-0.6c2.7-2.3,5.3-4.6,8-7
							c1.8-1.6,3.5-1.6,5.2,0.1c0.7,0.7,1.4,1.3,2,2c1.5,1.5,1.6,3.1,0.1,4.5C181.6,689,179,691.2,176.4,693.5z M151.8,729.3
							c2.9-0.3,5.2-0.4,7.5-0.7c8.2-1.2,12.3-5.8,12.5-14.1c0-1.6,0.1-3.3,0-4.9c-0.2-6.9-4-11.7-10.7-13.4
							c-5.4-1.4-10.9-1.4-16.3-0.3c-7.4,1.5-11.4,5.3-12.3,12c-0.4,2.9-0.2,6,0,8.9c0.6,6.4,4.5,10.2,10.7,11.4
							C146.2,728.8,149.3,729,151.8,729.3z M151.3,783.9c4-0.2,7.1-0.3,10.2-0.6c9.4-1,13.1-5.4,12.2-14.5c-0.3-3.3-1.9-5.9-5-7.1
							c-2-0.8-4.2-1.4-6.4-1.5c-7.3-0.4-14.6-0.4-21.8-1c-3.7-0.3-6.3,1.1-7.8,4c-1.3,2.5-2.1,5.4-2.2,8.2
							c-0.3,6.6,2.8,10.3,9.4,11.3C144,783.4,148,783.6,151.3,783.9z"/>
						<path fill="#4B9ED5" d="M11.7,703.6c15.4,0,30.5,0,46.1,0c0-0.8,0-1.7,0-2.5c0-10.8,0-21.7,0-32.5c0-4.8,0.8-5.5,5.6-5.6
							c0.6,0,1.3,0,1.9,0c2.9,0.2,3.9,1,4.1,4c0.1,0.9,0.1,1.7,0.1,2.6c0,28,0,56,0,84.1c0,6.4-0.8,7.2-7.2,7
							c-3.4-0.1-4.5-1.2-4.5-4.6c0-12.8,0-25.6,0-38.4c0-0.9,0-1.8,0-2.9c-15.4,0-30.6,0-46.1,0c0,0.9,0,1.7,0,2.6
							c0,12.6,0,25.1,0,37.7c0,1.9,0.4,4.6-1.9,5c-2.7,0.5-5.6,0-8.4-0.3c-0.4,0-0.9-1.1-1-1.7c-0.2-1.4-0.3-2.8-0.3-4.2
							c0-28,0-56,0-84.1c0-6.2,0.8-6.9,6.9-6.7c3.9,0.1,4.8,1,4.8,5c0,10.9,0,21.8,0,32.7C11.7,701.6,11.7,702.5,11.7,703.6z"/>
						<path fill="#4B9ED5" d="M510,752.1c0,0.8,0,1.7,0,2.5c0,10.2,0,20.4,0,30.6c0,1.8,0.4,4.4-1.7,4.9c-2.6,0.5-5.5,0-8.2-0.2
							c-0.4,0-0.9-1.2-1.1-1.9c-0.2-0.6-0.1-1.2-0.1-1.9c0-24.2-0.1-48.3,0.1-72.5c0.1-8.6,2.7-16.4,9.8-22
							c4.4-3.5,9.6-5.2,15.1-5.9c7.4-0.9,14.7-0.9,21.9,1.2c9.6,2.8,15.8,9.1,17.6,18.9c2.1,11.8,2.2,23.8,0,35.6
							c-2.2,11.7-10.2,18.9-22.1,20.2c-5.1,0.6-10.4,0.5-15.4-0.1C519.4,760.7,514,757.8,510,752.1z M509.8,723.4c0.1,0,0.2,0,0.3,0
							c0,3.8-0.1,7.5,0,11.3c0.4,8.8,4.6,14.5,12.6,15.8c5,0.9,10.4,1.1,15.4,0.4c9.5-1.2,13.8-5.4,14.5-14.9
							c0.7-8.6,0.5-17.4-0.2-26.1c-0.6-8-4.7-11.8-12.5-13.4c-5.4-1.2-10.8-1.1-16.1-0.1c-8.3,1.6-12.2,5.5-13.4,13.8
							C509.9,714.6,510,719,509.8,723.4z"/>
						<path fill="#4B9ED5" d="M479.1,700.6c0,10.8,0.2,21.7-0.1,32.5c-0.2,8.3-2.9,15.9-9.6,21.5c-4.8,4-10.5,5.9-16.5,6.8
							c-9.5,1.4-19,1.3-28.2-1.7c-11.1-3.6-17.1-11.7-18.7-23.1c-0.4-3.1-0.5-6.3-0.5-9.4c0-19.2,0-38.3,0-57.5c0-0.9,0-1.7,0-2.6
							c0-0.6,0.1-1.3,0.4-1.8c1.9-3.6,5.2-2,8-2.1c2.1-0.1,3.1,1.4,3.3,3.3c0.1,1,0.1,2,0.1,3.1c0,19.5,0,39.1,0,58.6
							c0,2.7,0.1,5.4,0.6,8c1.4,7.8,6.4,12.6,14.4,14.2c6.6,1.3,13.3,1.3,19.9,0c9.1-1.8,14.4-7.7,15-17c0.1-2,0.2-4.1,0.2-6.1
							c0-19.5,0-38.9,0-58.4c0-4.9,0.8-5.7,5.8-5.7c0.9,0,1.7,0,2.6,0.1c2.1,0.1,3.1,1.3,3.2,3.3c0.1,1,0.1,2,0.1,3.1
							c0,10.4,0,20.7,0,31.1C479.1,700.6,479.1,700.6,479.1,700.6z"/>
						<path fill="#4B9ED5" d="M211.4,695.2c4-5.3,8.8-8,14.6-9.2c7.2-1.4,14.4-1.4,21.4,0.8c8.7,2.8,13.4,9.1,14.8,18
							c0.4,2.2,0.5,4.4,0.5,6.6c0,14.7,0,29.4,0,44c0,4.4-0.8,5.2-5.2,5.2c-0.6,0-1.3,0-1.9,0c-3.2-0.1-4.2-1-4.2-4.3
							c0-14,0-28.1,0-42.2c0-1.7-0.1-3.5-0.3-5.2c-0.9-7.4-4.2-11-11.5-12.6c-5.5-1.2-10.9-1.1-16.3,0.3
							c-7.7,1.9-11.7,7.7-11.8,16.8c-0.1,13.3,0,26.7-0.1,40c0,0.9,0,1.9,0,2.8c-0.1,3.1-1.1,4.1-4.1,4.2c-6.5,0.3-7.1-0.3-7.1-6.9
							c0-30.6,0-61.2,0-91.8c0-1,0-2,0.1-3.1c0.2-2.1,1.2-3.2,3.4-3.4c7.2-0.5,7.8,0,7.8,7.3c0,9.8,0,19.6,0,29.4
							C211.4,693.1,211.4,693.8,211.4,695.2z"/>
						<path fill="#4B9ED5" d="M290,727.9c0.6,4.6,0.7,9,1.8,13c1.5,5.4,5.8,8.2,11.1,9.4c9.2,2.1,18.4,1.2,27.5-0.7
							c1.7-0.4,3.3-0.9,5-1.1c1-0.1,2.4,0.2,2.9,0.8c2.2,2.5,0.7,8.5-2.5,9.5c-3.5,1.1-7.1,2-10.7,2.5c-8.7,1.3-17.4,1.3-25.9-0.8
							c-10.8-2.6-18.1-9.9-19.1-21.2c-0.9-9.9-1.1-20.1-0.1-30c1.5-14.8,10.8-22.9,25.8-24c6.2-0.5,12.4-0.4,18.4,1.6
							c9.7,3.2,15.4,10.2,16.8,20.1c0.8,5.3,0.5,10.8,0.2,16.2c-0.2,4-1.2,4.6-5.3,4.6c-14.1,0-28.2,0-42.4,0
							C292.5,727.9,291.6,727.9,290,727.9z M331.1,718.3c-0.1-2.9-0.2-5.6-0.4-8.3c-0.7-7.1-4.5-11.8-11.3-13.7
							c-6.4-1.8-12.8-1.7-19.2,0.6c-4.2,1.5-7,4.4-8.5,8.5c-1.5,4.1-1.2,8.4-1.2,12.8C304,718.3,317.4,718.3,331.1,718.3z"/>
						<path fill="#4B9ED5" d="M358,732.2c0-7.7-0.1-15.4,0.1-23.1c0.1-3.2,0.6-6.4,1.6-9.5c2.9-9,9.8-13.2,18.9-14.2
							c3.3-0.4,6.6-0.3,9.9,0c3.6,0.2,4.5,1.4,4.5,5c0,0.1,0,0.2,0,0.2c0.1,5.7-0.3,5.9-6.1,5.4c-2.9-0.3-5.8-0.1-8.6,0.4
							c-5.7,1.1-8.8,5.6-8.8,12.7c-0.1,14.9-0.1,29.8-0.1,44.7c0,1.2,0.1,2.4-0.1,3.5c-0.4,3-1.7,3.6-7.1,3.3c-2.9-0.1-4-1-4-3.7
							C357.9,748.7,358,740.5,358,732.2z"/>
						<path fill="#4B9ED5" d="M91.8,723.6c0-10.6,0-21.2,0-31.8c0-4.4,0.7-5.1,5.2-5.2c0.5,0,0.9,0,1.4,0c3.7,0.1,4.7,0.9,4.7,4.6
							c0,21.6,0,43.1,0,64.7c0,3.8-1,4.7-4.7,4.8c-6,0.1-6.5-0.4-6.5-6.5C91.8,744,91.8,733.8,91.8,723.6z"/>
						<path fill="#4B9ED5" d="M104.6,663.4c0,4-3.1,7.2-7.1,7.2c-4.2,0.1-7.7-3.3-7.6-7.3c0.1-3.9,3.4-7.2,7.4-7.2
							C101.5,656.1,104.7,659.3,104.6,663.4z"/>
					</g>
				</g>
			</g>
		</g>
	</g>
	<g>
		<path fill="#D3D3D3" d="M571.4,616.8c-3.5-23-22.5-40.5-45.5-40.5c-18.7,0-34.8,11.6-42,28.3c-26.3,4-47.1,26-50,53.7
			c-0.4,4.4-0.7,6.5,3.6,6.5l9.7-0.6c0.3,0,1.2,0,2.6,0c2.5,0,2.6-0.6,3.4-4.3c2-9.2,9-14.9,20.2-14.9c1.1,0,2.3,0.3,3.5,0.4
			c9.5,0.6,16,7.9,16.5,17.4c0.1,1.3-0.4,2.7-0.4,4c0,2.7,0,5.4,0,8c0,2.6,0.5,4.9,2.2,5c1.7,0.1,1.7-1.6,7.1-4.7
			c5.7-3.3,12.2-5.9,19.5-6.8c3.7-0.5,7.2-0.7,10.5-0.7c6.2,0,12,0.8,17.5,2.4c15.4,4.5,25.3,15.3,28.1,30.5
			c1,5.7,1.6,11.4,1.8,17.1c0.2,4.7,2.8,3.4,3.4,3.1c17.3-9.2,29-28,29-49.6C612,644.7,594.7,622.8,571.4,616.8z"/>
	</g>
</g>
</svg>
