<?xml version="1.0" encoding="iso-8859-1"?>
<!-- Generator: Adobe Illustrator 18.0.0, SVG Export Plug-In . SVG Version: 6.00 Build 0)  -->
<!DOCTYPE svg PUBLIC "-//W3C//DTD SVG 1.1//EN" "http://www.w3.org/Graphics/SVG/1.1/DTD/svg11.dtd">
<svg version="1.1" id="Layer_1" xmlns="http://www.w3.org/2000/svg" xmlns:xlink="http://www.w3.org/1999/xlink" x="0px" y="0px"
	 viewBox="0 0 381.522 682.609" style="enable-background:new 0 0 381.522 682.609;" xml:space="preserve">
<g>
	<path style="fill:#4A9ED5;" d="M154.903,60.978c-0.115,0-0.237,0.001-0.366,0.004c-1.248,0.027-1.659,0.362-1.852,1.576
		c-0.519,3.258-1.028,6.518-1.536,9.778c-0.709,4.555-1.399,9.112-2.13,13.663c-0.203,1.264-0.464,2.525-0.801,3.76
		c-0.262,0.96-1.036,1.356-2.004,1.356c-0.002,0-0.004,0-0.004,0c-0.969-0.002-1.693-0.394-2.028-1.346
		c-0.145-0.41-0.305-0.823-0.377-1.249c-0.987-5.834-1.945-11.673-2.942-17.506c-0.392-2.292-0.72-4.61-1.328-6.848
		c-0.568-2.09-2.584-3.313-4.597-3.313c-1.122,0-2.242,0.38-3.109,1.202c-1.04,0.986-1.36,2.333-1.589,3.675
		c-1.138,6.674-2.243,13.354-3.372,20.03c-0.21,1.242-0.435,2.486-0.738,3.708c-0.193,0.776-0.637,1.409-1.526,1.58
		c-0.246,0.047-0.479,0.071-0.697,0.071c-1.078,0-1.815-0.579-2.1-1.797c-0.374-1.603-0.625-3.236-0.881-4.864
		c-1.127-7.166-2.232-14.335-3.355-21.502c-0.273-1.744-0.548-1.978-2.26-1.978c-0.018,0-0.036,0-0.054,0
		c-1.646,0.005-1.884,0.27-1.671,1.872c0.025,0.193,0.04,0.387,0.07,0.579c0.861,5.439,1.718,10.879,2.589,16.316
		c0.518,3.233,0.994,6.475,1.607,9.69c0.625,3.271,2.127,4.876,4.88,5.171c0.524,0.056,1.015,0.086,1.476,0.086
		c3.05,0,4.749-1.301,5.573-4.815c0.349-1.485,0.559-3.003,0.805-4.511c0.91-5.578,1.805-11.159,2.713-16.737
		c0.171-1.053,0.357-2.104,0.579-3.147c0.133-0.625,0.422-1.131,1.199-1.141c0.008,0,0.016,0,0.016,0
		c0.805,0,1.058,0.541,1.248,1.168c0.057,0.185,0.107,0.374,0.139,0.566c0.884,5.459,1.749,10.922,2.653,16.378
		c0.443,2.678,0.827,5.376,1.471,8.008c0.753,3.076,2.413,4.211,5.584,4.222c0.015,0,0.03,0,0.045,0
		c3.301,0,4.955-1.242,5.907-4.433c0.048-0.163,0.107-0.324,0.135-0.49c0.525-3.108,1.065-6.213,1.565-9.325
		c0.916-5.701,1.794-11.407,2.717-17.107C156.877,61.352,156.706,60.978,154.903,60.978z"/>
	<path style="fill:#4A9ED5;" d="M183.259,89.09c0.001-1.317-0.001-2.633-0.001-3.95c0-1.869,0.004-3.738-0.002-5.606
		c-0.004-1.238,0.009-2.483-0.114-3.712c-0.294-2.929-1.605-5.217-4.401-6.448c-1.501-0.661-3.102-0.868-4.723-0.868
		c-0.038,0-0.076,0-0.113,0c-3.082,0.018-5.947,0.611-8.152,3.196c0-0.256,0-0.512,0-0.769c0-3.596,0.004-7.193-0.001-10.789
		c-0.002-1.421-0.302-1.721-1.695-1.748c-0.108-0.002-0.21-0.003-0.308-0.003c-1.625,0-1.854,0.32-1.854,2.096
		c0,10.473,0,20.946,0,31.418c0,2.017,0.144,2.335,1.826,2.335c0.161,0,0.336-0.003,0.526-0.008c1.129-0.027,1.432-0.28,1.469-1.422
		c0.048-1.481,0.028-2.964,0.036-4.445c0.019-3.596-0.026-7.193,0.078-10.787c0.081-2.802,1.648-4.63,4.245-5.184
		c0.906-0.193,1.817-0.289,2.729-0.289c0.9,0,1.8,0.094,2.697,0.279c2.183,0.451,3.424,1.789,3.734,3.999
		c0.084,0.599,0.124,1.208,0.125,1.813c0.01,4.617,0.005,9.234,0.005,13.85c0,1.949,0.131,2.19,1.904,2.19
		c0.11,0,0.226-0.001,0.349-0.002c1.284-0.016,1.57-0.29,1.635-1.581c0.012-0.242,0.007-0.486,0.007-0.729
		C183.26,90.981,183.258,90.035,183.259,89.09z"/>
	<path style="fill:none;" d="M225.341,85.92h-0.438c0,0.012,0,0.027,0.001,0.039C225.046,85.95,225.197,85.93,225.341,85.92z"/>
	<path style="fill:#E0E0E0;" d="M246.704,68.156c0-8.38-5.535-15.393-12.994-17.327c-1.129-7.344-7.213-12.961-14.571-12.961
		c-5.983,0-11.124,3.717-13.447,9.053c-8.551,1.306-15.243,8.581-16.028,17.65c0.607-0.238,1.229-0.404,1.83-0.51
		c2.292-0.404,4.333-0.6,6.242-0.6c2.595,0,4.962,0.354,7.239,1.081c1.322,0.422,2.509,1.014,3.549,1.748
		c0.962-0.941,2.114-1.406,2.946-1.628c0.035-0.336,0.068-0.672,0.099-1.008c0.345-3.725,3.166-6.429,6.707-6.429
		c1.134,0,2.252,0.277,3.322,0.823c2.281,1.165,3.177,3.634,3.251,5.392c0.008,0.19,0.015,0.379,0.02,0.567
		c1.11,0,2.22,0.001,3.331,0.004c3.923,0.011,6.365,2.356,6.532,6.272c0.049,1.152,0.152,3.551-1.672,5.455
		c-1.826,1.906-4.234,1.906-5.392,1.907l-2.754,0h-0.035c-0.002,2.568-0.001,5.137,0.01,7.705c0.001,0.204,0.006,0.391,0.015,0.569
		h0.438c1.027-0.078,4.028,0.047,6.509-0.066C240.232,84.689,246.704,77.219,246.704,68.156z"/>
	<path style="fill:#4A9ED5;" d="M188.259,85.537c-0.022,0.144-0.06,0.274-0.076,0.424c-0.103,0.977-0.08,1.918,0.078,2.798v-0.094
		C188.262,87.623,188.259,86.58,188.259,85.537z"/>
	<g>
		<path style="fill:none;" d="M195.533,82.935c-2.406,0.281-3.318,1.519-3.548,3.884c-0.195,2.01,0.953,3.691,2.894,4.217
			c1.04,0.281,2.082,0.409,3.121,0.409c1.217,0,2.431-0.175,3.637-0.481c1.471-0.374,2.571-1.323,2.762-2.863
			c0.102-0.817,0.147-1.643,0.178-2.488c0.037-1.007,0.052-2.043,0.1-3.141c-2.296,0.104-4.512,0.121-6.691,0.254
			C197.164,82.776,196.346,82.84,195.533,82.935z"/>
		<path style="fill:#4A9ED5;" d="M230.668,91.605c-0.079-0.847-0.307-1.115-0.953-1.115c-0.155,0-0.333,0.015-0.54,0.042
			c-1.75,0.224-3.515,0.45-5.275,0.463c-0.012,0-0.023,0-0.035,0c-2.039,0-3.434-1.292-3.793-3.305
			c-0.104-0.581-0.144-1.176-0.164-1.77c-0.006-0.182-0.019-0.365-0.02-0.547c-0.017-3.984-0.009-7.967-0.007-11.951
			c0-0.236,0.021-0.472,0.035-0.777c0.305,0,0.565,0,0.827,0c1.39,0,2.78,0,4.17,0c0.917,0,1.835,0,2.752,0
			c1.908,0,2.151-0.254,2.07-2.148c-0.052-1.213-0.324-1.483-1.55-1.486c-1.154-0.003-2.307-0.004-3.46-0.004
			c-1.257,0-2.514,0.001-3.771,0.001c-0.091,0-0.183,0-0.274,0c-0.255,0-0.511,0-0.8,0c0-0.38,0-0.646,0-0.912
			c0-1.482,0.036-2.965-0.027-4.444c-0.017-0.402-0.228-0.997-0.529-1.151c-0.369-0.188-0.723-0.276-1.048-0.276
			c-0.928,0-1.62,0.72-1.728,1.89c-0.15,1.615-0.343,3.227-0.521,4.877c-1.042,0.154-2.049,0.293-3.052,0.454
			c-0.56,0.09-0.902,0.251-1.086,0.584c-0.183,0.331-0.211,0.831-0.143,1.601c0.063,0.707,0.338,0.955,1.193,1.002
			c0.084,0.005,0.166,0.01,0.261,0.01c0.354,0.003,0.708,0.004,1.067,0.004c0.568,0,1.146-0.002,1.751-0.002c0,0.37,0,0.656,0,0.941
			c0,3.838-0.019,7.676,0.012,11.513c0.002,0.272,0.021,0.546,0.031,0.82c0.03,0.843,0.087,1.687,0.233,2.512
			c0.629,3.549,2.803,5.605,6.363,6.109c0.75,0.106,1.497,0.157,2.242,0.157c1.284,0,2.562-0.153,3.832-0.441
			C230.432,93.871,230.828,93.331,230.668,91.605z"/>
		<g>
			<path style="fill:none;" d="M195.533,82.935c-2.406,0.281-3.318,1.519-3.548,3.884c-0.195,2.01,0.953,3.691,2.894,4.217
				c1.04,0.281,2.082,0.409,3.121,0.409c1.217,0,2.431-0.175,3.637-0.481c1.471-0.374,2.571-1.323,2.762-2.863
				c0.102-0.817,0.147-1.643,0.178-2.488c0.037-1.007,0.052-2.043,0.1-3.141c-2.296,0.104-4.512,0.121-6.691,0.254
				C197.164,82.776,196.346,82.84,195.533,82.935z"/>
			<path style="fill:#4A9ED5;" d="M208.388,75.92c0-0.047-0.01-0.089-0.011-0.136c-0.055-1.793-0.624-3.28-1.645-4.425
				c-0.812-0.911-1.9-1.614-3.278-2.054c-1.891-0.604-3.8-0.844-5.718-0.844c-1.788,0-3.582,0.208-5.375,0.524
				c-1.559,0.274-1.805,0.646-1.742,2.21c0.039,0.947,0.273,1.313,0.957,1.313c0.188,0,0.408-0.028,0.668-0.078
				c1.776-0.346,3.56-0.552,5.353-0.552c0.965,0,1.933,0.06,2.903,0.19c2.399,0.321,3.775,1.483,4.022,3.613
				c0.146,1.264,0.027,2.559,0.027,3.929c-0.206,0-0.405-0.004-0.603-0.004c-0.114,0-0.227,0.001-0.34,0.005
				c-2.923,0.104-5.869,0.029-8.766,0.35c-0.152,0.017-0.306,0.022-0.458,0.042c-3.442,0.435-5.611,2.2-6.123,5.534
				c0,1.043,0.003,2.086,0.002,3.129v0.094c0.448,2.494,2.005,4.492,5.054,5.377c1.542,0.448,3.095,0.647,4.648,0.647
				c1.524,0,3.05-0.192,4.567-0.531c3.962-0.884,5.801-3.152,5.865-7.184c0.005-0.347,0.003-0.694,0.008-1.042
				C208.445,82.659,208.441,79.289,208.388,75.92z M204.577,85.613c-0.031,0.846-0.077,1.672-0.178,2.488
				c-0.191,1.54-1.292,2.489-2.762,2.863c-1.206,0.307-2.42,0.481-3.637,0.481c-1.04,0-2.081-0.127-3.121-0.409
				c-1.941-0.525-3.089-2.206-2.894-4.217c0.229-2.365,1.142-3.604,3.548-3.884c0.814-0.095,1.632-0.159,2.454-0.209
				c2.179-0.133,4.395-0.15,6.691-0.254C204.63,83.57,204.615,84.606,204.577,85.613z"/>
		</g>
	</g>
</g>
<g>
	<path style="fill:#4A9ED5;" d="M184.55,397.72c-1.625-0.488-3.264-0.719-4.909-0.719c-1.413,0-2.829,0.171-4.244,0.497
		c-2.715,0.627-4.844,2.082-6.09,4.648c-0.889,1.831-1.137,3.801-1.139,5.807c-0.008,7.872-0.003,15.744-0.002,23.617
		c0,0.239-0.001,0.48,0.03,0.716c0.108,0.791,0.349,1.021,1.144,1.111c0.217,0.025,0.437,0.039,0.656,0.042
		c0.085,0.001,0.166,0.002,0.244,0.002c1.587,0,1.825-0.316,1.826-2.053c0.002-3.567,0-7.135,0-10.702c0-0.215,0-0.429,0-0.564
		c0.756,0.7,1.434,1.498,2.269,2.065c1.634,1.11,3.537,1.352,5.473,1.386c0.145,0.003,0.29,0.004,0.434,0.004
		c2.043,0,4.038-0.268,5.888-1.219c2.756-1.416,4.061-3.844,4.488-6.788c0.44-3.03,0.257-6.084,0.169-9.13
		c-0.014-0.495-0.083-0.992-0.165-1.482C190.02,401.355,188.137,398.797,184.55,397.72z M186.704,415.166
		c-0.294,2.511-1.817,3.982-4.282,4.473c-0.98,0.195-1.963,0.296-2.945,0.296c-1.036,0-2.07-0.113-3.098-0.346
		c-2.452-0.557-3.854-2.089-4.141-4.619c-0.175-1.537-0.165-3.096-0.236-4.608c0.07-1.572,0.066-3.109,0.224-4.63
		c0.281-2.71,1.865-4.324,4.53-4.786c0.929-0.161,1.856-0.242,2.784-0.242c0.932,0,1.865,0.082,2.797,0.248
		c2.481,0.44,4.003,1.842,4.343,4.332C187.129,408.567,187.09,411.878,186.704,415.166z"/>
	<path style="fill:#FFFFFF;" d="M182.337,400.952c-0.933-0.166-1.865-0.248-2.797-0.248c-0.928,0-1.855,0.081-2.784,0.242
		c-2.665,0.462-4.249,2.076-4.53,4.786c-0.158,1.52-0.153,3.057-0.224,4.63c0.071,1.512,0.061,3.07,0.236,4.608
		c0.287,2.53,1.689,4.062,4.141,4.619c1.028,0.234,2.062,0.346,3.098,0.346c0.981,0,1.964-0.101,2.945-0.296
		c2.465-0.491,3.988-1.962,4.282-4.473c0.386-3.288,0.425-6.599-0.024-9.882C186.34,402.795,184.818,401.393,182.337,400.952z"/>
	<path style="fill:#4A9ED5;" d="M213.11,397.714c-1.618-0.483-3.249-0.712-4.886-0.712c-1.401,0-2.806,0.168-4.208,0.489
		c-2.715,0.621-4.852,2.059-6.108,4.624c-0.924,1.886-1.157,3.915-1.158,5.982c-0.004,7.792-0.002,15.585,0.001,23.377
		c0,0.337,0.041,0.674,0.073,1.01c0.055,0.569,0.404,0.837,0.944,0.894c0.257,0.027,0.516,0.055,0.774,0.061
		c0.109,0.002,0.212,0.004,0.311,0.004c1.563,0,1.796-0.332,1.797-2.077c0.001-3.567,0-7.135,0-10.702c0-0.21,0-0.419,0-0.629
		c1.444,2.165,3.499,3.149,5.922,3.38c0.731,0.07,1.47,0.102,2.209,0.102c0.714,0,1.428-0.031,2.136-0.088
		c4.447-0.362,7.386-2.98,8.173-7.357c0.25-1.389,0.311-2.821,0.327-4.243c-0.036-0.992-0.034-1.978,0-2.957
		c-0.017-1.298-0.069-2.595-0.237-3.874C218.7,401.354,216.725,398.792,213.11,397.714z M215.284,415.132
		c-0.368,2.68-1.708,3.977-4.364,4.521c-0.945,0.194-1.895,0.291-2.844,0.291c-1.05,0-2.099-0.12-3.14-0.361
		c-2.427-0.563-3.821-2.078-4.112-4.58c-0.181-1.556-0.168-3.135-0.24-4.666c0.071-1.573,0.072-3.109,0.227-4.63
		c0.266-2.618,1.806-4.25,4.377-4.735c0.969-0.183,1.941-0.277,2.915-0.277c0.888,0,1.777,0.078,2.665,0.239
		c2.743,0.495,4.198,1.815,4.542,4.611C215.702,408.725,215.722,411.95,215.284,415.132z"/>
	<path style="fill:#4A9ED5;" d="M129.051,406.347c-2.892-1.9-5.858-3.686-8.762-5.569c-1.385-0.897-2.242-2.153-2.31-3.89
		c-0.061-1.554,0.626-2.822,2.012-3.408c0.436-0.185,0.899-0.333,1.365-0.413c1.167-0.2,2.332-0.293,3.496-0.293
		c1.591,0,3.178,0.173,4.757,0.483c1.029,0.202,2.028,0.557,3.043,0.836c0.191,0.053,0.358,0.079,0.505,0.079
		c0.508,0,0.756-0.324,0.798-1.012c0.02-0.318,0.018-0.637,0.015-0.956c-0.009-1.204-0.198-1.478-1.303-1.916
		c-2.585-1.025-5.289-1.322-8.042-1.322c-0.012,0-0.024,0-0.036,0c-0.009-0.058-0.018-0.117-0.027-0.175
		c-1.785,0.267-3.596,0.419-5.348,0.829c-2.132,0.5-3.888,1.637-4.773,3.773c-1.473,3.553-0.313,7.876,2.826,10.23
		c1.429,1.071,2.984,1.974,4.491,2.939c2.496,1.597,5.026,3.141,7.488,4.789c1.314,0.88,2.042,2.174,2.149,3.809
		c0.104,1.584-0.602,2.986-2.025,3.682c-0.477,0.233-0.994,0.43-1.514,0.524c-1.5,0.27-2.99,0.4-4.471,0.4
		c-2.725,0-5.419-0.442-8.083-1.277c-0.384-0.12-0.691-0.186-0.935-0.186c-0.616,0-0.826,0.419-0.848,1.429
		c-0.002,0.12-0.001,0.239-0.001,0.359c0.002,1.421,0.209,1.818,1.586,2.206c1.563,0.44,3.154,0.849,4.761,1.053
		c1.3,0.164,2.602,0.26,3.901,0.26c1.874,0,3.742-0.198,5.591-0.673c3.729-0.958,5.745-3.162,6.072-6.749
		c0.234-2.57-0.354-4.958-2.3-6.757C131.885,408.279,130.474,407.283,129.051,406.347z"/>
	<path style="fill:#FFFFFF;" d="M219.417,411.829c0.002-0.211,0.007-0.422,0.008-0.631c0.003-0.774,0.002-1.55-0.008-2.326
		C219.383,409.851,219.381,410.837,219.417,411.829z"/>
	<path style="fill:#4A9ED5;" d="M162.118,399.742c-0.001-0.398-0.022-0.796-0.054-1.193c-0.046-0.584-0.378-0.912-0.958-0.946
		c-0.347-0.02-0.695-0.034-1.042-0.034c-0.19,0-0.38,0.004-0.569,0.014c-0.891,0.044-1.203,0.372-1.254,1.255
		c-0.015,0.258-0.01,0.518-0.01,0.777c0,4.642,0.005,9.285-0.006,13.927c-0.002,0.715-0.03,1.437-0.129,2.143
		c-0.258,1.825-1.193,3.147-3.008,3.707c-1.229,0.379-2.465,0.56-3.702,0.56c-1.22,0-2.439-0.176-3.653-0.51
		c-1.802-0.496-2.86-1.746-3.145-3.593c-0.123-0.803-0.178-1.624-0.181-2.437c-0.016-4.602-0.007-9.205-0.01-13.807
		c0-0.358-0.008-0.718-0.044-1.074c-0.055-0.547-0.363-0.893-0.919-0.92c-0.319-0.015-0.638-0.024-0.958-0.024
		c-0.337,0-0.674,0.009-1.01,0.029c-0.457,0.027-0.781,0.295-0.855,0.775c-0.048,0.313-0.08,0.631-0.081,0.947
		c-0.005,4.164-0.013,8.328,0.002,12.492c0.004,1.313-0.016,2.636,0.13,3.936c0.377,3.359,2.009,5.849,5.308,6.975
		c1.774,0.606,3.562,0.894,5.353,0.894c1.757,0,3.517-0.278,5.269-0.806c2.073-0.625,3.64-1.929,4.571-3.921
		c0.607-1.298,0.896-2.68,0.908-4.106c0.022-2.53,0.006-5.059,0.006-7.589c0.014,0,0.028,0,0.042,0
		C162.121,404.723,162.123,402.232,162.118,399.742z"/>
	<path style="fill:#E0E0E0;" d="M303.537,398.656c0-8.38-5.535-15.393-12.994-17.327c-1.129-7.344-7.213-12.961-14.571-12.961
		c-5.983,0-11.124,3.717-13.447,9.053c-8.502,1.299-15.163,8.499-16.011,17.495c1.25,0.885,2.304,1.97,3.145,3.232
		c0.581-0.986,1.287-1.89,2.133-2.686c1.844-1.734,4.125-2.785,6.973-3.212c1.042-0.156,1.997-0.232,2.919-0.232
		c1.059,0,2.09,0.104,3.067,0.309c0.557,0.117,1.061,0.305,1.538,0.527c0.036-0.327,0.072-0.654,0.11-0.99l0.007-0.089
		c0.272-3.513,2.418-4.895,3.674-5.406c1.007-0.41,2.041-0.618,3.073-0.618c1.279,0,2.529,0.331,3.616,0.958
		c1.757,1.013,2.847,2.984,2.915,5.274c0.005,0.191,0.01,0.381,0.014,0.571c1.007,0,2.013,0.001,3.019,0.002
		c0.483,0.001,0.972,0.023,1.452,0.066c3.037,0.271,5.283,2.575,5.462,5.601c0.05,0.84,0.053,1.545,0.011,2.223
		c-0.204,3.208-2.512,5.513-5.743,5.737c-0.409,0.028-0.775,0.031-1.085,0.031l-0.1,0l-0.114,0l-2.895,0.001
		c-0.002,2.66-0.002,5.321,0.013,7.981c0.001,0.234,0.01,0.453,0.028,0.662c1.069-0.003,2.176-0.135,3.382-0.403
		c0.574-0.128,1.107-0.19,1.629-0.19c1.586,0,3.264,0.65,4.417,2.012C297.315,414.892,303.537,407.542,303.537,398.656z"/>
	<path style="fill:#4A9ED5;" d="M224.425,411.217c-0.001,0.177-0.005,0.368-0.007,0.551c0.054,1.358,0.181,2.714,0.378,4.063
		c0.568,3.897,2.876,6.369,6.757,7.276c1.425,0.333,2.855,0.5,4.288,0.5c1.236,0,2.473-0.124,3.709-0.373
		c4.167-0.838,6.617-3.23,7.333-7.365c0.317-1.832,0.295-3.723,0.438-5.741c-0.148-1.826-0.161-3.812-0.498-5.742
		c-0.599-3.429-2.615-5.73-6.014-6.706c-1.59-0.457-3.191-0.672-4.796-0.672c-1.354,0-2.712,0.153-4.069,0.444
		c-4.005,0.858-6.486,3.305-7.13,7.363c-0.213,1.346-0.343,2.699-0.397,4.053c0.009,0.734,0.01,1.462,0.008,2.179L224.425,411.217z
		 M228.567,406.011c0.272-3.266,1.691-4.543,4.922-5.112c0.835-0.147,1.674-0.225,2.511-0.225c1.125,0,2.246,0.14,3.353,0.439
		c2.279,0.616,3.512,2.197,3.77,4.487c0.175,1.558,0.168,3.137,0.242,4.696c-0.074,1.567-0.077,3.124-0.236,4.665
		c-0.256,2.483-1.651,4.059-4.071,4.62c-1.062,0.246-2.13,0.373-3.196,0.373c-1.206,0-2.41-0.162-3.6-0.496
		c-2.164-0.607-3.494-2.151-3.643-4.327C228.412,412.1,228.315,409.03,228.567,406.011z"/>
	<path style="fill:#4A9ED5;" d="M224.418,411.768c0.002-0.183,0.006-0.374,0.007-0.551l0-0.169c0.003-0.717,0.001-1.445-0.008-2.179
		C224.379,409.835,224.38,410.802,224.418,411.768z"/>
	<path style="fill:#4A9ED5;" d="M252.821,413.155c-0.014,0-0.028,0-0.042,0c0,1.275-0.003,2.549,0,3.824
		c0.004,1.613-0.006,3.226,0.029,4.839c0.019,0.884,0.371,1.206,1.254,1.248c0.225,0.011,0.45,0.016,0.676,0.016
		c0.213,0,0.426-0.005,0.638-0.017c0.883-0.047,1.212-0.381,1.267-1.253c0.015-0.238,0.01-0.478,0.009-0.717
		c-0.003-0.656,0.001-2.798,0.005-6.754c-1.393-0.749-2.68-1.675-3.844-2.747C252.816,412.115,252.821,412.635,252.821,413.155z"/>
	<path style="fill:#4A9ED5;" d="M264.805,398.486c-0.027-0.491-0.153-0.781-0.413-0.981c-0.163-0.125-0.368-0.222-0.669-0.286
		c-0.614-0.129-1.229-0.183-1.844-0.193c-0.065-0.001-0.129-0.009-0.194-0.009c-0.726,0-1.453,0.068-2.178,0.177
		c-1.602,0.24-3.084,0.776-4.289,1.909c-1.655,1.556-2.31,3.565-2.376,5.748c-0.068,2.246-0.042,4.495-0.029,6.743
		c1.164,1.072,2.451,1.998,3.844,2.747c0-2.608-0.006-5.216,0.005-7.824c0.003-0.851,0.076-1.711,0.221-2.549
		c0.291-1.679,1.297-2.734,2.978-3.09c0.446-0.095,0.91-0.152,1.366-0.152c0.019,0,0.037,0,0.055,0
		c0.079,0.001,0.157,0.008,0.236,0.01c0.736,0.019,1.471,0.083,2.207,0.114c0.048,0.002,0.094,0.003,0.138,0.003
		c0.073,0,0.122-0.016,0.185-0.022c0.521-0.05,0.721-0.303,0.758-0.972C264.831,399.402,264.83,398.942,264.805,398.486z"/>
	<path style="fill:#4A9ED5;" d="M285.607,420.435c-0.033-0.821-0.263-1.171-0.852-1.171c-0.155,0-0.334,0.024-0.542,0.07
		c-1.487,0.331-2.986,0.523-4.503,0.523c-0.297,0-0.594-0.007-0.892-0.022c-2.075-0.105-3.429-1.214-3.866-3.243
		c-0.012-0.056-0.015-0.115-0.026-0.172c-0.14-0.72-0.206-1.463-0.21-2.197c-0.022-4.125-0.011-8.25-0.009-12.375
		c0-0.193,0.019-0.386,0.031-0.633c0.254,0,0.469,0,0.684,0c1.142,0,2.283,0,3.425,0c1.25,0,2.5,0,3.749-0.001
		c0.009,0,0.018,0,0.026,0c0.064,0,0.127,0,0.191,0c0.247,0,0.494-0.002,0.739-0.019c0.745-0.052,1.053-0.332,1.099-1.066
		c0.034-0.535,0.02-1.075-0.012-1.61c-0.033-0.557-0.362-0.867-0.916-0.917c-0.337-0.03-0.676-0.046-1.014-0.046
		c-2.431-0.004-4.862-0.001-7.293-0.003c-0.228,0-0.456-0.02-0.71-0.031c0-0.293,0-0.511,0-0.729c0-1.554,0.025-3.11-0.021-4.663
		c-0.011-0.379-0.149-0.936-0.414-1.089c-0.351-0.202-0.732-0.29-1.119-0.29c-0.4,0-0.805,0.093-1.188,0.249
		c-0.589,0.24-0.536,0.883-0.595,1.406c-0.178,1.583-0.345,3.167-0.494,4.752c-0.031,0.331-0.169,0.423-0.48,0.459
		c-0.221,0.025-0.441,0.065-0.662,0.092c-0.687,0.086-1.375,0.17-2.057,0.287c-0.153,0.026-0.284,0.061-0.405,0.101
		c-0.719,0.24-0.896,0.767-0.8,2.024c0.045,0.589,0.191,0.873,0.613,1c0.2,0.06,0.457,0.088,0.805,0.091
		c0.369,0.003,0.737,0.004,1.11,0.004c0.21,0,0.434,0,0.647-0.001c0.385-0.001,0.764-0.001,1.166-0.001c0,0.302,0,0.536,0,0.77
		c0,3.966-0.023,7.932,0.015,11.897c0.008,0.846,0.074,1.696,0.18,2.539c0.043,0.341,0.073,0.686,0.139,1.021
		c0.597,3.05,2.37,5.059,5.467,5.774c1.042,0.241,2.083,0.347,3.123,0.347c1.272,0,2.543-0.159,3.808-0.427
		C285.414,422.74,285.683,422.339,285.607,420.435z"/>
</g>
<g>
	<path style="fill:#4A9ED5;" d="M130.213,244.66c-2.773-1.759-5.582-3.463-8.345-5.236c-0.956-0.613-1.914-1.273-2.708-2.074
		c-1.192-1.205-1.431-2.739-0.918-4.339c0.459-1.435,1.689-1.93,3.015-2.219c0.605-0.132,1.23-0.2,1.85-0.231
		c0.545-0.028,1.087-0.043,1.628-0.043c2.539,0,5.037,0.328,7.473,1.191c0.287,0.102,0.526,0.154,0.723,0.154
		c0.541,0,0.771-0.39,0.829-1.217c0.128-1.837-0.086-2.218-1.868-2.805c-2.342-0.771-4.71-1.143-7.09-1.143
		c-1.795,0-3.598,0.212-5.398,0.625c-2.615,0.6-4.643,2.075-5.216,4.885c-0.623,3.051-0.089,5.878,2.231,8.12
		c0.911,0.88,1.977,1.624,3.049,2.309c2.883,1.843,5.829,3.588,8.702,5.446c0.827,0.535,1.623,1.222,2.209,2.006
		c1.794,2.401,0.76,5.531-2.081,6.391c-0.916,0.277-1.895,0.417-2.853,0.471c-0.645,0.037-1.287,0.056-1.928,0.056
		c-2.853,0-5.664-0.381-8.417-1.285c-0.094-0.031-0.211-0.045-0.335-0.045c-0.348,0-0.756,0.114-0.896,0.305
		c-0.811,1.11-0.126,3.008,1.173,3.491c2.732,1.014,5.579,1.287,8.494,1.494c1.941-0.292,3.919-0.437,5.818-0.904
		c3.7-0.909,5.907-3.801,5.969-7.161c-0.009-0.166-0.027-0.328-0.031-0.497c-0.004-0.163-0.002-0.327-0.006-0.49
		c-0.092-0.873-0.326-1.766-0.714-2.656C133.671,247.198,132.046,245.822,130.213,244.66z"/>
	<path style="fill:#4A9ED5;" d="M147.166,260.395c1.285,0.223,2.615,0.334,3.938,0.334c0.757,0,1.512-0.036,2.255-0.11
		c5.344-0.526,8.005-3.565,8.082-8.933c0.034-2.354,0.006-4.709,0.006-7.063c0,0,0.004,0,0.006,0c0-2.631,0.016-5.263-0.016-7.894
		c-0.005-0.418-0.16-1.151-0.361-1.194c-0.637-0.135-1.306-0.239-1.961-0.239c-0.25,0-0.499,0.015-0.742,0.05
		c-0.854,0.121-0.696,0.993-0.698,1.631c-0.01,4.57,0.001,9.141-0.013,13.711c-0.002,0.759-0.059,1.522-0.153,2.275
		c-0.25,1.992-1.34,3.292-3.295,3.812c-1.099,0.292-2.202,0.435-3.305,0.435c-1.09,0-2.179-0.14-3.263-0.414
		c-2.133-0.539-3.219-1.815-3.468-4.003c-0.101-0.891-0.132-1.794-0.135-2.692c-0.014-4.363-0.002-8.725-0.01-13.088
		c-0.002-1.583-0.278-1.847-1.87-1.847c-0.007,0-0.014,0-0.014,0c-0.18,0-0.353,0.006-0.526,0.007
		c-0.942,0.005-1.386,0.486-1.385,1.42c0.01,5.166-0.077,10.334,0.047,15.497c0.005,0.098,0.01,0.196,0.013,0.294
		C140.45,256.752,142.933,259.661,147.166,260.395z"/>
	<path style="fill:#4A9ED5;" d="M140.3,252.386c-0.003-0.098-0.008-0.196-0.013-0.294c0.002,0.062,0.001,0.125,0.003,0.187
		C140.29,252.316,140.298,252.349,140.3,252.386z"/>
	<path style="fill:#FFFFFF;" d="M135.322,252.901c0.006-0.325-0.003-0.654-0.038-0.986c0.004,0.163,0.002,0.327,0.006,0.49
		C135.295,252.573,135.313,252.735,135.322,252.901z"/>
	<path style="fill:#E0E0E0;" d="M246.785,251.171c0.523,0.44,1.072,0.845,1.639,1.226c-0.005-0.005-0.007-0.011-0.012-0.016
		C247.946,251.907,247.377,251.514,246.785,251.171z"/>
	<path style="fill:#E0E0E0;" d="M296.871,237.656c0-8.38-5.535-15.393-12.994-17.327c-1.129-7.344-7.213-12.961-14.571-12.961
		c-5.983,0-11.124,3.717-13.447,9.053c-7.185,1.098-13.042,6.417-15.201,13.465c1.124-0.154,2.253-0.241,3.377-0.241
		c2.549,0,5.118,0.398,7.638,1.183c1.856,0.578,3.199,1.539,4.053,2.851c1.423-1.619,3.405-2.793,5.869-3.368
		c1.903-0.444,3.833-0.669,5.734-0.669c2.561,0,5.114,0.407,7.591,1.209c1.713,0.555,3.853,1.968,4.719,4.268
		c0.875,2.328,0.302,4.78-0.528,6.301c-0.392,0.717-1.483,2.252-3.8,2.661c0.786,0.485,1.503,0.984,2.166,1.505
		c2.428,1.911,3.695,4.806,3.474,7.943c-0.027,0.383-0.026,0.824,0.002,1.346c0.011,0.201-0.009,0.394-0.009,0.591
		C289.841,254.818,296.871,247.103,296.871,237.656z"/>
	<g>
		<path style="fill:#4A9ED5;" d="M248.804,247.872c-1.513-0.754-3.076-1.406-4.603-2.132c-0.828-0.394-1.665-0.776-2.487-1.183
			c-0.568-0.281-1.131-0.573-1.674-0.896c-1.189-0.707-1.612-2.046-1.261-3.354c0.199-0.745,0.643-1.194,1.211-1.476
			c0.355-0.176,0.759-0.288,1.184-0.362c0.645-0.113,1.302-0.175,1.957-0.207c0.318-0.016,0.634-0.023,0.95-0.023
			c2.041,0,4.042,0.319,6.011,0.911c0.345,0.104,0.626,0.159,0.854,0.159c0.64,0,0.857-0.435,0.876-1.451
			c0.026-1.378-0.255-1.825-1.637-2.256c-2.033-0.634-4.087-0.957-6.15-0.957c-1.413,0-2.831,0.159-4.25,0.467
			c-0.117,0.025-0.235,0.045-0.352,0.072c-2.278,0.536-4.009,1.865-4.365,4.312c-0.538,3.7,0.328,6.023,3.604,7.698
			c2.427,1.241,4.926,2.34,7.36,3.568c0.252,0.127,0.504,0.265,0.752,0.409c0.593,0.343,1.162,0.736,1.626,1.21
			c0.005,0.005,0.007,0.011,0.012,0.016c1.433,1.482,0.819,3.746-1.139,4.372c-0.682,0.218-1.411,0.35-2.126,0.39
			c-0.573,0.033-1.145,0.049-1.714,0.049c-2.438,0-4.848-0.304-7.221-0.967c-0.254-0.071-0.52-0.144-0.768-0.144
			c-0.337,0-0.64,0.135-0.832,0.591c-0.589,1.396,0.036,2.816,1.529,3.125c2.324,0.482,4.681,0.805,6.458,1.1
			c2.461,0.099,3.304-0.247,4.635-0.445c3.616-0.537,5.432-2.505,5.619-5.876c0.016-0.284,0.041-0.559,0.033-0.863
			C252.826,250.852,251.217,249.074,248.804,247.872z"/>
		<path style="fill:#4A9ED5;" d="M276.04,253.107c-0.046-1.695-0.531-2.706-1.658-3.592c-1.127-0.887-2.392-1.63-3.676-2.278
			c-2.371-1.198-4.837-2.211-7.192-3.438c-1.349-0.703-1.824-2.066-1.465-3.458c0.338-1.311,1.389-1.724,2.575-1.9
			c0.923-0.137,1.841-0.203,2.755-0.203c1.871,0,3.723,0.277,5.564,0.789c0.318,0.089,0.783,0.156,1.159,0.156
			c0.307,0,0.556-0.045,0.619-0.161c0.328-0.6,0.47-1.522,0.236-2.143c-0.208-0.553-0.96-1.072-1.58-1.272
			c-1.996-0.646-4.018-0.965-6.05-0.965c-1.529,0-3.064,0.181-4.598,0.539c-2.279,0.532-4.018,1.851-4.38,4.299
			c-0.55,3.711,0.327,6.039,3.588,7.709c2.427,1.243,4.924,2.349,7.364,3.568c0.795,0.397,1.599,0.864,2.24,1.468
			c0.999,0.942,1.168,2.213,0.664,3.196c-0.32,0.624-0.907,1.133-1.742,1.362c-0.914,0.25-1.896,0.413-2.85,0.413
			c-0.21,0-0.418-0.008-0.625-0.024c-2.504-0.201-4.994-0.602-7.486-0.941c-0.268-0.036-0.542-0.104-0.795-0.104
			c-0.329,0-0.619,0.115-0.808,0.563c-0.589,1.397,0.036,2.816,1.531,3.126c2.325,0.482,4.684,0.804,7.028,1.194
			c2.799,0.099,4.624-0.319,6.717-1.401c1.707-0.883,2.789-2.198,2.779-4.187c0-0.091,0.09-0.297,0.085-0.391
			C276.004,254.373,276.058,253.763,276.04,253.107z"/>
	</g>
	<path style="fill:none;" d="M221.189,238.288c-0.689-0.084-1.393-0.127-2.096-0.127c-0.712,0-1.424,0.044-2.121,0.134
		c-2.273,0.293-3.944,1.517-4.466,3.855c-0.266,1.191-0.262,2.442-0.388,3.735c4.771,0,9.278,0,13.783,0
		c0-0.936,0.066-1.799-0.012-2.649C225.634,240.447,223.965,238.627,221.189,238.288z"/>
	<path style="fill:#4A9ED5;" d="M229.354,242.271c-0.419-3.612-2.795-6.309-6.338-7.085c-1.402-0.307-2.873-0.442-4.326-0.442
		c-0.376,0-0.751,0.009-1.123,0.027c-3.27,0.153-5.773,1.362-7.301,3.505c-0.73,1.024-1.238,2.261-1.497,3.703
		c-0.009,0.052-0.022,0.1-0.031,0.152c-0.582,3.521-0.618,7.104-0.079,10.646c0.047,0.307,0.091,0.615,0.146,0.922
		c0.3,1.655,0.958,3.024,1.943,4.091c0.978,1.059,2.279,1.821,3.879,2.268c1.875,0.524,3.752,0.764,5.626,0.764
		c2.362,0,4.718-0.383,7.059-1.062c1.309-0.38,1.771-1.413,1.349-2.878c-0.18-0.626-0.481-0.8-0.828-0.8
		c-0.414,0-0.893,0.248-1.311,0.277c-0.102,0.007-0.2,0.053-0.301,0.077c-1.988,0.453-3.985,0.758-6,0.758
		c-0.979,0-1.962-0.072-2.95-0.234c-1.96-0.321-3.775-1.046-4.451-3.075c-0.478-1.434-0.542-3.007-0.817-4.683
		c0.729,0,1.134,0,1.54,0c0.179,0,0.357,0,0.537,0c2.239,0,4.478,0.001,6.716,0.001c2.254,0,4.509-0.001,6.764-0.007
		c1.393-0.003,1.785-0.292,1.845-1.655C229.483,245.785,229.556,244.007,229.354,242.271z M225.902,245.885
		c-4.505,0-9.012,0-13.783,0c0.125-1.293,0.122-2.544,0.388-3.735c0.522-2.338,2.193-3.562,4.466-3.855
		c0.697-0.09,1.409-0.134,2.121-0.134c0.703,0,1.407,0.043,2.096,0.127c2.775,0.339,4.444,2.159,4.701,4.948
		C225.968,244.086,225.902,244.949,225.902,245.885z"/>
	<path style="fill:#4A9ED5;" d="M205.611,257.025c-0.129-0.537-0.385-0.698-0.688-0.698c-0.178,0-0.374,0.057-0.568,0.126
		c-0.215,0.076-0.43,0.165-0.622,0.212c-1.422,0.346-2.849,0.525-4.281,0.525c-1.008,0-2.018-0.089-3.029-0.27
		c-2.85-0.512-4.423-2.24-4.647-5.163c-0.1-1.307-0.017-2.627-0.017-3.942c-0.007,0-0.014,0-0.021,0
		c0-1.314-0.087-2.636,0.017-3.942c0.265-3.33,1.974-5,5.306-5.436c0.704-0.092,1.402-0.138,2.095-0.138
		c1.541,0,3.057,0.228,4.569,0.682c0.089,0.027,0.199,0.039,0.316,0.039c0.109,0,0.223-0.013,0.336-0.033
		c0.294-0.052,0.569-0.164,0.652-0.315c0.303-0.554,0.339-1.152,0.186-1.696c-0.212-0.753-0.799-1.401-1.643-1.659
		c-1.48-0.454-2.969-0.666-4.459-0.666c-1.453,0-2.905,0.202-4.351,0.578c-3.984,1.038-6.362,3.689-6.699,7.757
		c-0.27,3.259-0.26,6.578,0.024,9.836c0.023,0.266,0.079,0.509,0.12,0.762c0.213,1.324,0.657,2.478,1.328,3.438
		c1.165,1.67,2.975,2.783,5.362,3.231c1.708,0.321,3.479,0.368,5.24,0.368c0.486,0,0.973-0.004,1.457-0.006
		c1.008-0.005,2.021-0.41,3.018-0.682c0.495-0.135,0.796-0.422,0.967-0.789C205.855,258.551,205.784,257.745,205.611,257.025z"/>
	<path style="fill:#4A9ED5;" d="M183.705,256.337c-0.004,0-0.009-0.002-0.009-0.002c-0.354,0-0.746,0.215-1.09,0.302
		c-1.439,0.368-2.885,0.554-4.335,0.554c-1.022,0-2.047-0.093-3.074-0.279c-2.81-0.51-4.373-2.235-4.624-5.079
		c-0.118-1.343-0.129-2.695-0.193-4.116c0.063-1.384,0.065-2.842,0.209-4.286c0.239-2.405,1.475-4.163,3.882-4.672
		c1.373-0.29,2.808-0.357,4.23-0.357c0.303,0,0.607,0.003,0.908,0.008c1.012,0.016,2.01,0.472,3.03,0.612
		c0.05,0.007,0.105,0.01,0.164,0.01c0.391,0,0.918-0.151,1.033-0.383c0.693-1.393-0.005-2.885-1.492-3.342
		c-1.468-0.452-2.945-0.66-4.424-0.66c-1.432,0-2.864,0.195-4.288,0.554c-3.652,0.921-6.06,3.233-6.659,6.991
		c-0.623,3.906-0.676,7.872,0.107,11.771c0.586,2.918,2.406,4.903,5.239,5.938c1.7,0.62,3.447,0.876,5.211,0.876
		c0.545,0,1.092-0.024,1.64-0.07c1.466-0.122,2.932-0.449,4.351-0.848c0.564-0.158,0.92-0.724,1.033-1.402
		c0.078-0.465,0.044-0.981-0.127-1.463C184.253,256.495,183.994,256.342,183.705,256.337z"/>
</g>
<g>
	<path style="fill:#4A9ED5;" d="M155.863,139.694c-0.416-0.205-0.83-0.301-1.22-0.301c-1.118,0-2.043,0.788-2.246,2.071
		c-1.179,7.464-2.317,14.935-3.496,22.399c-0.232,1.467-0.515,2.932-0.896,4.366c-0.246,0.923-1.016,1.298-1.976,1.299h-0.003
		c-0.95,0-1.66-0.358-2.004-1.268c-0.188-0.494-0.349-1.009-0.438-1.529c-0.933-5.489-1.831-10.983-2.777-16.469
		c-0.445-2.583-0.929-5.161-1.483-7.722c-0.266-1.229-0.992-2.288-2.246-2.644c-0.811-0.23-1.619-0.367-2.384-0.367
		c-2.011,0-3.715,0.948-4.338,3.64c-0.072,0.311-0.164,0.618-0.216,0.932c-0.996,5.912-1.978,11.826-2.986,17.735
		c-0.352,2.061-0.72,4.122-1.175,6.161c-0.223,0.998-0.951,1.521-2.034,1.529c-0.01,0-0.021,0-0.031,0
		c-1.092,0-1.794-0.484-2.119-1.526c-0.126-0.406-0.277-0.811-0.342-1.228c-0.876-5.573-1.737-11.148-2.608-16.721
		c-0.471-3.014-0.917-6.033-1.474-9.032c-0.096-0.517-0.607-1.231-1.066-1.36c-0.572-0.161-1.046-0.244-1.431-0.244
		c-1.229,0-1.549,0.847-1.251,2.699c1.128,7.005,2.189,14.02,3.344,21.02c0.374,2.265,0.718,4.582,1.498,6.721
		c0.778,2.135,3.233,3.363,5.61,3.363c1.365,0,2.705-0.405,3.686-1.277c0.416-0.37,0.81-0.83,1.042-1.328
		c0.386-0.829,0.764-1.7,0.916-2.592c1.102-6.469,2.143-12.949,3.212-19.424c0.254-1.538,0.536-3.073,0.824-4.605
		c0.123-0.65,0.48-1.106,1.189-1.106c0.009,0,0.019,0,0.019,0c0.736,0.012,1.062,0.49,1.202,1.142
		c0.044,0.208,0.126,0.408,0.16,0.617c0.721,4.447,1.421,8.898,2.162,13.342c0.601,3.602,1.128,7.223,1.916,10.785
		c0.698,3.154,2.416,4.322,5.656,4.322h0.009c3.271-0.002,4.961-1.283,5.859-4.457c0.164-0.579,0.312-1.166,0.407-1.759
		c1.06-6.585,2.112-13.171,3.157-19.758c0.323-2.032,0.657-4.064,0.891-6.107C156.43,140.583,156.185,139.853,155.863,139.694z"/>
	<path style="fill:#E0E0E0;" d="M215.71,131.329c-1.129-7.344-7.213-12.961-14.571-12.961c-5.983,0-11.124,3.717-13.447,9.053
		c-7.572,1.157-13.671,6.999-15.518,14.616c0.298-0.015,0.594-0.033,0.9-0.033c1.011,0,2.067,0.077,3.23,0.234
		c2.687,0.364,4.952,1.258,6.746,2.614c1.738-2.284,4.4-2.324,5.276-2.337l0.222-0.002c3.773,0,6.202,1.898,7.216,5.64
		c0.279,1.028,0.56,2.056,0.839,3.083c1.469,1.245,2.677,1.745,3.744-0.481c0.211-0.877,0.421-1.754,0.636-2.63
		c0.83-3.385,3.792-5.748,7.202-5.748c1.311,0,2.606,0.36,3.747,1.04c2.473,1.475,3.234,4.561,2.708,6.846
		c-0.731,3.175-1.536,6.361-2.315,9.443l-0.17,0.674l-0.732,2.905c-0.267,1.058-0.542,2.141-0.813,3.215
		c0.318,0.02,0.639,0.031,0.962,0.031c9.462,0,17.132-8.002,17.132-17.874C228.704,140.276,223.169,133.263,215.71,131.329z"/>
	<path style="fill:#4A9ED5;" d="M178.984,170.994c0.003,1.418,0.306,1.659,1.941,1.659c0,0,0.005,0,0.007,0
		c1.608,0,1.897-0.239,1.9-1.682c0.003-2.039,0.007-4.078,0.01-6.118c-1.385-0.637-2.675-1.449-3.861-2.399
		C178.981,165.301,178.978,168.148,178.984,170.994z"/>
	<g>
		<path style="fill:#4A9ED5;" d="M175.633,147.192c-0.861-0.117-1.716-0.189-2.559-0.189c-0.498,0-0.99,0.036-1.477,0.093
			c-2.245,0.259-4.36,1.164-6.185,3.299c0-0.598,0-0.944,0-1.289c-0.001-3.516,0.011-7.032-0.01-10.548
			c-0.007-1.287-0.258-1.511-1.483-1.554c-0.228-0.008-0.432-0.013-0.617-0.013c-1.537,0-1.687,0.348-1.702,2.255
			c-0.002,0.284,0,0.568,0,0.852c0,9.909,0,19.817,0,29.726c0,0.461-0.024,0.925,0.01,1.384c0.089,1.192,0.372,1.448,1.839,1.448
			c0.102,0,0.21-0.001,0.324-0.004c1.312-0.026,1.606-0.271,1.623-1.534c0.03-2.237-0.001-4.475,0.02-6.712
			c0.027-2.91-0.016-5.826,0.15-8.729c0.146-2.548,1.593-4.269,4.033-4.694c0.77-0.134,1.564-0.203,2.36-0.234
			c0.217-0.008,0.433-0.029,0.65-0.029c0.693,0,1.383,0.043,2.058,0.133c2.918,0.389,4.207,2.046,4.306,5.01
			c0.014,0.426,0.009,0.852,0.009,1.279c0,1.771,0.002,3.541,0.002,5.311c1.186,0.95,2.477,1.762,3.861,2.399
			c0.004-3.11,0.004-6.221-0.023-9.331C182.778,150.675,180.424,147.841,175.633,147.192z"/>
		<path style="fill:#4A9ED5;" d="M209.37,147.711c-0.383-0.229-0.789-0.334-1.186-0.334c-1.064,0-2.057,0.761-2.346,1.94
			c-0.651,2.651-1.276,5.308-1.923,7.96c-0.744,3.05-1.474,6.104-2.259,9.142c-0.101,0.392-0.194,0.786-0.298,1.178
			c-0.381,1.437-1.195,1.972-2.533,2.006c-0.053,0.001-0.105,0.002-0.156,0.002c-1.411,0-2.15-0.525-2.684-1.91
			c-0.161-0.417-0.295-0.845-0.417-1.276c-0.013-0.046-0.032-0.091-0.045-0.137c-1.533-5.605-3.064-11.212-4.586-16.821
			c-0.425-1.567-0.853-1.949-2.391-1.949c-0.049,0-0.099,0-0.15,0.001c-1.482,0.022-1.736,0.356-1.343,1.834
			c0.573,2.158,1.149,4.316,1.75,6.467c0.992,3.551,1.943,7.115,2.982,10.652c0.269,0.916,0.54,1.831,0.823,2.742
			c0.816,2.622,2.351,3.666,4.931,3.666c0.184,0,0.373-0.005,0.568-0.016c0.59-0.032,1.174-0.195,1.888-0.32
			c-1.143,3.963-2.824,7.269-7.523,7.601c-0.241,0.017-0.675,0.281-0.666,0.402c0.062,0.793,0.095,1.632,0.403,2.341
			c0.137,0.317,0.826,0.566,1.285,0.566c0.021,0,0.042,0,0.062-0.002c2.743-0.146,5.08-1.203,6.881-3.333
			c1.495-1.768,2.472-3.816,3.056-6.026c0.675-2.553,1.331-5.11,1.979-7.67c0.614-2.421,1.221-4.844,1.833-7.265
			c0.842-3.333,1.689-6.664,2.46-10.014C209.868,148.701,209.687,147.9,209.37,147.711z"/>
	</g>
</g>
<g>
	<path style="fill:#4A9ED5;" d="M157.367,576.752c0-0.3,0.004-0.6-0.001-0.9c-0.014-0.876-0.064-1.747-0.18-2.611
		C157.129,574.372,157.193,575.541,157.367,576.752z"/>
	<path style="fill:#4A9ED5;" d="M130.821,586.666c0,0-0.018,0-0.027,0c-3.545-0.002-7.09,0-10.636-0.003
		c-0.332,0-0.665-0.019-0.995-0.053c-0.96-0.097-1.52-0.618-1.673-1.575c-0.054-0.338-0.069-0.685-0.069-1.028
		c-0.004-8.063-0.002-16.127-0.006-24.19c0-0.331-0.018-0.665-0.072-0.991c-0.087-0.534-0.393-0.84-0.939-0.874
		c-0.309-0.019-0.619-0.029-0.93-0.029c-0.316,0-0.631,0.01-0.946,0.03c-0.545,0.035-0.87,0.378-0.943,0.92
		c-0.044,0.328-0.063,0.662-0.063,0.993c-0.004,4.284-0.003,8.568-0.003,12.852c0,3.964-0.006,7.928,0.006,11.892
		c0.002,0.65,0.05,1.304,0.137,1.948c0.256,1.885,1.337,3.094,3.189,3.506c0.702,0.156,1.437,0.22,2.156,0.224
		c1.894,0.01,3.787,0.013,5.681,0.013c2.083,0,4.166-0.004,6.248-0.006c0.269,0,0.54-0.026,0.806-0.066
		c0.424-0.063,0.724-0.313,0.752-0.741c0.012-0.184,0.016-0.369,0.023-0.554c-0.394-0.701-0.723-1.452-0.994-2.245
		c-0.214-0.019-0.43-0.024-0.646-0.024C130.86,586.666,130.84,586.666,130.821,586.666z"/>
	<path style="fill:#4A9ED5;" d="M132.504,587.543c-0.046-0.551-0.35-0.791-0.898-0.85c-0.026-0.003-0.054-0.001-0.08-0.003
		c0.271,0.793,0.601,1.544,0.994,2.245C132.537,588.47,132.543,588.004,132.504,587.543z"/>
	<path style="fill:none;" d="M169.011,579.366c1.162,0.328,2.33,0.488,3.499,0.488c1.141,0,2.283-0.152,3.419-0.449
		c1.405-0.366,2.453-1.222,2.838-2.67c0.212-0.799,0.259-1.642,0.38-2.466c-0.022-0.004-0.044-0.008-0.066-0.012
		c-0.02-0.43-0.02-0.862-0.064-1.289c-0.178-1.716-0.964-3.015-2.589-3.735c-0.842-0.373-1.729-0.552-2.639-0.616
		c-0.472-0.033-0.944-0.054-1.413-0.054c-1.161,0-2.31,0.13-3.428,0.536c-1.502,0.545-2.498,1.565-2.866,3.148
		c-0.254,1.093-0.224,2.201-0.118,3.303C166.15,577.473,167.103,578.827,169.011,579.366z"/>
	<path style="fill:none;" d="M149.644,569.112c-1.026-0.255-2.06-0.372-3.094-0.372c-0.981,0-1.964,0.105-2.944,0.298
		c-1.246,0.244-2.356,0.774-3.151,1.82c-0.701,0.922-1.011,1.996-1.088,3.122c-0.091,1.336-0.095,2.679-0.136,4.019
		c0.013,0,0.026,0.001,0.039,0.001c0,0.726-0.03,1.454,0.008,2.178c0.049,0.931,0.081,1.872,0.249,2.785
		c0.333,1.81,1.343,3.127,3.13,3.724c1.228,0.41,2.469,0.592,3.716,0.592c1.051,0,2.106-0.13,3.163-0.361
		c1.416-0.311,2.57-1.026,3.278-2.343c0.449-0.837,0.691-1.746,0.721-2.683c0.062-1.979,0.077-3.96,0.076-5.94
		c0-0.822-0.056-1.647-0.15-2.464C153.196,571.173,151.898,569.671,149.644,569.112z"/>
	<path style="fill:none;" d="M177.687,590.521c-0.761-0.218-1.556-0.384-2.344-0.429c-2.504-0.142-5.012-0.217-7.519-0.314
		c-0.015-0.001-0.031-0.001-0.047-0.001c-0.095,0-0.199,0.012-0.268,0.06c-0.371,0.258-0.771,0.494-1.084,0.813
		c-0.947,0.964-1.179,2.192-1.105,3.478c0.12,2.109,0.973,3.114,3.06,3.471c1.339,0.229,2.708,0.284,4.064,0.417
		c0.003-0.032,0.006-0.064,0.01-0.096c0.023,0,0.047,0,0.07,0c1.466,0,2.932-0.017,4.365-0.381c1.373-0.349,2.417-1.089,2.677-2.561
		c0.125-0.702,0.118-1.444,0.055-2.158C179.517,591.631,178.817,590.844,177.687,590.521z"/>
	<path style="fill:#4A9ED5;" d="M179.893,587.651c-1.335-0.502-2.729-0.742-4.143-0.813c-1.843-0.093-3.691-0.076-5.534-0.174
		c-1.062-0.056-2.129-0.186-3.172-0.391c-0.705-0.138-0.984-0.6-0.993-1.242c-0.011-0.761,0.283-1.257,0.999-1.449
		c0.683-0.183,1.392-0.319,2.096-0.364c1.251-0.08,2.509-0.072,3.763-0.107c2.052-0.057,4.072-0.28,5.946-1.212
		c1.45-0.72,2.533-1.795,3.205-3.279c0.666-1.47,0.801-3.029,0.799-4.612c-0.001-1.303-0.137-2.594-0.752-3.76
		c-0.379-0.72-0.892-1.369-1.396-2.126c0.271-0.254,0.631-0.572,0.97-0.912c0.503-0.506,1.007-1.013,1.482-1.545
		c0.458-0.512,0.446-0.885-0.013-1.394c-0.23-0.255-0.479-0.497-0.738-0.723c-0.339-0.295-0.602-0.444-0.867-0.444
		c-0.256,0-0.515,0.139-0.847,0.42c-0.807,0.684-1.617,1.37-2.366,2.115c-0.287,0.286-0.538,0.43-0.847,0.43
		c-0.168,0-0.353-0.043-0.57-0.128c-1.386-0.546-2.837-0.717-4.309-0.717c-0.316,0-0.633,0.008-0.951,0.022
		c-1.786,0.077-3.517,0.392-5.13,1.191c-2.085,1.034-3.478,2.652-4.05,4.929c-0.142,0.564-0.219,1.13-0.268,1.697
		c-0.103,1.177-0.035,2.357,0.177,3.538c0.024,0.131,0.056,0.257,0.085,0.385c0.386,1.708,1.252,3.124,2.759,4.126
		c0.324,0.216,0.681,0.383,1.083,0.607c-1.772,0.366-3.387,0.932-3.85,2.878c-0.438,1.844,0.009,3.395,1.883,4.3
		c-0.152,0.109-0.26,0.187-0.368,0.265c-0.94,0.684-1.638,1.554-2.013,2.662c-0.533,1.574-0.514,3.169-0.103,4.759
		c0.345,1.335,1.144,2.344,2.337,3.045c0.934,0.549,1.947,0.872,2.999,1.083c1.702,0.342,3.419,0.455,5.142,0.455
		c0.65,0,1.3-0.016,1.951-0.042c1.746-0.069,3.482-0.248,5.144-0.854c1.792-0.654,3.08-1.808,3.624-3.683
		c0.438-1.511,0.488-3.051,0.287-4.605C183.066,589.844,181.908,588.408,179.893,587.651z M165.964,575.55
		c-0.106-1.102-0.137-2.21,0.118-3.303c0.368-1.583,1.364-2.603,2.866-3.148c1.118-0.406,2.267-0.536,3.428-0.536
		c0.469,0,0.941,0.021,1.413,0.054c0.91,0.064,1.797,0.242,2.639,0.616c1.625,0.72,2.411,2.019,2.589,3.735
		c0.044,0.427,0.044,0.859,0.064,1.289c0.022,0.004,0.044,0.008,0.066,0.012c-0.122,0.823-0.168,1.667-0.38,2.466
		c-0.385,1.448-1.434,2.304-2.838,2.67c-1.137,0.296-2.278,0.449-3.419,0.449c-1.169,0-2.337-0.16-3.499-0.488
		C167.103,578.827,166.15,577.473,165.964,575.55z M179.567,594.977c-0.26,1.472-1.304,2.213-2.677,2.561
		c-1.434,0.364-2.899,0.381-4.365,0.381c-0.023,0-0.046,0-0.07,0c-0.003,0.032-0.006,0.064-0.01,0.096
		c-1.355-0.133-2.725-0.188-4.064-0.417c-2.087-0.357-2.94-1.361-3.06-3.471c-0.074-1.286,0.158-2.514,1.105-3.478
		c0.313-0.319,0.713-0.555,1.084-0.813c0.069-0.048,0.173-0.06,0.268-0.06c0.016,0,0.032,0,0.047,0.001
		c2.506,0.097,5.014,0.172,7.519,0.314c0.788,0.045,1.583,0.211,2.344,0.429c1.13,0.323,1.83,1.11,1.935,2.298
		C179.685,593.532,179.691,594.275,179.567,594.977z"/>
	<path style="fill:#4A9ED5;" d="M157.367,576.752c-0.174-1.211-0.237-2.38-0.18-3.511c-0.073-0.545-0.167-1.089-0.312-1.627
		c-0.781-2.886-2.565-4.839-5.431-5.699c-1.628-0.488-3.264-0.729-4.902-0.729c-1.64,0-3.28,0.242-4.913,0.72
		c-1.978,0.579-3.569,1.732-4.644,3.527c-0.878,1.466-1.318,3.08-1.377,4.766c-0.081,2.311-0.092,4.626-0.044,6.938
		c0.016,0.777,0.129,1.558,0.279,2.328c0.047,0.244,0.083,0.491,0.14,0.731c0.304,1.267,0.821,2.341,1.522,3.239
		c1.004,1.286,2.398,2.204,4.19,2.724c1.535,0.446,3.083,0.645,4.64,0.645c1.166,0,2.336-0.112,3.507-0.315
		c1.645-0.285,3.168-0.888,4.456-1.984c1.862-1.585,2.678-3.702,2.92-6.053c0.152-1.477,0.143-2.971,0.207-4.458
		c-0.019-0.001-0.037-0.002-0.055-0.002C157.368,577.58,157.366,577.166,157.367,576.752z M153.534,581.892
		c-0.03,0.936-0.271,1.846-0.721,2.683c-0.708,1.317-1.862,2.032-3.278,2.343c-1.056,0.232-2.111,0.361-3.163,0.361
		c-1.247,0-2.488-0.182-3.716-0.592c-1.787-0.597-2.797-1.913-3.13-3.724c-0.168-0.913-0.2-1.854-0.249-2.785
		c-0.038-0.724-0.008-1.452-0.008-2.178c-0.013,0-0.026-0.001-0.039-0.001c0.041-1.34,0.045-2.682,0.136-4.019
		c0.077-1.127,0.387-2.201,1.088-3.122c0.795-1.046,1.906-1.575,3.151-1.82c0.98-0.192,1.963-0.298,2.944-0.298
		c1.034,0,2.067,0.117,3.094,0.372c2.254,0.56,3.552,2.061,3.816,4.376c0.094,0.817,0.149,1.642,0.15,2.464
		C153.611,577.932,153.597,579.913,153.534,581.892z"/>
	<path style="fill:#E0E0E0;" d="M229.877,550.663c-1.129-7.344-7.213-12.961-14.571-12.961c-5.983,0-11.124,3.717-13.447,9.053
		c-3.433,0.524-6.565,2.013-9.137,4.191c2.987,0.958,5.162,3.776,5.167,7.096c0.001,0.643-0.088,1.265-0.246,1.861
		c0.801,0.846,1.625,1.669,2.467,2.473c0.611-0.36,1.248-0.692,1.935-0.957c2.759-1.066,5.45-1.19,7.235-1.19l0.212,0.001
		c2.419,0.015,4.426,0.317,6.317,0.95c2.886,0.967,5.116,2.656,6.627,5.019c1.145,1.791,1.831,3.865,2.039,6.164
		c0.099,1.096,0.114,2.142,0.116,3.019c0.007,3.477,0.004,6.955,0.001,10.434c0.38,0.028,0.761,0.047,1.148,0.047
		c9.462,0,17.132-8.002,17.132-17.874C242.871,559.609,237.335,552.596,229.877,550.663z"/>
	<g>
		<path style="fill:#4A9ED5;" d="M219.59,585.753c0.003-3.454,0.006-6.907-0.001-10.361c-0.002-0.86-0.019-1.724-0.096-2.579
			c-0.126-1.397-0.508-2.726-1.272-3.922c-0.957-1.497-2.346-2.416-4.002-2.971c-1.544-0.517-3.142-0.681-4.759-0.691
			c-0.061,0-0.122-0.001-0.182-0.001c-1.853,0-3.682,0.177-5.432,0.853c-1.737,0.671-3.102,1.776-3.973,3.447
			c-0.701,1.346-1.026,2.799-1.036,4.297c-0.022,3.695-0.021,7.389-0.018,11.084c0.001,1.339,0.002,2.678,0.002,4.018
			c0,0.207,0.032,0.417,0.077,0.62c0.083,0.373,0.328,0.642,0.701,0.663c0.375,0.021,0.751,0.032,1.127,0.032
			c0.334,0,0.669-0.009,1.002-0.026c0.405-0.021,0.673-0.305,0.735-0.713c0.053-0.351,0.077-0.709,0.078-1.064
			c0.002-0.9,0.001-1.8,0.001-2.7c0.001-1.475,0.002-2.951,0.002-4.426c0-2.166-0.009-4.332,0.006-6.499
			c0.004-0.638,0.035-1.281,0.121-1.912c0.252-1.849,1.223-3.144,3.052-3.674c1.16-0.336,2.326-0.501,3.493-0.501
			c1.131,0,2.262,0.155,3.388,0.459c1.664,0.449,2.705,1.563,3.002,3.283c0.123,0.711,0.192,1.44,0.194,2.162
			c0.014,3.707,0.009,7.415,0.009,11.123c0,0.908,0.001,1.816,0.002,2.724c0,0.331,0.027,0.663,0.07,0.991
			c0.052,0.392,0.288,0.706,0.672,0.733c0.384,0.026,0.771,0.039,1.158,0.039c0.373,0,0.746-0.012,1.117-0.034
			c0.383-0.023,0.639-0.317,0.69-0.714c0.045-0.352,0.07-0.71,0.07-1.065C219.592,587.535,219.59,586.644,219.59,585.753z"/>
		<path style="fill:#4A9ED5;" d="M191.388,565.776c-0.284-0.017-0.569-0.025-0.855-0.025c-0.352,0-0.705,0.012-1.056,0.031
			c-0.437,0.025-0.733,0.295-0.803,0.736c-0.053,0.338-0.067,0.685-0.068,1.028c-0.004,3.004-0.003,6.008-0.002,9.011
			c0,0.479,0,0.958,0,1.436c0,3.458,0,6.916,0.001,10.374c0,0.295,0.002,0.591,0.028,0.885c0.052,0.613,0.292,0.924,0.898,0.976
			c0.271,0.023,0.544,0.033,0.818,0.033c0.388,0,0.777-0.019,1.164-0.044c0.403-0.027,0.678-0.298,0.74-0.709
			c0.051-0.338,0.075-0.684,0.075-1.026c0.001-2.461,0-4.921,0-7.382c0.001-4.541,0.002-9.083,0.001-13.624
			c0-0.294,0-0.594-0.051-0.882C192.182,566.059,191.934,565.809,191.388,565.776z"/>
	</g>
	<path style="fill:#4A9ED5;" d="M190.47,560.433c0.014,0,0.027,0,0.041,0c1.298-0.02,2.38-1.104,2.378-2.382
		c-0.002-1.357-1.082-2.457-2.407-2.457c-0.004,0-0.008,0-0.012,0c-1.349,0.007-2.454,1.099-2.457,2.43
		C188.011,559.362,189.108,560.433,190.47,560.433z"/>
</g>
<g>
	<path style="fill:#4A9ED5;" d="M147.093,473.709c-0.183,0-0.364,0-0.547,0c-3.812,0-7.626,0.003-11.439,0.003
		c-3.06,0-6.12-0.002-9.18-0.01c-0.041,0-0.08,0-0.119,0c-2.311,0-2.364,0.197-2.26,2.71c0.001,0.023,0.002,0.047,0.005,0.07
		c0.076,0.591,0.415,0.92,1.003,0.969c0.246,0.021,0.494,0.023,0.741,0.023c0.097,0,0.193,0,0.29,0c0.005,0,0.01,0,0.016,0
		c1.523,0.001,3.047,0.001,4.586,0.001c1.354,0,2.719,0,4.108,0c0,0.402,0,0.724,0,1.045c0,8.964-0.001,17.929,0.003,26.893
		c0.001,1.463,0.333,1.796,1.734,1.818c0.103,0.002,0.2,0.003,0.294,0.003c1.77,0,1.99-0.325,1.99-2.343c0-8.825,0-17.65,0-26.474
		c0-0.294,0-0.587,0-0.942c0.342,0,0.593,0,0.845,0c1.585,0,3.171,0.001,4.756,0.001c1.139,0,2.278,0,3.417-0.002
		c1.471-0.002,1.743-0.277,1.759-1.754C149.115,473.958,148.868,473.709,147.093,473.709z"/>
	<path style="fill:#4A9ED5;" d="M162.32,482.612c-0.045-0.637-0.388-1.005-1.033-1.124c-0.394-0.073-0.788-0.12-1.18-0.151
		c-0.322-0.026-0.643-0.043-0.964-0.043c-0.996,0-1.988,0.121-2.977,0.343c-1.293,0.289-2.458,0.839-3.424,1.765
		c-1.691,1.618-2.286,3.7-2.346,5.936c-0.074,2.721-0.018,5.445-0.018,8.167c0,0-0.012,0-0.018,0c0,0.954-0.001,1.908,0,2.862
		c0.003,1.862-0.007,3.723,0.017,5.585c0.012,0.886,0.347,1.201,1.231,1.269c0.133,0.01,0.267,0.011,0.401,0.011
		c0.025,0,0.049,0,0.074,0c0.027,0,0.055,0,0.083,0c0.039,0,0.078,0,0.115,0c1.729,0,1.928-0.23,1.929-2.029
		c0.003-4.677-0.001-9.355,0.004-14.032c0.001-0.674,0.024-1.35,0.073-2.022c0.195-2.701,1.567-4.047,4.273-4.148
		c0.151-0.006,0.304-0.008,0.456-0.008c0.44,0,0.88,0.025,1.32,0.056c0.243,0.017,0.487,0.035,0.729,0.056
		c0.102,0.009,0.196,0.014,0.284,0.014c0.67,0,0.952-0.274,1.002-1.044C162.384,483.589,162.354,483.098,162.32,482.612z"/>
	<path style="fill:#4A9ED5;" d="M187.704,481.919c-0.414-0.153-0.812-0.227-1.183-0.227c-1.18,0-2.095,0.747-2.419,2.089
		c-1.094,4.538-2.174,9.079-3.272,13.616c-0.388,1.602-0.757,3.211-1.234,4.786c-0.429,1.415-1.196,1.939-2.535,1.961
		c-0.039,0.001-0.078,0.001-0.115,0.001c-1.468,0-2.205-0.489-2.744-1.845c-0.196-0.495-0.343-1.011-0.484-1.526
		c-1.583-5.778-3.156-11.558-4.742-17.335c-0.311-1.133-0.717-1.524-1.733-1.61c-0.129-0.011-0.264-0.018-0.414-0.02
		c-0.108-0.001-0.217-0.003-0.326-0.003c-0.171,0-0.342,0.004-0.512,0.016c-0.893,0.066-1.157,0.41-0.987,1.272
		c0.036,0.182,0.081,0.363,0.13,0.542c0.366,1.343,0.735,2.685,1.101,4.029c0.616,2.265,1.229,4.53,1.855,6.792
		c0.842,3.043,1.675,6.088,2.58,9.112c0.384,1.281,1.024,2.469,2.244,3.173c0.899,0.519,1.818,0.747,2.772,0.747
		c0.862,0,1.751-0.186,2.676-0.513c-0.377,1.017-0.674,1.944-1.058,2.833c-1.147,2.66-2.926,4.559-5.996,4.875
		c-1.818,0.187-1.623,0.677-1.303,2.072c0.251,1.096,0.535,1.402,1.485,1.402c0.128,0,0.269-0.006,0.424-0.016
		c2.681-0.173,4.93-1.24,6.701-3.278c1.686-1.939,2.697-4.233,3.324-6.681c1.86-7.262,3.658-14.54,5.48-21.812
		c0.26-1.036,0.545-2.066,0.77-3.109C188.301,482.748,188.408,482.18,187.704,481.919z"/>
	<path style="fill:#E0E0E0;" d="M236.507,468.231c-1.129-7.344-7.213-12.961-14.571-12.961c-5.983,0-11.124,3.717-13.447,9.053
		c-2.399,0.367-8.043,2.16-9.98,7.597c2.488-0.051,7.456-0.104,7.188-0.125c0.883,0.301,5.248-1.83,6.595-1.83
		c1.258,0,2.511,0.354,3.625,1.025c2.072,1.248,2.869,3.561,2.924,5.31c0.005,0.169,0.01,0.337,0.014,0.506h0.092
		c1.079,0,2.158,0.001,3.236,0.003c4.058,0.01,6.595,2.549,6.621,6.618v0.342c-0.019,4.178-2.521,6.679-6.694,6.689
		c-1.053,0.003-2.106,0.003-3.159,0.003h-0.085c-0.002,2.602-0.002,5.262,0.015,7.877c0.001,0.221,0.008,0.425,0.021,0.611
		c1.202-0.062,2.406-0.217,3.466-0.37c0.532-0.076,0.977-0.112,1.399-0.112c2.561,0,5.184,1.517,5.83,4.854h0.912
		c0.612,0.069,1.232,0.11,1.862,0.11c9.462,0,17.132-8.002,17.132-17.874C249.502,477.177,243.966,470.164,236.507,468.231z"/>
	<path style="fill:#4A9ED5;" d="M201.326,487.167c0-0.647,0-8.733,0-9.381c0-0.768-0.003-1.537-0.021-2.305
		c-0.009-0.407-0.171-0.688-0.44-0.868c-0.148-0.099-0.319-0.176-0.536-0.207c-0.275-0.039-0.557-0.036-0.836-0.038
		c-0.029,0-0.058,0-0.086,0c-1.717,0-1.926,0.232-1.926,1.993c-0.001,4.46,0,16.359,0,20.82c0,2.666-0.001,5.331,0,7.997
		c0,1.835,0.187,2.055,1.964,2.055c0.041,0,0.082,0,0.125,0c1.483-0.008,1.753-0.266,1.755-1.747
		c0.003-1.672,0.001-3.344,0.001-5.016c0-1.961,0.001-3.922,0.001-5.883C201.326,492.114,201.326,489.641,201.326,487.167z"/>
	<path style="fill:#4A9ED5;" d="M223.765,503.466c-0.192,0-0.419,0.023-0.687,0.061c-1.697,0.244-3.416,0.442-5.126,0.448
		c-0.006,0-0.013,0-0.013,0c-0.902,0-1.649-0.234-2.253-0.655c-0.744-0.518-1.268-1.326-1.532-2.398
		c-0.203-0.825-0.269-1.7-0.274-2.554c-0.027-4.052-0.013-8.104-0.011-12.156c0-0.227,0.019-0.453,0.032-0.755
		c0.291,0,0.541,0,0.791,0c0.037,0,0.073,0,0.109,0c1.383,0,2.766,0.001,4.149,0.001c1.049,0,2.098-0.001,3.147-0.003
		c1.445-0.003,1.7-0.266,1.706-1.711c0-0.093,0.001-0.186,0-0.279c-0.008-1.351-0.299-1.654-1.633-1.658
		c-1.075-0.003-2.149-0.003-3.224-0.003c-1.407,0-2.813,0.001-4.22,0.001c-0.034,0-0.067,0-0.101,0c-0.244,0-0.488,0-0.758,0
		c0-1.859,0.031-3.606-0.023-5.35c-0.013-0.41-0.203-1-0.506-1.183c-0.35-0.211-0.707-0.307-1.044-0.307
		c-0.903,0-1.665,0.693-1.765,1.754c-0.14,1.482-0.322,2.961-0.445,4.444c-0.043,0.52-0.285,0.708-0.764,0.759
		c-0.67,0.071-1.335,0.186-2.003,0.277c-0.468,0.064-0.8,0.141-1.05,0.259c-0.538,0.253-0.65,0.708-0.611,1.734
		c0.028,0.746,0.178,1.075,0.671,1.197c0.158,0.039,0.349,0.058,0.584,0.062c0.389,0.006,0.778,0.008,1.172,0.008
		c0.614,0,1.24-0.005,1.897-0.005c0,0.323,0,0.572,0,0.82c0,3.936-0.021,7.871,0.013,11.806c0.01,1.135,0.089,2.284,0.286,3.401
		c0.123,0.7,0.334,1.337,0.595,1.931c0.983,2.238,2.885,3.698,5.427,4.084c0.88,0.134,1.758,0.2,2.634,0.2
		c1.323,0,2.641-0.153,3.952-0.459c1.564-0.366,1.913-0.825,1.862-2.43C224.716,503.791,224.493,503.466,223.765,503.466z"/>
</g>
<g>
	<path style="fill:#4A9ED5;" d="M133.404,326.644c-1.482-1.646-3.375-2.726-5.211-3.888c-2.628-1.664-5.274-3.301-7.884-4.995
		c-1.055-0.684-1.888-1.59-2.201-2.878c-0.493-2.028,0.232-3.762,1.92-4.455c0.457-0.188,0.945-0.33,1.432-0.412
		c1.113-0.188,2.226-0.273,3.336-0.273c1.553,0,3.102,0.168,4.644,0.46c1.014,0.192,2.004,0.516,2.997,0.808
		c0.275,0.081,0.503,0.123,0.692,0.123c0.53,0,0.745-0.339,0.782-1.127c0.014-0.299,0.016-0.599,0.011-0.899
		c-0.02-1.148-0.221-1.457-1.32-1.851c-2.552-0.913-5.132-1.352-7.733-1.352c-1.851,0-3.713,0.222-5.582,0.654
		c-1.6,0.37-3.035,1.124-4.069,2.465c-1.688,2.19-1.825,6.251-0.347,8.811c0.839,1.453,1.982,2.608,3.384,3.491
		c3.003,1.893,6.045,3.725,9.045,5.623c0.923,0.584,1.827,1.231,2.624,1.973c1.339,1.249,1.691,2.855,1.269,4.61
		c-0.399,1.654-1.693,2.318-3.184,2.727c-0.039,0.01-0.079,0.015-0.118,0.022c-1.421,0.285-2.842,0.41-4.261,0.41
		c-1.737,0-3.472-0.187-5.202-0.497c-1.21-0.216-2.389-0.611-3.582-0.928c-0.183-0.049-0.344-0.074-0.484-0.074
		c-0.456,0-0.698,0.266-0.793,0.865c-0.06,0.372-0.049,0.756-0.047,1.135c0.006,1.191,0.254,1.546,1.368,1.956
		c2.812,1.035,5.738,1.329,8.708,1.34c0.083,0.001,0.166,0.001,0.249,0.001c1.961,0,3.901-0.178,5.792-0.737
		c1.656-0.489,3.162-1.244,4.256-2.631c1.076-1.363,1.573-3.189,1.533-5.024c-0.013-0.183-0.018-0.376-0.03-0.56
		C135.249,329.726,134.579,327.951,133.404,326.644z"/>
	<path style="fill:#4A9ED5;" d="M147.433,340.002c1.544,0.355,3.1,0.51,4.657,0.51c1.146,0,2.294-0.084,3.44-0.233
		c1.396-0.182,2.769-0.562,4.141-0.901c0.629-0.156,1.138-0.526,1.181-1.259c0.028-0.478,0.033-0.961-0.004-1.437
		c-0.052-0.648-0.32-0.931-0.885-0.931c-0.069,0-0.143,0.004-0.222,0.013c-0.315,0.034-0.626,0.121-0.936,0.197
		c-2.159,0.53-4.332,0.875-6.528,0.875c-0.944,0-1.893-0.064-2.847-0.204c-2.114-0.311-3.933-1.099-4.787-3.258
		c-0.587-1.483-0.529-3.041-0.501-4.655c0.284,0,0.518,0,0.752,0c0.329,0,0.656,0,0.985,0c1.984,0,3.969,0,5.954,0
		c2.682,0,5.364-0.001,8.045-0.003c1.144-0.001,1.562-0.326,1.687-1.341c0.249-2.031,0.302-4.065-0.109-6.081
		c-0.646-3.166-2.388-5.434-5.491-6.542c-1.528-0.546-3.085-0.761-4.659-0.761c-0.847,0-1.699,0.062-2.553,0.169
		c-1.783,0.223-3.47,0.739-4.929,1.836c-2.256,1.696-3.262,4.1-3.415,6.786c-0.163,2.869-0.2,5.764-0.013,8.63
		c0.008,0.13,0.019,0.26,0.024,0.39C140.748,336.142,142.981,338.978,147.433,340.002z M144.652,320.785
		c0.713-1.745,2.102-2.665,3.867-3.062c0.855-0.193,1.715-0.289,2.576-0.289c0.845,0,1.691,0.093,2.534,0.279
		c2.743,0.606,4.238,2.425,4.438,5.404c0.05,0.753,0.007,1.512,0.007,2.334c-4.658,0-9.265,0-13.933,0
		C144.127,323.86,144.038,322.287,144.652,320.785z"/>
	<path style="fill:#4A9ED5;" d="M140.421,331.801c-0.004-0.13-0.016-0.26-0.024-0.39c0.008,0.115,0.01,0.231,0.018,0.346
		C140.416,331.773,140.42,331.786,140.421,331.801z"/>
	<path style="fill:#FFFFFF;" d="M135.427,332.096c-0.004-0.187-0.014-0.374-0.03-0.56
		C135.409,331.721,135.414,331.913,135.427,332.096z"/>
	<path style="fill:#4A9ED5;" d="M184.997,337.234c-0.035-0.77-0.197-1.121-0.615-1.186c0.173,0.552,0.384,1.087,0.625,1.604
		C185.005,337.518,185.004,337.388,184.997,337.234z"/>
	<path style="fill:#4A9ED5;" d="M210.217,324.203c0-2.577,0.002-5.154-0.003-7.731c0-0.338-0.028-0.678-0.065-1.015
		c-0.059-0.526-0.362-0.856-0.889-0.883c-0.325-0.017-0.651-0.026-0.978-0.026c-0.332,0-0.665,0.009-0.995,0.029
		c-0.489,0.029-0.814,0.319-0.876,0.828c-0.045,0.375-0.081,0.754-0.082,1.132c-0.005,4.595-0.002,9.189-0.004,13.784
		c0,0.519,0.001,1.04-0.029,1.558c-0.146,2.483-1.326,4.047-3.554,4.59c-1.082,0.264-2.17,0.394-3.259,0.394
		c-1.09,0-2.18-0.131-3.265-0.39c-1.98-0.473-3.198-1.731-3.525-3.762c-0.117-0.725-0.153-1.471-0.155-2.207
		c-0.013-4.655-0.006-9.309-0.007-13.964c0-0.3,0.005-0.6-0.017-0.898c-0.052-0.699-0.347-1.03-1.037-1.077
		c-0.28-0.019-0.562-0.028-0.845-0.028c-0.317,0-0.634,0.012-0.949,0.034c-0.172,0.012-0.315,0.05-0.439,0.105
		c-0.328,0.144-0.5,0.433-0.545,0.893c-0.032,0.317-0.025,0.638-0.025,0.958c0,1.367,0.002,2.734,0.001,4.1
		c-0.002,3.148-0.006,6.296,0.003,9.444c0.002,0.917,0.046,1.836,0.127,2.749c0.019,0.21,0.067,0.407,0.1,0.611
		c0.17,1.051,0.507,2.029,1.024,2.886c1.04,1.724,2.725,2.997,4.835,3.575c1.547,0.423,3.101,0.616,4.661,0.616
		c1.232,0,2.467-0.12,3.703-0.343c1.878-0.339,3.59-1.067,4.915-2.516c1.37-1.499,2.002-3.327,2.071-5.297
		c0.095-2.713,0.023-5.431,0.023-8.147C210.164,324.203,210.19,324.203,210.217,324.203z"/>
	<path style="fill:#4A9ED5;" d="M184.249,336.02c-0.188,0-0.421,0.045-0.708,0.129c-1.591,0.465-3.194,0.674-4.812,0.674
		c-0.901,0-1.806-0.065-2.716-0.187c-2.996-0.401-4.648-1.911-5.087-4.913c-0.216-1.473-0.173-2.985-0.247-4.479
		c0.047-0.001,0.094-0.002,0.141-0.003c0-1.318-0.057-2.638,0.012-3.952c0.143-2.727,1.591-4.576,4.066-5.208
		c1.139-0.291,2.286-0.429,3.436-0.429c1.03,0,2.063,0.111,3.094,0.321c0.642,0.131,1.263,0.363,1.901,0.517
		c0.128,0.031,0.239,0.043,0.343,0.046c0.015,0.001,0.035,0.007,0.049,0.007c0.455,0,0.683-0.277,0.748-0.866
		c0.033-0.297,0.021-0.599,0.021-0.898c-0.001-1.005-0.142-1.452-0.753-1.786c-0.197-0.108-0.441-0.204-0.747-0.303
		c-1.529-0.495-3.071-0.717-4.62-0.717c-1.277,0-2.557,0.151-3.837,0.426c-4.567,0.98-7.198,3.971-7.541,8.66
		c-0.157,2.147-0.136,4.311-0.105,6.466c0.018,1.231,0.119,2.479,0.353,3.686c0.546,2.815,2.049,4.977,4.751,6.105
		c2.023,0.844,4.083,1.214,6.161,1.214c1.637,0,3.285-0.229,4.935-0.638c1.645-0.407,1.945-0.757,1.92-2.239
		c-0.241-0.518-0.452-1.052-0.625-1.604C184.337,336.041,184.302,336.02,184.249,336.02z"/>
	<path style="fill:#4A9ED5;" d="M234.562,309.036c1.354-0.022,2.448-1.154,2.437-2.523c-0.011-1.367-1.123-2.492-2.459-2.492h-0.006
		c-1.429,0.004-2.579,1.132-2.575,2.527c0.004,1.384,1.145,2.488,2.56,2.488C234.533,309.037,234.548,309.037,234.562,309.036z"/>
	<path style="fill:#E0E0E0;" d="M301.704,315.989c0-8.38-5.535-15.393-12.994-17.327c-1.129-7.344-7.213-12.961-14.571-12.961
		c-5.983,0-11.124,3.717-13.447,9.053c-5.197,0.794-9.7,3.797-12.616,8.062c5.526,0.28,5.984,5.128,5.985,6.648v0.05l2.948,0.001
		c0.373,0,0.781,0.006,1.235,0.042c0.914,0.074,1.734,0.313,2.464,0.67c1.399-0.698,2.811-0.715,3.406-0.715
		c0.13,0,0.268,0.002,0.413,0.005c3.643,0.085,5.979,1.908,6.94,5.418c0.983,3.587,1.963,7.174,2.944,10.761
		c0.321-1.332,0.642-2.664,0.962-3.996c0.536-2.23,1.073-4.459,1.612-6.688c0.832-3.433,3.138-5.328,6.671-5.48
		c0.197-0.009,0.396-0.013,0.593-0.013c0.274,0,0.549,0.008,0.822,0.025c2.574,0.155,3.998,1.373,4.739,2.367
		c0.74,0.992,1.499,2.697,0.917,5.184c-0.389,1.664-0.807,3.33-1.211,4.942l-0.106,0.421l-1.239,4.953
		c-0.52,2.081-1.049,4.195-1.582,6.318C295.099,332.685,301.704,325.147,301.704,315.989z"/>
	<path style="fill:#FFFFFF;" d="M244.972,318.17c0.053,0.271,0.133,0.531,0.197,0.798c0-0.233,0-0.468,0-0.798
		C245.1,318.17,245.039,318.17,244.972,318.17z"/>
	<g>
		<path style="fill:#4A9ED5;" d="M236.43,316.48c0-0.319-0.003-0.64-0.036-0.958c-0.033-0.326-0.159-0.571-0.362-0.737
			c-0.152-0.124-0.343-0.207-0.595-0.221c-0.353-0.019-0.708-0.034-1.062-0.034c-0.185,0-0.369,0.004-0.553,0.014
			c-0.424,0.022-0.708,0.115-0.903,0.295c-0.216,0.199-0.321,0.505-0.346,0.971c-0.012,0.219-0.009,0.439-0.009,0.659
			c0,0.849,0,1.699,0,2.548c0,6.323,0,12.647,0,18.97c0,1.77,0.221,1.999,1.968,1.999c0.009,0,0.018,0,0.027,0
			c1.633-0.002,1.869-0.231,1.871-1.868c0.004-3.616,0.001-7.233,0.001-10.849c0-2.516,0-5.032-0.001-7.547
			C236.43,318.641,236.43,317.561,236.43,316.48z"/>
		<path style="fill:#4A9ED5;" d="M227.708,314.6c-0.164-0.216-0.406-0.362-0.737-0.394c-0.868-0.085-1.741-0.184-2.611-0.184
			c-0.082,0-0.165,0.001-0.247,0.003c-1.757,0.04-3.454,0.399-4.937,1.409c-2.122,1.447-3.021,3.605-3.128,6.047
			c-0.125,2.831-0.029,5.672-0.029,8.508c-0.026,0-0.052,0-0.078,0c0,0.859-0.004,1.718,0,2.578
			c0.011,2.078,0.006,4.155,0.048,6.232c0.017,0.802,0.349,1.089,1.151,1.17c0.198,0.02,0.399,0.015,0.599,0.017
			c0.045,0,0.09,0,0.134,0c1.756,0,1.958-0.246,1.959-2.087c0.006-5.175-0.013-10.351,0.045-15.525c0.01-0.872,0.232-1.791,0.57-2.6
			c0.654-1.565,2.085-2.004,3.628-2.071c0.161-0.007,0.322-0.01,0.483-0.01c0.814,0,1.631,0.077,2.446,0.122
			c0.029,0.002,0.058,0.002,0.085,0.002c0.193,0,0.344-0.05,0.473-0.125c0.217-0.125,0.353-0.338,0.378-0.654
			c0.047-0.594,0.04-1.196,0-1.791C227.924,314.988,227.839,314.773,227.708,314.6z"/>
		<g>
			<path style="fill:#4A9ED5;" d="M284.771,314.534c-0.173-0.01-0.348-0.016-0.521-0.016c-0.125,0-0.251,0.003-0.377,0.008
				c-1.32,0.057-1.714,0.366-2.028,1.662c-1.206,4.978-2.394,9.961-3.603,14.938c-0.214,0.878-0.44,1.754-0.679,2.626
				c-0.135,0.491-0.268,0.983-0.419,1.469c-0.294,0.945-0.979,1.534-2.007,1.641c-0.234,0.024-0.453,0.037-0.658,0.037
				c-1.446,0-2.206-0.629-2.764-2.195c-0.08-0.225-0.147-0.455-0.21-0.686c-0.024-0.089-0.049-0.178-0.073-0.267
				c-1.595-5.832-3.187-11.665-4.785-17.496c-0.386-1.407-0.784-1.707-2.235-1.741c-0.104-0.002-0.202-0.004-0.295-0.004
				c-0.091,0-0.161,0.006-0.243,0.009c-1.342,0.043-1.497,0.461-1.063,2.044c0.248,0.904,0.492,1.809,0.738,2.714
				c1.108,4.076,2.206,8.155,3.345,12.222c0.211,0.753,0.431,1.504,0.659,2.253c0.375,1.232,0.778,2.455,1.243,3.652
				c0.678,1.742,2.103,2.644,3.983,2.795c0.232,0.019,0.462,0.029,0.691,0.029c0.826,0,1.632-0.132,2.409-0.48
				c0.054,0.04,0.108,0.08,0.162,0.119c-0.556,1.292-1.06,2.609-1.683,3.868c-0.573,1.158-1.423,2.11-2.548,2.795
				c-1.034,0.629-2.181,0.851-3.353,0.998c-0.849,0.107-1.118,0.445-0.973,1.289c0.064,0.372,0.155,0.743,0.265,1.104
				c0.225,0.739,0.561,1.026,1.29,1.026c0.036,0,0.072-0.001,0.11-0.002c2.507-0.09,4.723-0.908,6.535-2.691
				c2.136-2.102,3.264-4.752,3.99-7.582c0.592-2.305,1.171-4.613,1.752-6.921c1.049-4.17,2.092-8.341,3.138-12.512
				c0.441-1.76,0.885-3.52,1.298-5.286C286.096,314.943,285.811,314.597,284.771,314.534z"/>
			<path style="fill:#4A9ED5;" d="M259.103,336.174c-0.136,0-0.292,0.021-0.471,0.06c-1.525,0.339-3.062,0.532-4.617,0.532
				c-0.302,0-0.605-0.007-0.909-0.022c-1.836-0.09-3.188-1.077-3.693-2.788c-0.195-0.661-0.311-1.37-0.316-2.058
				c-0.013-1.659-0.016-3.319-0.021-4.979c-0.007-2.794-0.009-5.589-0.012-8.383c0-0.111,0.036-0.221,0.061-0.363
				c0.363,0,0.711,0,1.054,0c0.198,0,0.396,0,0.592,0c0.305,0,0.609,0,0.914,0c0.693,0,1.387,0,2.081,0
				c1.298,0,2.597-0.001,3.895-0.009c0.146-0.001,0.273-0.011,0.391-0.026c0.651-0.084,0.889-0.406,0.961-1.193
				c0.038-0.416,0.036-0.84-0.001-1.256c-0.073-0.811-0.363-1.082-1.171-1.147c-0.064-0.005-0.129-0.003-0.193-0.006
				c-0.215-0.011-0.43-0.02-0.645-0.02c-1.301-0.001-2.602-0.001-3.903-0.001c-1.096,0-2.191,0-3.287,0c-0.232,0-0.465,0-0.753,0
				c0-1.737,0.001-3.391,0-5.046c0-1.4-0.208-1.678-1.477-1.678c-0.072,0-0.148,0.001-0.227,0.003
				c-0.04,0.001-0.08,0.003-0.12,0.004c-1.123,0.053-1.381,0.31-1.493,1.426c-0.158,1.588-0.341,3.174-0.496,4.763
				c-0.039,0.402-0.179,0.574-0.616,0.61c-0.009,0.001-0.019,0.003-0.028,0.003c-0.844,0.071-1.681,0.217-2.519,0.347
				c-0.3,0.047-0.528,0.118-0.707,0.219c-0.379,0.213-0.523,0.575-0.54,1.221c-0.005,0.18-0.004,0.36,0.001,0.539
				c0.021,0.682,0.165,1.011,0.591,1.152c0.177,0.058,0.397,0.087,0.684,0.09c0.388,0.004,0.775,0.005,1.167,0.005
				c0.549,0,1.112-0.002,1.689-0.003c0.067,0,0.129,0,0.197,0c0,0.33,0,0.565,0,0.798c0,0.006,0,0.012,0,0.017
				c0,3.955-0.015,7.909,0.01,11.864c0.006,1.015,0.077,2.038,0.224,3.042c0.503,3.438,2.647,5.725,5.882,6.318
				c0.943,0.173,1.885,0.256,2.826,0.256c1.262,0,2.52-0.15,3.771-0.432c1.912-0.431,2.226-0.89,2.05-2.828
				C259.866,336.489,259.637,336.174,259.103,336.174z"/>
		</g>
	</g>
</g>
</svg>
