<?xml version="1.0" encoding="utf-8"?>
<!-- Generator: Adobe Illustrator 18.0.0, SVG Export Plug-In . SVG Version: 6.00 Build 0)  -->
<!DOCTYPE svg PUBLIC "-//W3C//DTD SVG 1.1//EN" "http://www.w3.org/Graphics/SVG/1.1/DTD/svg11.dtd">
<svg version="1.1" id="Layer_1" xmlns="http://www.w3.org/2000/svg" xmlns:xlink="http://www.w3.org/1999/xlink" x="0px" y="0px"
	 viewBox="0 0 87.7 63.7" enable-background="new 0 0 87.7 63.7" xml:space="preserve">
<g>
	<g>
		<path fill="#4A9ED5" d="M52.8,15.5C51.5,6.7,44.2,0,35.4,0c-7.2,0-13.3,4.4-16.1,10.8C8.4,12.5,0,22.3,0,34.1
			c0,13,10.1,23.5,22.6,23.5c0.9,0,1.8-0.1,2.6-0.2v0h20.4c0.7,0.1,1.5,0.1,2.2,0.1c11.3,0,20.5-9.6,20.5-21.4
			C68.4,26.2,61.7,17.8,52.8,15.5z"/>
	</g>
	<g id="hgNnSY.tif">
		<g>
			<g>
				<path fill="#3A3A3A" d="M87.3,40.1c0.1,0.3,0.3,0.6,0.4,1c0.1,0.8-0.1,1.5-0.4,2.3c-2.3,6-4.6,12-7,18c-0.3,0.7-0.6,1.4-1.2,2
					c-0.3,0.1-0.6,0.3-1,0.4c-0.7,0-1.3-0.1-1.9-0.3c-6.8-2.6-13.6-5.3-20.4-7.9c-0.8-0.3-1.3-0.8-1.7-1.4c-1.6-2.6-2.8-5.4-3.7-8.3
					c-0.2-0.6-0.4-1.3-0.3-1.9c0.1-0.7,0.5-1.3,0.8-2c0.7,0.3,1.3,0.5,2,0.8c0.3,0.1,0.5,0.2,0.6,0.6c0.1,0.3,0.3,0.7,0.5,1
					c1.2,1.8,3.5,2.2,5.3,1c1.7-1.1,2.2-3.5,1-5.2c-1.1-1.7-3.4-2.2-5.2-1.1c-0.1,0.1-0.3,0.1-0.4,0.1c-0.8-0.3-1.5-0.6-2.3-0.9
					c0.2-0.5,0.5-1,0.6-1.5c0.2-0.5,0.5-0.9,1-1.2c2.9-1.8,6-3.2,9.3-4.2c0.7-0.2,1.4-0.2,2.1,0.1c6.6,2.6,13.2,5.1,19.8,7.7
					C86,39.2,86.7,39.5,87.3,40.1z"/>
			</g>
			<g>
				<path fill="#3A3A3A" d="M46.2,36.7c0.3,0.1,0.7,0.2,1,0.3c3.2,1.3,6.5,2.5,9.7,3.8c0.4,0.2,0.7,0.4,0.8,0.9c0,0.4-0.1,0.8-0.5,1
					c-0.3,0.1-0.7,0.2-1,0.1c-3.5-1.3-6.9-2.6-10.3-4c-0.2-0.1-0.3-0.2-0.4-0.2c-0.2-0.1-0.2-0.3-0.2-0.6c0-0.4,0.1-0.8,0.4-1
					C45.7,36.8,45.9,36.7,46.2,36.7z"/>
			</g>
		</g>
	</g>
	<g>
		<path fill="#FFFFFF" d="M67.1,49.7l-0.4,1.2l-1-0.4l0.4-1.2c-1-0.5-1.8-1.3-2.4-2.2l1.2-0.8c0.5,0.8,1,1.4,1.7,1.8l0.9-2.3
			c-1.6-1.1-2.1-2.1-1.6-3.4c0.5-1.3,1.8-1.8,3.3-1.3l0.3-0.7l1,0.4l-0.3,0.7c0.8,0.4,1.4,1,1.9,1.7L71,44.1c-0.4-0.6-0.8-1-1.3-1.4
			L68.8,45c1.6,1.1,2.1,2.1,1.6,3.4C70,49.7,68.6,50.2,67.1,49.7z M68.8,42.3c-0.8-0.2-1.3,0-1.5,0.6c-0.2,0.5-0.1,0.9,0.7,1.5
			L68.8,42.3z M68.3,46.4l-0.8,2.1c0.8,0.2,1.3,0,1.6-0.6C69.2,47.4,69.1,47,68.3,46.4z"/>
		<path fill="#FFFFFF" d="M74.5,52.7c-2.2-0.8-2.9-3.3-2-5.6c0.9-2.4,3.1-3.8,5.2-2.9c2.2,0.8,2.9,3.3,2,5.6
			C78.8,52.2,76.7,53.5,74.5,52.7z M77.2,45.4C75.9,45,74.6,46,74,47.6c-0.6,1.7-0.3,3.3,1,3.8c1.3,0.5,2.6-0.5,3.2-2.2
			S78.5,45.9,77.2,45.4z"/>
	</g>
</g>
</svg>
