<?xml version="1.0" encoding="utf-8"?>
<!-- Generator: Adobe Illustrator 18.0.0, SVG Export Plug-In . SVG Version: 6.00 Build 0)  -->
<!DOCTYPE svg PUBLIC "-//W3C//DTD SVG 1.1//EN" "http://www.w3.org/Graphics/SVG/1.1/DTD/svg11.dtd">
<svg version="1.1" id="Layer_1" xmlns="http://www.w3.org/2000/svg" xmlns:xlink="http://www.w3.org/1999/xlink" x="0px" y="0px"
	 viewBox="0 0 222.4 215.9" enable-background="new 0 0 222.4 215.9" xml:space="preserve">
<g>
	<path fill="#FFFFFF" d="M86.5,108.6c0,22.4,0,44.7,0,67.1c0,7.5-0.9,14.9-4,21.9c-3.2,7.4-8.7,12.3-16.4,14.8
		c-15,4.7-30.1,4.7-45,0.2C10.4,209.4,4.3,201.8,1.9,191C0.1,183,0,174.9,0,166.7c0-41.9,0-83.9,0-125.8c0-6.9,0.8-13.8,3.1-20.3
		c3.1-8.7,9-14.5,17.8-17.2c14.8-4.5,29.8-4.5,44.6,0c10.8,3.2,16.8,10.8,19.2,21.7c1.7,7.7,1.8,15.4,1.8,23.1
		C86.5,68.3,86.5,88.5,86.5,108.6z M63.9,107.5C63.9,107.5,63.9,107.5,63.9,107.5c0-20.1,0.1-40.3,0-60.4c0-5-0.5-10.1-1.4-15
		c-0.9-5.3-4.1-9-9.3-10.5c-6.3-1.9-12.6-1.9-19-0.2c-5.4,1.4-8.8,4.9-10,10.3c-0.8,3.9-1.5,7.9-1.5,11.9c-0.1,42.7-0.1,85.3,0,128
		c0,3.8,0.4,7.6,1.1,11.3c1.1,6,4.4,10.2,10.5,11.8c6,1.6,12.1,1.6,18.2-0.1c5.2-1.4,8.7-4.7,9.7-10.1c0.8-4.7,1.5-9.6,1.6-14.4
		C64,149.2,63.9,128.4,63.9,107.5z"/>
	<path fill="#FFFFFF" d="M158.5,22.2c-0.7,0-1.4,0-2,0c-10.1,0-20.3,0-30.4,0c-1.4,0-2.8-0.1-4.2-0.3c-2.4-0.3-3.7-1.7-3.7-4.2
		c0-3.7,0-7.4,0-11.1c0-2.2,1-3.5,3.1-4c1.4-0.3,2.8-0.5,4.2-0.5c16.3,0,32.6,0,48.8,0c0.2,0,0.4,0,0.7,0c4.7,0.1,6.2,1.6,6.4,6.3
		c0,0.9,0,1.8,0,2.8c0,60,0,120,0,180.1c0,2.8-0.2,2.4,2.4,2.4c10.1,0,20.3,0,30.4,0c0.5,0,1.1,0,1.6,0c4.7,0.1,6.4,1.9,6.4,6.6
		c0,3.1-0.2,6.2-0.3,9.3c-0.1,1.9-1.2,3.2-3,3.6c-1.4,0.3-2.8,0.5-4.2,0.5c-29.8,0-59.6,0-89.4,0c-1.6,0-3.1-0.2-4.7-0.6
		c-1.7-0.4-2.6-1.7-2.7-3.5c0-3.9-0.1-7.8,0-11.7c0-2.1,1.4-3.5,3.7-3.8c1.4-0.2,2.9-0.3,4.4-0.3c10.1,0,20.2,0,30.3,0
		c0.6,0,1.3,0,2,0C158.5,136.5,158.5,79.4,158.5,22.2z"/>
</g>
</svg>
