<?xml version="1.0" encoding="utf-8"?>
<!-- Generator: Adobe Illustrator 18.0.0, SVG Export Plug-In . SVG Version: 6.00 Build 0)  -->
<!DOCTYPE svg PUBLIC "-//W3C//DTD SVG 1.1//EN" "http://www.w3.org/Graphics/SVG/1.1/DTD/svg11.dtd">
<svg version="1.1" id="Layer_1" xmlns="http://www.w3.org/2000/svg" xmlns:xlink="http://www.w3.org/1999/xlink" x="0px" y="0px"
	 viewBox="0 0 222.4 215.9" enable-background="new 0 0 222.4 215.9" xml:space="preserve">
<g>
	<path fill="#FFFFFF" d="M94.8,108.7c0,22.2,0,44.4,0,66.6c0,7.4-0.8,14.7-3.7,21.7c-3.2,7.8-8.9,13.1-16.9,15.5
		c-14.8,4.5-29.7,4.6-44.6,0c-10.5-3.2-16.5-10.7-18.8-21.3C9.3,184.2,9,177.1,9,170c0-43.7,0-87.5,0-131.2c0-7.2,1.1-14.3,4.1-20.9
		c3.3-7.2,8.8-12,16.3-14.4c14.8-4.6,29.6-4.6,44.4-0.1c10.6,3.2,16.6,10.6,19,21.3c1.9,8.4,1.9,16.9,1.9,25.4
		C94.8,69.6,94.8,89.2,94.8,108.7C94.8,108.7,94.8,108.7,94.8,108.7z M31.5,107.9L31.5,107.9c0,21.4-0.1,42.8,0,64.1
		c0,3.2,0.3,6.5,0.8,9.7c1,6.3,4.1,11.1,10.6,12.8c6.2,1.6,12.4,1.6,18.5-0.2c5-1.5,8.3-4.8,9.3-9.9c0.8-4.2,1.5-8.5,1.5-12.7
		c0.1-43.1,0.1-86.2,0-129.3c0-3.9-0.8-7.9-1.7-11.7c-1.2-4.9-4.5-7.9-9.3-9.3c-6-1.7-12.1-1.7-18.2-0.2c-5.1,1.3-8.6,4.5-9.8,9.6
		c-0.9,3.7-1.6,7.5-1.6,11.2C31.4,64,31.5,86,31.5,107.9z"/>
	<path fill="#FFFFFF" d="M150.4,193.7c1,0,1.7,0,2.3,0c17,0,34,0,51,0c1.4,0,2.7,0.1,4.1,0.3c2.5,0.3,3.7,1.7,3.7,4.1
		c0,3.7,0,7.4,0,11.1c0,2.4-1.1,3.6-3.4,4.1c-1.2,0.2-2.5,0.3-3.7,0.3c-23.7,0-47.3,0-71,0c-0.1,0-0.1,0-0.2,0c-5.9,0-7-1.1-7.2-7
		c-0.3-6.5-0.1-12.8,3.2-18.7c2.7-4.7,5.2-9.5,7.8-14.3c14.9-27.4,29.9-54.8,44.8-82.2c4.9-9.1,7.3-18.9,7.4-29.2
		c0-8.5-0.1-16.9-0.3-25.4c-0.1-3.3-1.1-6.5-2.7-9.5c-1.8-3.1-4.5-5.1-7.9-6.1c-6.1-1.7-12.2-1.7-18.3-0.1
		c-5.6,1.5-8.8,5.3-10.2,10.8c-1.4,5.4-1.3,10.9-1.3,16.3c0,7.2,0,14.3-0.1,21.5c0,1.6-0.2,3.3-0.5,4.8c-0.4,1.8-1.7,2.7-3.6,2.7
		c-4.7,0-9.3,0-14,0c-2.1,0-3.3-1-3.8-3.1c-0.2-1-0.4-2.1-0.4-3.2c0-11,0-22,0.1-33.1c0.1-6.7,1.1-13.2,3.7-19.4
		c3.2-7.7,8.8-12.8,16.7-15.3c14.8-4.6,29.7-4.6,44.4-0.1C201.6,6.6,207.6,14.2,210,25c1.8,7.8,1.8,15.7,1.9,23.6
		c0.2,11.5-0.4,23-3.5,34.2c-2.3,8.4-6.1,16.1-10.3,23.7c-15.6,28.3-31.1,56.7-46.7,85C151.1,192.2,150.9,192.8,150.4,193.7z"/>
</g>
</svg>
