<?xml version="1.0" encoding="utf-8"?>
<!-- Generator: Adobe Illustrator 18.0.0, SVG Export Plug-In . SVG Version: 6.00 Build 0)  -->
<!DOCTYPE svg PUBLIC "-//W3C//DTD SVG 1.1//EN" "http://www.w3.org/Graphics/SVG/1.1/DTD/svg11.dtd">
<svg version="1.1" id="Layer_1" xmlns="http://www.w3.org/2000/svg" xmlns:xlink="http://www.w3.org/1999/xlink" x="0px" y="0px"
	 viewBox="0 0 166 16.1" enable-background="new 0 0 166 16.1" xml:space="preserve">
<g>
	<polygon fill="#DDDDDD" points="142.3,4.2 0,4.3 0,10.2 0,16.1 142.3,16 142.3,10.1 	"/>
	<polygon fill="#DDDDDD" points="160.1,8.7 142.3,4.2 142.2,16 160.1,11.7 166,10.2 	"/>
	<g>
		<g>
			<polygon fill="#464E5C" points="143.1,5.9 6.7,6 0.8,6 0.8,11.9 143.1,11.9 			"/>
			<polygon fill="#586273" points="143.1,5.9 143.1,0 0.8,0.1 0.8,6 6.7,6 			"/>
		</g>
		<g>
			<polygon fill="#464E5C" points="166.8,5.9 160.9,4.4 160.9,7.4 			"/>
			<polygon fill="#F7F9F8" points="160.9,4.4 143.1,0 143.1,11.9 160.9,7.4 			"/>
		</g>
		<g>
			
				<rect x="12.7" y="3.8" transform="matrix(8.142748e-04 1 -1 8.142748e-04 24.5773 -12.5904)" fill="#EF8555" width="11.9" height="4.4"/>
		</g>
	</g>
</g>
</svg>
