<?xml version="1.0" encoding="utf-8"?>
<!-- Generator: Adobe Illustrator 18.0.0, SVG Export Plug-In . SVG Version: 6.00 Build 0)  -->
<!DOCTYPE svg PUBLIC "-//W3C//DTD SVG 1.1//EN" "http://www.w3.org/Graphics/SVG/1.1/DTD/svg11.dtd">
<svg version="1.1" id="Layer_1" xmlns="http://www.w3.org/2000/svg" xmlns:xlink="http://www.w3.org/1999/xlink" x="0px" y="0px"
	 viewBox="0 581.9 612 210.1" enable-background="new 0 581.9 612 210.1" xml:space="preserve">
<g>
	<g>
		<path fill="#E0E0E0" d="M572.7,632.9c-3.3-22-21.7-39.3-44.1-39.3c-18.1,0-33.5,11.2-40.5,27.5c-15.7,2.4-29.6,11.5-38.3,24.5
			c-0.9,1.2-0.6,3.6,1.2,3.9c10.6,1.8,12.1,13,11.8,16.9c0,2.4,1.8,2.1,2.7,2.1s6.6-0.9,10,0c10,2.4,11.8,9.4,24.8,1.2
			c6.3-3.9,19.6-3,19.6-3h1.2c7.2,0.6,14.8,1.2,22.6,4.2c5.1,1.8,9.1,5.7,10.9,10.9c1.8,5.1,1.5,10.9-0.9,15.4
			c-1.2,2.1-3,4.2-4.8,5.4c-2.4,1.5-2.4,8.5,0.3,10.9c1.8,1.8,3.6,3.6,4.8,5.7c3.6,5.1,5.4,11.2,5.1,17.5c0,2.1,1.5,2.1,1.8,2.1
			c28.1-0.6,50.7-24.5,50.7-54C612,659.8,595.4,638.7,572.7,632.9z"/>
	</g>
	<g>
		<g>
			<path fill="#4A9ED5" d="M262.1,689.7c0-1.2,0-1.8,0-2.4c0-10.6,0-21.1,0-31.7c0-0.6,0-1.5,0-2.1c0-3.3,0.9-4.2,4.2-4.2
				c1.2,0,2.4,0,3.3,0c2.4,0,3.3,0.9,3.6,3.6c0,0.6,0,1.5,0,2.1c0,22.9,0,46.2,0,69.1c0,5.7-0.6,11.2-2.7,16.3
				c-3.6,8.2-10.3,12.7-18.7,14.8c-8.8,2.1-17.5,1.8-26.3-0.6c-10-3-16-9.7-17.5-19.9c-1.8-11.8-2.1-23.6,0.3-35.3
				c2.1-10.6,9.1-17.2,19.6-19.3c8.2-1.5,16-1.8,23.9,1.2c3.6,1.5,6.6,3.9,9.1,7.2C261.2,689.1,261.5,689.1,262.1,689.7z
				 M262.1,717.8L262.1,717.8c-0.3-3.6-0.3-7.2-0.3-10.6c0-0.9-0.3-1.8-0.3-2.7c-0.9-7.2-4.5-11.8-11.5-13.3
				c-5.7-1.5-11.8-1.5-17.8-0.3c-8.2,1.5-12.4,5.4-13.3,13.6c-1.2,9.4-1.2,19,0.3,28.7c0.9,6.3,4.8,10.3,10.9,11.8
				c6.3,1.5,13,1.8,19.3,0c7.2-1.8,11.2-6.3,11.8-13.6C262.1,726.8,262.1,722.3,262.1,717.8z"/>
		</g>
		<g>
			<path fill="#4A9ED5" d="M11.8,719c0,0.9,0,1.5,0,2.4c0,9.1,0,18.4,0,27.5c0,0.9,0,1.8,0,2.7c-0.3,1.8-1.2,3-3,3.3
				c-1.8,0-3.3,0-5.1,0c-2.1,0-3-1.2-3.3-3.3c0-0.9,0-1.8,0-2.7c0-24.8,0-49.5,0-74.3c0-3,0.3-5.7,1.2-8.8c1.5-5.4,6-8.5,12.1-8.8
				c10-0.3,20.2-0.3,30.2,0c4.8,0,9.7,1.2,13.9,3.3c7.2,3.3,11.5,9.4,13,17.2c1.5,7.2,1.5,14.5-0.3,22c-2.7,10.9-10,16.6-20.2,18.4
				c-4.5,0.9-9.1,0.9-13.9,1.2C28.1,719.3,19.9,719,11.8,719z M11.8,708.1c0.3,0,0.6,0.3,0.6,0.3c7.5,0,15.1,0,22.6,0
				c3.6,0,6.9,0,10.6-0.6c7.5-0.9,12.1-5.1,13.6-12.1c0.9-4.8,0.9-10,0-15.1c-0.9-5.1-3.6-9.1-8.5-10.9c-2.4-0.9-4.8-1.5-7.2-1.5
				C35.3,668,27.2,668,19,668c-5.1,0-6.9,2.1-6.9,7.2c0,6.3,0,12.4,0,18.7C11.8,698.5,11.8,703.3,11.8,708.1z"/>
		</g>
		<g>
			<path fill="#4A9ED5" d="M126.2,716.9c0.3-4.8,0.3-10.6,1.5-16.3c2.1-10.6,8.8-17.2,19.3-19.6c8.8-2.1,17.2-2.1,26,0
				c10.9,2.7,17.2,9.7,18.7,20.5c1.8,10.9,1.8,22,0,32.9c-1.8,12.1-9.4,19-21.4,21.4c-7.9,1.5-15.4,1.5-23.2-0.3
				c-11.8-3-18.1-10.3-19.6-22C126.5,728.1,126.5,722.9,126.2,716.9z M181.5,717.8C181.5,717.8,181.2,717.8,181.5,717.8
				c-0.3-3.6-0.3-6.9-0.3-10.6c0-0.9-0.3-2.1-0.3-3c-0.9-6.9-4.5-11.5-11.2-13.3c-5.7-1.5-11.8-1.5-17.8-0.6
				c-8.2,1.5-12.4,5.4-13.6,13.6c-1.2,9.4-1.2,19,0,28.4c1.2,7.2,5.7,11.5,13,12.7c5.4,0.9,10.6,0.9,16,0c7.9-1.5,12.7-6,13.3-14.2
				C181.2,726.5,181.2,722.3,181.5,717.8z"/>
		</g>
		<g>
			<path fill="#4A9ED5" d="M352,708.1c0,7.5,0,14.8,0,22.3c0,5.1-1.2,10.3-3.9,14.8c-3.6,5.7-9.1,8.8-15.4,10.3
				c-8.5,1.8-17.2,1.8-25.7-0.6c-10.3-2.7-16.6-10.6-17.5-21.1c-0.3-3.3-0.3-6.9-0.3-10.6c0-12.4,0-24.8,0-37.4
				c0-4.2,0.9-5.1,5.1-5.1c5.7,0,6.3,0.6,6.3,6.3c0,13.3,0,26.9,0,40.2c0,2.1,0,4.2,0.3,6.3c0.9,6,4.2,9.7,10,11.2
				c6.3,1.5,12.7,1.8,18.7,0c6.9-1.8,10.6-6,10.9-13c0.3-8.5,0.3-16.9,0.3-25.4c0-6.6,0-13.6,0-20.2c0-0.9,0-1.8,0.3-2.7
				c0.3-1.5,1.2-2.4,2.7-2.7c1.5,0,3,0,4.5,0c2.7,0,3.6,0.9,3.6,3.6c0,5.1,0,10.3,0,15.4C352,702.7,352,705.4,352,708.1L352,708.1z"
				/>
		</g>
		<g>
			<path fill="#4A9ED5" d="M519,678.8c6.6,0.3,13,1.2,19.3,3.6c3.6,1.5,5.4,6,3.6,9.4c-0.9,1.5-2.4,1.2-3.6,0.9
				c-3-0.6-6-1.8-9.4-2.1c-6.3-0.9-12.7-1.2-19,0c-2.7,0.6-5.1,2.1-6,5.1c-0.9,3.3-0.3,6.3,2.1,8.8c1.5,1.5,3.6,2.7,5.7,3.6
				c6.9,3.3,14.2,6.6,21.4,10c3.9,1.8,7.5,4.2,10,8.2c6.6,10.3,2.1,24.5-9.4,28.4c-6.3,2.1-13.3,2.7-19.9,2.1
				c-6-0.6-11.8-1.5-17.8-3c-4.2-0.9-6-5.4-4.2-9.4c0.6-1.5,1.8-1.5,3-1.2c2.7,0.6,5.4,1.2,8.2,1.8c8.2,1.5,16.3,2.1,24.5,0.6
				c3.3-0.6,6-2.1,6.9-5.4c0.9-3.9,0-7.2-3.3-9.7c-2.1-1.5-4.5-2.7-6.9-3.9c-7.2-3.6-14.8-6.9-22-10.9c-9.1-5.1-12.1-16.6-7.5-26
				c2.4-4.5,6.3-7.2,11.2-8.5C509.6,679.7,513.3,678.8,519,678.8z"/>
		</g>
		<g>
			<path fill="#4A9ED5" d="M438.1,691.2c-3,0-6,0-8.8,0c-3,0-3.6-0.6-3.9-3.6c0-0.6,0-1.2,0-1.8c0.3-2.4,0.9-3.3,3.6-3.9
				c3-0.3,6-0.9,9.1-1.2c0.3-3.9,0.9-7.5,1.2-11.5c0.3-1.8,0.3-3.6,0.6-5.1c0.3-1.8,1.2-2.7,3-2.7c0.3,0,0.6,0,0.9,0
				c4.8-0.3,5.7,0.3,5.7,5.4c0,4.8,0,9.4,0,14.2c0.9,0,1.5,0,2.1,0c7.5,0,14.8,0,22.3,0c3.6,0,4.5,0.9,4.5,4.5c0,5.4-0.6,6-6,6
				c-6.9,0-13.9,0-20.8,0c-0.6,0-1.5,0-2.1,0c0,0.9,0,1.5,0,2.1c0,11.5,0,23.2,0,34.7c0,2.7,0.3,5.7,0.9,8.2
				c1.2,5.1,5.1,8.8,10.3,8.8c5.1,0,10.6-0.6,15.7-1.2c3.6-0.6,4.8,0,4.8,3.9c0,4.8-0.9,6-5.4,6.9c-6.9,1.5-13.6,1.8-20.5,0.3
				c-9.4-2.1-14.5-8.2-16-17.2c-0.6-3.3-0.9-6.6-0.9-10c0-11.5,0-23.2,0-34.7C438.1,693,438.1,692.4,438.1,691.2z"/>
		</g>
		<g>
			<path fill="#4A9ED5" d="M367.1,716.3c0.3-4.2,0.3-10.3,1.5-16c2.4-11.2,10-17.8,21.1-19.9c8.5-1.8,16.9-1.8,25.4,1.2
				c2.7,0.9,3.6,2.1,3.6,5.1c0,1.2,0,2.4,0,3.3c-0.3,2.1-0.9,2.7-3,2.4c-3.3-0.6-6.3-1.5-9.7-2.1c-5.7-0.6-11.2-0.3-16.6,1.5
				c-5.4,1.8-8.8,5.7-9.7,11.2c-1.5,9.4-1.5,19-0.3,28.7c1.2,8.2,5.4,12.1,13.6,13.6c7.9,1.5,15.4,0.9,22.9-1.2
				c3.3-0.9,4.2-0.3,4.5,3c0,0.6,0,1.5,0,2.1c0,3-0.9,4.2-3.9,5.1c-6.3,2.1-13.3,2.7-19.9,2.1c-4.5-0.3-9.1-1.2-13.6-3
				c-9.4-3.9-13.9-11.2-15.1-20.8C367.4,727.8,367.4,722.9,367.1,716.3z"/>
		</g>
		<g>
			<path fill="#4A9ED5" d="M85.4,725.6c0-8.2-0.3-16.3,0-24.5c0.6-13.3,9.4-21.4,22.6-22c2.7,0,5.4,0,8.5,0.3
				c2.7,0.3,3.6,1.2,3.9,3.9c0,1.5,0,3,0,4.2c0,1.5-0.9,2.4-2.7,2.4c-2.4,0-5.1-0.3-7.5-0.3c-1.5,0-3,0.3-4.2,0.6
				c-4.8,0.9-7.5,4.2-8.5,8.8c-0.6,2.4-0.6,5.1-0.6,7.5c0,14.2,0,28.4,0,42.6c0,0.9,0,1.8,0,2.7c0,1.8-1.2,3-3,3h-0.3
				c-7.5,0.3-7.9,0-7.9-7.2C85.4,740.4,85.4,732.9,85.4,725.6L85.4,725.6z"/>
		</g>
	</g>
</g>
</svg>
