<?xml version="1.0" encoding="utf-8"?>
<!-- Generator: Adobe Illustrator 18.0.0, SVG Export Plug-In . SVG Version: 6.00 Build 0)  -->
<!DOCTYPE svg PUBLIC "-//W3C//DTD SVG 1.1//EN" "http://www.w3.org/Graphics/SVG/1.1/DTD/svg11.dtd">
<svg version="1.1" id="Layer_1" xmlns="http://www.w3.org/2000/svg" xmlns:xlink="http://www.w3.org/1999/xlink" x="0px" y="0px"
	 viewBox="0 0 424.4 102.8" enable-background="new 0 0 424.4 102.8" xml:space="preserve">
<g>
	<path fill="#FFFFFF" d="M50.4,64c0.3,0.6,0.6,1,0.9,1.4c6.1,9.5,12.3,19,18.4,28.4c0.8,1.3,1.6,2.6,2.2,4c0.7,1.6,0.2,2.7-1.5,2.9
		c-3.7,0.6-7.5,0.6-11.2-0.3c-2.6-0.7-4.3-2.5-5.7-4.7C47.2,86,40.9,76.2,34.7,66.4c-0.6-1-1.3-1.3-2.5-1.3c-5.1,0.1-10.2,0-15.3,0
		c-0.5,0-1.1,0-1.8,0c0,0.7,0,1.2,0,1.7c0,8.9,0,17.9,0,26.8c0,1.3-0.1,2.6-0.3,3.8c-0.3,1.9-1.3,3.2-3.2,3.3
		c-2.6,0.2-5.2,0.3-7.8,0c-2.4-0.2-3.4-1.4-3.7-3.9C0,95.8,0,94.6,0,93.4c0-22.9,0-45.8,0-68.7c0-2.9,0.3-6,1.1-8.8
		c1.5-5.2,5.5-7.7,10.7-8.4c1.6-0.2,3.2-0.3,4.9-0.3c8.5,0,17.1-0.1,25.6,0.1c5.1,0.1,10.1,1,14.8,3.2c6.4,3,10.4,8,12.1,14.8
		c1.8,7,1.8,14,0.3,21c-2.1,9.3-8.1,14.8-17.1,17.3C51.8,63.6,51.2,63.8,50.4,64z M15.2,50.8c0.7,0,1.2,0,1.7,0c7.1,0,14.1,0,21.2,0
		c2.1,0,4.2-0.1,6.3-0.4c5.8-0.7,9.5-4,10.5-9.1c0.7-3.4,0.7-6.9,0-10.3c-0.8-4.6-3.5-7.6-8.1-8.7c-2-0.5-4.2-0.8-6.3-0.8
		c-6.6-0.1-13.1-0.1-19.7,0c-4.1,0-5.6,1.6-5.6,5.7c0,7.5,0,14.9,0,22.4C15.2,49.9,15.2,50.2,15.2,50.8z"/>
	<path fill="#FFFFFF" d="M311.7,70.8c0.2,2.7,0.2,5.1,0.6,7.4c1,5.2,4.5,8,9.4,9.3c6.3,1.6,12.6,1.5,19,0.7c3.9-0.5,7.8-1.3,11.7-2
		c3.2-0.6,4.5,0.2,4.8,3.4c0.2,1.8,0.1,3.7,0,5.5c-0.1,2.4-1.3,4-3.7,4.6c-3.2,0.8-6.5,1.8-9.8,2.2c-8.7,1.2-17.4,1.2-26.1-0.8
		c-12.3-2.9-18.9-10.5-20.3-22.9c-0.9-8.6-0.9-17.2,0-25.7c0.7-6.6,3-12.6,8-17.2c4.1-3.8,9.1-5.8,14.6-6.7
		c7.1-1.1,14.1-1.2,21.1,0.8c9.6,2.7,15.5,9.1,17.6,18.8c1.3,5.9,1.4,12,0.4,18c-0.5,3.2-2,4.4-5.2,4.5c-5.1,0.1-10.3,0.1-15.4,0.1
		c-8.2,0-16.4,0-24.6,0C313.2,70.8,312.6,70.8,311.7,70.8z M345.8,58.6c-0.1-2.4-0.1-4.7-0.5-6.9c-0.6-3.5-2.2-6.4-5.4-8.3
		c-2.9-1.8-6-2.4-9.3-2.6c-4.3-0.3-8.5,0-12.4,2c-5.5,2.9-7.1,8.5-6.2,15.8C323.2,58.6,334.3,58.6,345.8,58.6z"/>
	<path fill="#FFFFFF" d="M84.9,64.7c0.4-4.7,0.5-10.1,1.5-15.3c2-10.2,8.3-16.9,18.4-19.7c9.9-2.8,19.9-2.7,29.7,0.6
		c9,3,14.3,9.6,16,18.7c1.8,10.3,1.8,20.8,0.2,31.1c-1.9,11.9-9.4,19-21.1,21.5c-8.3,1.8-16.7,1.6-24.9-0.6
		C94,98.2,87.8,91.1,86.1,80.3C85.4,75.4,85.4,70.4,84.9,64.7z M136.4,65.4c0-3.5,0.2-7,0-10.5c-0.4-7.2-3.9-11.2-10.9-12.5
		c-4.7-0.9-9.5-0.8-14.3,0.1c-5.9,1.2-9.8,4.6-10.5,10.6c-0.9,8.3-1,16.7,0.1,24.9c0.8,5.4,4.2,8.6,9.5,9.8
		c4.9,1.1,9.8,1.2,14.7,0.3c7.2-1.2,10.9-5.2,11.3-12.4C136.6,72.3,136.4,68.8,136.4,65.4z"/>
	<path fill="#FFFFFF" d="M380.7,43.3c-2,0-3.8,0-5.7,0c-1,0-2,0-3-0.1c-2.9-0.3-3.8-1.3-3.9-4.1c0-1.2,0-2.4,0-3.6
		c0.1-2.5,1-3.7,3.5-4.3c2.4-0.6,4.9-1.1,7.4-1.5c1.3-0.2,1.8-0.7,1.9-2c0.5-4.4,1-8.7,1.7-13.1c0.5-3,1.6-3.9,4.6-4
		c1.6-0.1,3.2-0.1,4.7,0c2.1,0.1,3,1,3.3,3.1c0.1,0.9,0.1,1.8,0.1,2.7c0,4.2,0,8.5,0,13c0.6,0,1.1,0,1.6,0c6.2,0,12.3,0,18.5,0
		c0.9,0,1.8,0,2.7,0.2c2.2,0.4,3.1,1.2,3.3,3.3c0.2,2.3,0.1,4.7,0,7.1c-0.1,1.7-1.2,2.7-3,3c-1.2,0.2-2.4,0.3-3.5,0.3
		c-5.9,0-11.9,0-17.8,0c-0.5,0-1.1,0-1.7,0c0,0.6-0.1,1.1-0.1,1.6c0,10.2,0,20.3,0,30.5c0,1.7,0.1,3.5,0.5,5.1
		c1.1,5.3,4.1,8.1,9.6,8c4.3,0,8.7-0.5,12.9-1.2c4.6-0.7,5.8,0.1,5.9,4.7c0,1.4-0.1,2.8-0.1,4.1c-0.1,2.5-1.4,4-3.8,4.7
		c-5,1.4-10.2,1.8-15.4,1.7c-3.9-0.1-7.7-0.7-11.3-2.2c-7.1-2.9-10.9-8.6-12.3-15.9c-0.6-3.1-0.8-6.4-0.9-9.6
		c-0.1-9.9,0-19.8,0-29.6C380.7,44.7,380.7,44.1,380.7,43.3z"/>
	<path fill="#FFFFFF" d="M163.8,65.5c0.4-5,0.3-10.1,1.2-15c1.9-10.8,8.4-17.7,18.9-20.7c8.8-2.5,17.6-2.6,26.4,0
		c2.7,0.8,4.2,2.3,4.3,5.1c0,2.1,0,4.1-0.2,6.2c-0.2,2-1.3,2.9-3.3,2.7c-1.6-0.2-3.1-0.7-4.6-1c-5.2-1.1-10.5-1.3-15.7-0.3
		c-7.3,1.3-11,5.1-11.4,12.6c-0.4,7.1-0.3,14.3,0.2,21.5c0.4,6.5,4.1,10.1,10.5,11.5c6.7,1.5,13.4,1,20.1-0.4c4.6-1,5.8,0,5.9,4.8
		c0,1.1,0,2.2,0,3.3c-0.1,2.8-1.1,4.3-3.8,5.2c-4.1,1.4-8.3,2-12.6,2.1c-5.9,0.1-11.8-0.4-17.5-2.3c-9.6-3.2-15.3-9.8-16.9-19.6
		C164.2,75.8,164.2,70.6,163.8,65.5z"/>
	<path fill="#FFFFFF" d="M242.8,50.6c0,14.5,0,29,0,43.6c0,5.8-1.2,7-7,7c-1.4,0-2.9-0.1-4.3-0.3c-2-0.3-3-1.5-3.2-3.5
		c-0.2-1.3-0.2-2.6-0.2-3.8c0-28.7,0-57.4,0-86.1c0-1.3,0.1-2.6,0.3-3.8c0.3-2.1,1.5-3.3,3.6-3.5c2.4-0.2,4.7-0.2,7.1,0
		c2.1,0.2,3.2,1.3,3.5,3.4c0.2,1.1,0.3,2.3,0.3,3.4C242.8,21.4,242.8,36,242.8,50.6z"/>
	<path fill="#FFFFFF" d="M281.5,29.3c1.7,0.1,3.5,0.2,5.1,0.4c1.7,0.3,2.1,1.2,1.2,2.7c-0.7,1.1-1.5,2.1-2.3,3.1
		c-6.8,7.7-13.7,15.3-20.5,23c-0.4,0.4-0.7,0.8-1,1.2c-1.8,2.4-2,4.5-0.1,6.9c2.2,2.8,4.6,5.4,6.9,8.1c6.2,7.2,12.4,14.3,18.6,21.5
		c0.6,0.7,1.1,1.6,1.6,2.5c0.5,0.9,0.1,1.6-0.9,1.9c-0.5,0.2-1.1,0.3-1.6,0.3c-3.4,0-6.8,0.1-10.2-0.3c-3-0.3-5.4-2.1-7.4-4.3
		c-6.4-7.3-12.7-14.7-19-22.2c-3.7-4.4-5.1-9.4-3.8-15.1c0.5-1.9,1.4-3.9,2.7-5.4c5.8-6.8,11.8-13.5,17.8-20.2
		c2.6-2.9,6.1-4.1,9.9-4.1c0.9,0,1.9,0,2.8,0C281.5,29.4,281.5,29.3,281.5,29.3z"/>
</g>
</svg>
