<?xml version="1.0" encoding="utf-8"?>
<!-- Generator: Adobe Illustrator 18.0.0, SVG Export Plug-In . SVG Version: 6.00 Build 0)  -->
<!DOCTYPE svg PUBLIC "-//W3C//DTD SVG 1.1//EN" "http://www.w3.org/Graphics/SVG/1.1/DTD/svg11.dtd">
<svg version="1.1" id="Layer_1" xmlns="http://www.w3.org/2000/svg" xmlns:xlink="http://www.w3.org/1999/xlink" x="0px" y="0px"
	 viewBox="0 290 612 211.7" enable-background="new 0 290 612 211.7" xml:space="preserve">
<g>
	<path fill="#4A9ED5" d="M64.7,423c-4.9-5.2-11.1-8.8-16.9-12.7c-8.5-5.5-17.2-10.7-25.7-16.3c-3.6-2.3-6.2-5.2-7.2-9.4
		c-1.6-6.5,0.7-12.4,6.2-14.6c1.6-0.7,2.9-1,4.6-1.3c3.6-0.7,7.2-1,10.7-1c5.2,0,10.1,0.7,15,1.6c3.3,0.7,6.5,1.6,9.8,2.6
		c1,0.3,1.6,0.3,2.3,0.3c1.6,0,2.3-1,2.6-3.6c0-1,0-2,0-2.9c0-3.6-0.7-4.9-4.2-6.2c-8.5-2.9-16.6-4.6-25-4.6c-6.2,0-12,0.7-18.2,2.3
		c-5.2,1.3-9.8,3.6-13.3,8.1c-5.5,7.2-5.9,20.5-1,28.6c2.6,4.9,6.5,8.5,11.1,11.4c9.8,6.2,19.5,12,29.3,18.2c2.9,2,5.9,3.9,8.5,6.5
		c4.2,3.9,5.5,9.4,4.2,15c-1.3,5.5-5.5,7.5-10.4,8.8h-0.3c-4.6,1-9.1,1.3-14,1.3c-5.5,0-11.4-0.7-16.9-1.6c-3.9-0.7-7.8-2-11.7-2.9
		c-0.7,0-1-0.3-1.6-0.3c-1.6,0-2.3,1-2.6,2.9c-0.3,1.3,0,2.6,0,3.6c0,3.9,1,4.9,4.6,6.5c9.1,3.3,18.5,4.2,28.3,4.2
		c0.3,0,0.7,0,0.7,0c6.5,0,12.7-0.7,18.9-2.3c5.5-1.6,10.4-3.9,14-8.5c3.6-4.6,5.2-10.4,4.9-16.3c0-0.7,0-1.3,0-2
		C70.6,433.1,68.6,427.2,64.7,423z"/>
	<path fill="#4A9ED5" d="M110.2,466.6c4.9,1.3,10.1,1.6,15.3,1.6c3.6,0,7.5-0.3,11.1-0.7c4.6-0.7,9.1-2,13.3-2.9
		c2-0.7,3.6-1.6,3.9-4.2c0-1.6,0-3.3,0-4.6c0-2.3-1-3.3-2.9-3.3c-0.3,0-0.3,0-0.7,0c-1,0-2,0.3-2.9,0.7c-7.2,1.6-14,2.9-21.1,2.9
		c-2.9,0-6.2-0.3-9.1-0.7c-6.8-1-12.7-3.6-15.6-10.7c-2-4.9-1.6-9.8-1.6-15.3c1,0,1.6,0,2.6,0s2.3,0,3.3,0c6.5,0,13,0,19.5,0
		c8.8,0,17.6,0,26,0c3.6,0,5.2-1,5.5-4.2c0.7-6.5,1-13.3-0.3-19.8c-2-10.4-7.8-17.6-17.9-21.1c-4.9-1.6-10.1-2.6-15.3-2.6
		c-2.6,0-5.5,0.3-8.5,0.7c-5.9,0.7-11.4,2.3-15.9,5.9c-7.5,5.5-10.7,13.3-11.1,22.1c-0.7,9.4-0.7,18.9,0,28c0,0.3,0,1,0,1.3
		C88.5,453.9,95.9,463.3,110.2,466.6z M101.1,404.1c2.3-5.5,6.8-8.8,12.7-10.1c2.9-0.7,5.5-1,8.5-1c2.6,0,5.5,0.3,8.1,1
		c8.8,2,13.7,7.8,14.3,17.6c0.3,2.6,0,4.9,0,7.5c-15.3,0-30.2,0-45.2,0C99.5,414.2,99.2,409,101.1,404.1z"/>
	<path fill="#4A9ED5" d="M87.5,439.9c0-0.3,0-1,0-1.3C87.5,438.9,87.5,439.2,87.5,439.9L87.5,439.9z"/>
	<path fill="#FFFFFF" d="M71.2,440.9c0-0.7,0-1.3,0-2C71.2,439.6,71.2,440.2,71.2,440.9z"/>
	<path fill="#4A9ED5" d="M232.5,457.5c0-2.6-0.7-3.6-2-3.9c0.7,2,1.3,3.6,2,5.2C232.5,458.4,232.5,458.1,232.5,457.5z"/>
	<path fill="#4A9ED5" d="M314.5,415.2c0-8.5,0-16.9,0-25c0-1,0-2.3-0.3-3.3c-0.3-1.6-1.3-2.9-2.9-2.9c-1,0-2.3,0-3.3,0
		c-1,0-2.3,0-3.3,0c-1.6,0-2.6,1-2.9,2.6c0,1.3-0.3,2.6-0.3,3.6c0,15,0,29.9,0,44.9c0,1.6,0,3.3,0,5.2c-0.3,8.1-4.2,13-11.7,15
		c-3.6,1-7.2,1.3-10.7,1.3s-7.2-0.3-10.7-1.3c-6.5-1.6-10.4-5.5-11.4-12.4c-0.3-2.3-0.7-4.9-0.7-7.2c0-15.3,0-30.2,0-45.5
		c0-1,0-2,0-2.9c-0.3-2.3-1-3.3-3.3-3.6c-1,0-2,0-2.6,0c-1,0-2,0-2.9,0c-0.7,0-1,0.3-1.3,0.3c-1,0.3-1.6,1.3-1.6,2.9c0,1,0,2,0,3.3
		c0,4.6,0,8.8,0,13.3c0,10.1,0,20.5,0,30.6c0,2.9,0,5.9,0.3,8.8c0,0.7,0.3,1.3,0.3,2c0.7,3.6,1.6,6.5,3.3,9.4
		c3.3,5.5,8.8,9.8,15.6,11.7c4.9,1.3,10.1,2,15.3,2c3.9,0,8.1-0.3,12-1c6.2-1,11.7-3.6,15.9-8.1c4.6-4.9,6.5-10.7,6.8-17.2
		C314.5,432.7,314.1,424,314.5,415.2C314.1,415.2,314.5,415.2,314.5,415.2z"/>
	<path fill="#4A9ED5" d="M229.9,453.6c-0.7,0-1.3,0-2.3,0.3c-5.2,1.6-10.4,2.3-15.6,2.3c-2.9,0-5.9-0.3-8.8-0.7
		c-9.8-1.3-15-6.2-16.6-15.9c-0.7-4.9-0.7-9.8-0.7-14.6h0.3c0-4.2-0.3-8.5,0-13c0.3-8.8,5.2-15,13.3-16.9c3.6-1,7.5-1.3,11.1-1.3
		c3.3,0,6.8,0.3,10.1,1c2,0.3,4.2,1.3,6.2,1.6c0.3,0,0.7,0,1,0l0,0c1.6,0,2.3-1,2.3-2.9c0-1,0-2,0-2.9c0-3.3-0.3-4.9-2.6-5.9
		c-0.7-0.3-1.3-0.7-2.3-1c-4.9-1.6-10.1-2.3-15-2.3c-4.2,0-8.5,0.7-12.4,1.3c-15,3.3-23.4,13-24.4,28.3c-0.7,6.8-0.3,14-0.3,21.1
		c0,3.9,0.3,8.1,1.3,12c1.6,9.1,6.5,16.3,15.6,19.8c6.5,2.6,13.3,3.9,20.2,3.9c5.2,0,10.7-0.7,15.9-2c5.2-1.3,6.2-2.6,6.2-7.2
		c-0.7-1.6-1.6-3.6-2-5.2C230.2,453.6,230.2,453.6,229.9,453.6z"/>
	<path fill="#4A9ED5" d="M393.5,365.8c4.6,0,7.8-3.9,7.8-8.1c0-4.6-3.6-8.1-8.1-8.1l0,0c-4.6,0-8.5,3.6-8.5,8.1
		C385,362.2,388.9,365.8,393.5,365.8L393.5,365.8z"/>
	<path fill="#E0E0E0" d="M612,388.5c0-27.3-17.9-50.1-42.3-56.3c-3.6-23.7-23.4-42.3-47.5-42.3c-19.5,0-36.1,12-43.6,29.6
		c-16.9,2.6-31.5,12.4-41,26.3c17.9,1,19.5,16.6,19.5,21.5l0,0h9.4c1.3,0,2.6,0,3.9,0c2.9,0.3,5.5,1,8.1,2.3
		c4.6-2.3,9.1-2.3,11.1-2.3c0.3,0,1,0,1.3,0c11.7,0.3,19.5,6.2,22.4,17.6c3.3,11.7,6.5,23.4,9.4,35.1c1-4.2,2-8.8,3.3-13
		c1.6-7.2,3.6-14.6,5.2-21.8c2.6-11.1,10.1-17.2,21.8-17.9c0.7,0,1.3,0,2,0c1,0,1.6,0,2.6,0c8.5,0.7,13,4.6,15.3,7.8
		c2.3,3.3,4.9,8.8,2.9,16.9c-1.3,5.5-2.6,10.7-3.9,15.9l-0.3,1.3l-3.9,16.3c-1.6,6.8-3.3,13.7-5.2,20.5
		C590.5,442.8,612,418.1,612,388.5z"/>
	<path fill="#FFFFFF" d="M427.6,395.7c0.3,1,0.3,1.6,0.7,2.6c0-0.7,0-1.6,0-2.6C427.9,395.7,427.6,395.7,427.6,395.7z"/>
	<g>
		<path fill="#4A9ED5" d="M399.7,390.1c0-1,0-2,0-3.3c0-1-0.7-2-1.3-2.3c-0.7-0.3-1-0.7-2-0.7c-1.3,0-2.3,0-3.6,0c-0.7,0-1.3,0-2,0
			c-1.3,0-2.3,0.3-2.9,1c-0.7,0.7-1,1.6-1,3.3c0,0.7,0,1.3,0,2.3c0,2.6,0,5.5,0,8.1c0,20.5,0,41,0,61.8c0,5.9,0.7,6.5,6.5,6.5l0,0
			c5.2,0,6.2-0.7,6.2-6.2c0-11.7,0-23.4,0-35.1c0-8.1,0-16.3,0-24.4C399.7,397,399.7,393.7,399.7,390.1z"/>
		<path fill="#4A9ED5" d="M371.4,384c-0.7-0.7-1.3-1.3-2.3-1.3c-2.9-0.3-5.5-0.7-8.5-0.7c-0.3,0-0.7,0-0.7,0
			c-5.9,0-11.4,1.3-15.9,4.6c-6.8,4.6-9.8,11.7-10.1,19.5c-0.3,9.1,0,18.5,0,27.6h-0.3c0,2.9,0,5.5,0,8.5c0,6.8,0,13.7,0,20.2
			c0,2.6,1,3.6,3.9,3.9c0.7,0,1.3,0,2,0h0.3c5.9,0,6.5-0.7,6.5-6.8c0-16.9,0-33.8,0-50.4c0-2.9,0.7-5.9,2-8.5
			c2.3-5.2,6.8-6.5,11.7-6.8c0.7,0,1,0,1.6,0c2.6,0,5.2,0.3,7.8,0.3h0.3c0.7,0,1-0.3,1.6-0.3c0.7-0.3,1.3-1,1.3-2.3c0-2,0-3.9,0-5.9
			C372,385.3,371.7,384.6,371.4,384z"/>
		<g>
			<path fill="#4A9ED5" d="M557,383.6c-0.7,0-1,0-1.6,0c-0.3,0-1,0-1.3,0c-4.2,0.3-5.5,1.3-6.5,5.5c-3.9,16.3-7.8,32.5-11.7,48.5
				c-0.7,2.9-1.3,5.9-2.3,8.5c-0.3,1.6-1,3.3-1.3,4.9c-1,2.9-3.3,4.9-6.5,5.2c-0.7,0-1.6,0-2.3,0c-4.6,0-7.2-2-9.1-7.2
				c-0.3-0.7-0.3-1.6-0.7-2.3c0-0.3,0-0.7-0.3-1c-5.2-18.9-10.4-38-15.6-56.9c-1.3-4.6-2.6-5.5-7.2-5.5c-0.3,0-0.7,0-1,0
				c-0.3,0-0.7,0-0.7,0c-4.2,0-4.9,1.6-3.6,6.5c0.7,2.9,1.6,5.9,2.3,8.8c3.6,13.3,7.2,26.7,10.7,39.7c0.7,2.6,1.3,4.9,2.3,7.5
				c1.3,3.9,2.6,8.1,3.9,12c2.3,5.5,6.8,8.5,13,9.1c0.7,0,1.6,0,2.3,0c2.6,0,5.2-0.3,7.8-1.6c0.3,0,0.3,0.3,0.7,0.3
				c-2,4.2-3.6,8.5-5.5,12.7c-2,3.9-4.6,6.8-8.1,9.1c-3.3,2-7.2,2.9-11.1,3.3c-2.6,0.3-3.6,1.3-3.3,4.2c0.3,1.3,0.7,2.3,1,3.6
				c0.7,2.3,2,3.3,4.2,3.3h0.3c8.1-0.3,15.3-2.9,21.1-8.8c6.8-6.8,10.7-15.6,13-24.7c2-7.5,3.9-15,5.9-22.4
				c3.3-13.7,6.8-27,10.1-40.6c1.3-5.9,2.9-11.4,4.2-17.2C561.3,384.9,560.3,384,557,383.6z"/>
			<path fill="#4A9ED5" d="M473.5,454.2c-0.3,0-1,0-1.6,0.3c-4.9,1-10.1,1.6-15,1.6c-1,0-2,0-2.9,0c-5.9-0.3-10.4-3.6-12-9.1
				c-0.7-2.3-1-4.6-1-6.8c0-5.5,0-10.7,0-16.3c0-9.1,0-18.2,0-27.3c0-0.3,0-0.7,0.3-1.3c1.3,0,2.3,0,3.6,0c0.7,0,1.3,0,2,0
				c1,0,2,0,2.9,0c2.3,0,4.6,0,6.8,0c4.2,0,8.5,0,12.7,0c0.3,0,1,0,1.3,0c2.3-0.3,2.9-1.3,3.3-3.9c0-1.3,0-2.6,0-4.2
				c-0.3-2.6-1.3-3.6-3.9-3.6c-0.3,0-0.3,0-0.7,0c-0.7,0-1.3,0-2,0c-4.2,0-8.5,0-12.7,0c-3.6,0-7.2,0-10.7,0c-0.7,0-1.6,0-2.6,0
				c0-5.5,0-11.1,0-16.3c0-4.6-0.7-5.5-4.9-5.5c-0.3,0-0.3,0-0.7,0h-0.3c-3.6,0.3-4.6,1-4.9,4.6c-0.7,5.2-1,10.4-1.6,15.6
				c0,1.3-0.7,2-2,2l0,0c-2.6,0.3-5.5,0.7-8.1,1c-1,0-1.6,0.3-2.3,0.7c-1.3,0.7-1.6,2-1.6,3.9c0,0.7,0,1.3,0,1.6
				c0,2.3,0.7,3.3,2,3.9c0.7,0.3,1.3,0.3,2.3,0.3c1.3,0,2.6,0,3.9,0c1.6,0,3.6,0,5.5,0c0.3,0,0.3,0,0.7,0c0,1,0,2,0,2.6l0,0
				c0,13,0,25.7,0,38.7c0,3.3,0.3,6.5,0.7,9.8c1.6,11.1,8.5,18.5,19.2,20.5c2.9,0.7,6.2,1,9.1,1c4.2,0,8.1-0.3,12.4-1.3
				c6.2-1.3,7.2-2.9,6.5-9.1C475.7,455.2,475.1,454.2,473.5,454.2z"/>
		</g>
	</g>
</g>
</svg>
