<?xml version="1.0" encoding="utf-8"?>
<!-- Generator: Adobe Illustrator 18.0.0, SVG Export Plug-In . SVG Version: 6.00 Build 0)  -->
<!DOCTYPE svg PUBLIC "-//W3C//DTD SVG 1.1//EN" "http://www.w3.org/Graphics/SVG/1.1/DTD/svg11.dtd">
<svg version="1.1" id="Layer_1" xmlns="http://www.w3.org/2000/svg" xmlns:xlink="http://www.w3.org/1999/xlink" x="0px" y="0px"
	 viewBox="-46.7 243.8 919.9 304.8" enable-background="new -46.7 243.8 919.9 304.8" xml:space="preserve">
<g>
	<path fill="#4A9ED5" d="M69.8,332.9c-1,0-1.9,0-2.4,0c-18.4,0-36.8,0-55.2,0c-15,0-29.5,0-44.5,0h-0.5c-11.1,0-11.6,1-11.1,13.1
		c0,0,0,0,0,0.5c0.5,2.9,1.9,4.4,4.8,4.8c1,0,2.4,0,3.4,0c0.5,0,1,0,1.5,0l0,0c7.3,0,14.5,0,22.3,0c6.8,0,13.1,0,19.8,0
		c0,1.9,0,3.4,0,4.8c0,43.5,0,86.6,0,130.1c0,7.3,1.5,8.7,8.2,8.7c0.5,0,1,0,1.5,0c8.7,0,9.7-1.5,9.7-11.1c0-42.6,0-85.1,0-128.2
		c0-1.5,0-2.9,0-4.4c1.5,0,2.9,0,3.9,0c7.7,0,15.5,0,23.2,0c5.3,0,11.1,0,16.4,0c7.3,0,8.2-1.5,8.7-8.7
		C79.5,334.3,78,332.9,69.8,332.9z"/>
	<path fill="#4A9ED5" d="M143.3,375.9c0-2.9-1.9-4.8-4.8-5.3c-1.9-0.5-3.9-0.5-5.8-1c-1.5,0-2.9,0-4.8,0c-4.8,0-9.7,0.5-14.5,1.5
		c-6.3,1.5-12.1,3.9-16.4,8.7c-8.2,7.7-11.1,17.9-11.1,28.5c-0.5,13.1,0,26.1,0,39.7l0,0c0,4.8,0,9.2,0,14c0,9.2,0,17.9,0,27.1
		c0,4.4,1.5,5.8,5.8,6.3c0.5,0,1.5,0,1.9,0c0,0,0,0,0.5,0h0.5H95c8.2,0,9.2-1,9.2-9.7c0-22.7,0-45.5,0-67.7c0-3.4,0-6.3,0.5-9.7
		c1-13.1,7.7-19.4,20.8-19.8c1,0,1.5,0,2.4,0c1.9,0,4.4,0,6.3,0.5c1,0,2.4,0,3.4,0.5c0.5,0,1,0,1.5,0c3.4,0,4.8-1.5,4.8-4.8
		C143.8,380.8,143.3,378.3,143.3,375.9z"/>
	<path fill="#4A9ED5" d="M266.2,372.5c-1.9-1-3.9-1-5.8-1c-5.8,0-10.2,3.4-11.6,10.2c-5.3,21.8-10.6,44-16,65.8
		c-1.9,7.7-3.9,15.5-5.8,23.2c-1.9,6.8-5.8,9.2-12.1,9.7h-0.5c-7.3,0-10.6-2.4-13.1-8.7c-1-2.4-1.5-4.8-2.4-7.3
		c-7.7-28.1-15.5-56.1-22.7-83.7c-1.5-5.3-3.4-7.3-8.2-7.7c-0.5,0-1.5,0-1.9,0c-0.5,0-1,0-1.5,0c-1,0-1.5,0-2.4,0
		c-4.4,0.5-5.8,1.9-4.8,6.3c0,1,0.5,1.9,0.5,2.4c1.9,6.3,3.4,13.1,5.3,19.4c2.9,11.1,5.8,21.8,9.2,32.9c3.9,14.5,8.2,29.5,12.6,44
		c1.9,6.3,4.8,12.1,10.6,15.5c4.4,2.4,8.7,3.4,13.5,3.4c4.4,0,8.7-1,13.1-2.4c-1.9,4.8-3.4,9.2-5.3,13.5c-5.3,13.1-14,22.3-29,23.7
		c-8.7,1-7.7,3.4-6.3,10.2c1.5,5.3,2.4,6.8,7.3,6.8c0.5,0,1.5,0,1.9,0c13.1-1,23.7-5.8,32.4-16c8.2-9.2,13.1-20.3,16-32.4
		c9.2-35.3,17.9-70.2,26.6-105.5c1.5-4.8,2.4-10.2,3.9-15C269.1,376.9,269.6,374,266.2,372.5z"/>
	<path fill="#E0E0E0" d="M502.3,306.7c-5.3-35.3-34.8-62.9-70.6-62.9c-29,0-53.7,17.9-64.8,44c-11.6,1.9-38.7,10.6-48.4,36.8
		c12.1-0.5,36.3-0.5,34.8-0.5c4.4,1.5,25.2-8.7,31.9-8.7c6.3,0,12.1,1.9,17.4,4.8c10.2,5.8,14,17.4,14,25.6c0,1,0,1.5,0,2.4h0.5
		c5.3,0,10.6,0,15.5,0c19.8,0,31.9,12.1,31.9,31.9v1.5c0,20.3-12.1,32.4-32.4,32.4c-5.3,0-10.2,0-15.5,0h-0.5c0,12.6,0,25.6,0,38.2
		c0,1,0,1.9,0,2.9c5.8-0.5,11.6-1,16.9-1.9c2.4-0.5,4.8-0.5,6.8-0.5c12.6,0,25.2,7.3,28.1,23.7h4.4c2.9,0.5,5.8,0.5,9.2,0.5
		c46,0,82.7-38.7,82.7-86.6C565.2,349.8,538.1,315.9,502.3,306.7z"/>
	<path fill="#4A9ED5" d="M332,398.2c0-2.9,0-42.1,0-45.5c0-3.9,0-7.3,0-11.1c0-1.9-1-3.4-1.9-4.4c-0.5-0.5-1.5-1-2.4-1
		c-1.5,0-2.9,0-3.9,0h-0.5c-8.2,0-9.2,1-9.2,9.7c0,21.8,0,79.3,0,100.6c0,13.1,0,25.6,0,38.7c0,8.7,1,10.2,9.7,10.2h0.5
		c7.3,0,8.7-1.5,8.7-8.2c0-8.2,0-16,0-24.2c0-9.7,0-18.9,0-28.5C332,421.9,332,410.3,332,398.2z"/>
	<path fill="#4A9ED5" d="M440.4,477c-1,0-1.9,0-3.4,0.5c-8.2,1-16.4,1.9-24.7,1.9l0,0c-4.4,0-7.7-1-11.1-3.4
		c-3.4-2.4-6.3-6.3-7.3-11.6c-1-3.9-1.5-8.2-1.5-12.6c0-19.8,0-39.2,0-59c0-1,0-2.4,0-3.9c1.5,0,2.4,0,3.9,0h0.5
		c6.8,0,13.5,0,19.8,0c4.8,0,10.2,0,15,0c6.8,0,8.2-1.5,8.2-8.2c0-0.5,0-1,0-1.5c0-6.8-1.5-8.2-7.7-8.2c-5.3,0-10.2,0-15.5,0
		c-6.8,0-13.5,0-20.3,0h-0.5c-1,0-2.4,0-3.9,0c0-9.2,0-17.4,0-26.1c0-1.9-1-4.8-2.4-5.8c-1.5-1-3.4-1.5-4.8-1.5
		c-4.4,0-8.2,3.4-8.7,8.7c-0.5,7.3-1.5,14.5-1.9,21.3c0,2.4-1.5,3.4-3.9,3.9c-3.4,0.5-6.3,1-9.7,1.5c-2.4,0.5-3.9,0.5-5.3,1.5
		c-2.4,1.5-3.4,3.4-2.9,8.2c0,3.4,1,5.3,3.4,5.8c1,0,1.5,0.5,2.9,0.5c1.9,0,3.9,0,5.8,0c2.9,0,5.8,0,9.2,0c0,1.5,0,2.9,0,3.9
		c0,18.9,0,38.2,0,57.1c0,5.3,0.5,11.1,1.5,16.4c0.5,3.4,1.5,6.3,2.9,9.2c4.8,10.6,14,17.9,26.1,19.8c4.4,0.5,8.7,1,12.6,1
		c6.3,0,12.6-1,19.4-2.4c7.7-1.9,9.2-3.9,9.2-11.6C445.2,478.5,444.3,477,440.4,477z"/>
</g>
</svg>
