<?xml version="1.0" encoding="utf-8"?>
<!-- Generator: Adobe Illustrator 18.0.0, SVG Export Plug-In . SVG Version: 6.00 Build 0)  -->
<!DOCTYPE svg PUBLIC "-//W3C//DTD SVG 1.1//EN" "http://www.w3.org/Graphics/SVG/1.1/DTD/svg11.dtd">
<svg version="1.1" id="Layer_1" xmlns="http://www.w3.org/2000/svg" xmlns:xlink="http://www.w3.org/1999/xlink" x="0px" y="0px"
	 viewBox="0 290 612 211.7" enable-background="new 0 290 612 211.7" xml:space="preserve">
<g>
	<path fill="#4A9ED5" d="M55.7,414.5c-9.3-6-18.7-11.7-27.7-17.4c-3.3-2-6.3-4.3-9-7c-4-4-4.7-9-3-14.3c1.7-4.7,5.7-6.3,10-7.3
		c2-0.3,4-0.7,6-0.7c1.7,0,3.7,0,5.3,0c8.3,0,16.7,1,25,4c1,0.3,1.7,0.7,2.3,0.7c1.7,0,2.7-1.3,2.7-4c0.3-6-0.3-7.3-6.3-9.3
		c-7.7-2.7-15.7-3.7-23.7-3.7c-6,0-12,0.7-18,2c-8.7,2-15.4,7-17.4,16.4c-2,9.3,0,18.7,7.7,26.4c3,3,6.7,5.3,10,7.7
		c9.7,6,19.4,12,29,18c2.7,1.7,5.3,4,7.3,6.7c6,8,2.7,18.4-7,21.4c-3,1-6.3,1.3-9.7,1.7c-2,0-4.3,0.3-6.3,0.3c-9.7,0-19-1.3-28-4.3
		c-0.3,0-0.7,0-1,0c-1,0-2.7,0.3-3,1c-2.7,3.7-0.3,10,4,11.7c9,3.3,18.7,4.3,28.4,5c6.3-1,13-1.3,19.4-3c12.3-3,19.7-12.7,20-24
		c0-0.7,0-1,0-1.7c0-0.7,0-1,0-1.7c-0.3-3-1-6-2.3-9C67.4,422.8,61.7,418.5,55.7,414.5z"/>
	<path fill="#4A9ED5" d="M112.1,466.8c4.3,0.7,8.7,1,13,1c2.7,0,5,0,7.7-0.3c17.7-1.7,26.7-12,27-29.7c0-8,0-15.7,0-23.7l0,0
		c0-8.7,0-17.7,0-26.4c0-1.3-0.7-4-1.3-4c-2-0.3-4.3-0.7-6.7-0.7c-1,0-1.7,0-2.3,0c-3,0.3-2.3,3.3-2.3,5.3c0,15.4,0,30.4,0,45.7
		c0,2.7-0.3,5-0.7,7.7c-0.7,6.7-4.3,11-11,12.7c-3.7,1-7.3,1.3-11,1.3c-3.7,0-7.3-0.3-11-1.3c-7-1.7-10.7-6-11.7-13.3
		c-0.3-3-0.3-6-0.3-9c0-14.7,0-29,0-43.7c0-5.3-1-6-6.3-6l0,0c-0.7,0-1.3,0-1.7,0c-3,0-4.7,1.7-4.7,4.7c0,17.4-0.3,34.4,0,51.7
		c0,0.3,0,0.7,0,1C89.8,454.8,98.1,464.5,112.1,466.8z"/>
	<path fill="#4A9ED5" d="M89.4,440.2c0-0.3,0-0.7,0-1c0,0.3,0,0.3,0,0.7V440.2z"/>
	<path fill="#FFFFFF" d="M72.7,441.8c0-1,0-2.3,0-3.3c0,0.7,0,1,0,1.7S72.7,441.5,72.7,441.8z"/>
	<path fill="#E0E0E0" d="M444.8,436.1c1.7,1.3,3.7,2.7,5.3,4l0,0C448.5,438.5,446.8,437.1,444.8,436.1z"/>
	<path fill="#E0E0E0" d="M612,391.1c0-28-18.4-51.4-43.4-57.7c-3.7-24.4-24-43.4-48.7-43.4c-20,0-37,12.3-44.7,30.4
		c-24,3.7-43.4,21.4-50.7,45c3.7-0.7,7.7-0.7,11.3-0.7c8.3,0,17,1.3,25.4,4c6.3,2,10.7,5,13.7,9.7c4.7-5.3,11.3-9.3,19.7-11.3
		c6.3-1.3,12.7-2.3,19-2.3c8.7,0,17,1.3,25.4,4c5.7,2,13,6.7,15.7,14.3c3,7.7,1,16-1.7,21c-1.3,2.3-5,7.7-12.7,9
		c2.7,1.7,5,3.3,7.3,5c8,6.3,12.3,16,11.7,26.4c0,1.3,0,2.7,0,4.3c0,0.7,0,1.3,0,2C588.3,448.5,612,422.5,612,391.1z"/>
	<g>
		<path fill="#4A9ED5" d="M451.5,425.1c-5-2.7-10.3-4.7-15.4-7c-2.7-1.3-5.7-2.7-8.3-4c-2-1-3.7-2-5.7-3c-4-2.3-5.3-6.7-4.3-11.3
			c0.7-2.3,2-4,4-5c1.3-0.7,2.7-1,4-1.3c2-0.3,4.3-0.7,6.7-0.7c1,0,2,0,3.3,0c6.7,0,13.3,1,20,3c1,0.3,2,0.7,3,0.7c2,0,3-1.3,3-5
			c0-4.7-1-6-5.3-7.7c-6.7-2-13.7-3.3-20.7-3.3c-4.7,0-9.3,0.7-14,1.7c-0.3,0-0.7,0-1.3,0.3c-7.7,1.7-13.3,6.3-14.7,14.3
			c-1.7,12.3,1,20,12,25.7c8,4,16.4,7.7,24.7,12c1,0.3,1.7,1,2.7,1.3c2,1,4,2.3,5.3,4l0,0c4.7,5,2.7,12.3-3.7,14.7
			c-2.3,0.7-4.7,1-7,1.3c-2,0-3.7,0-5.7,0c-8,0-16-1-24-3.3c-1-0.3-1.7-0.3-2.7-0.3s-2,0.3-2.7,2c-2,4.7,0,9.3,5,10.3
			c7.7,1.7,15.7,2.7,21.7,3.7c8.3,0.3,11-0.7,15.4-1.3c12-1.7,18-8.3,18.7-19.7c0-1,0-2,0-3C464.8,435.1,459.5,429.1,451.5,425.1z"
			/>
		<path fill="#4A9ED5" d="M542.3,442.5c0-5.7-1.7-9-5.7-12c-3.7-3-8-5.3-12.3-7.7c-8-4-16-7.3-24-11.3c-4.3-2.3-6-7-5-11.7
			c1-4.3,4.7-5.7,8.7-6.3c3-0.3,6-0.7,9.3-0.7c6.3,0,12.3,1,18.7,2.7c1,0.3,2.7,0.7,4,0.7c1,0,2,0,2-0.7c1-2,1.7-5,0.7-7
			c-0.7-2-3.3-3.7-5.3-4.3c-6.7-2-13.3-3.3-20.4-3.3c-5,0-10.3,0.7-15.4,1.7c-7.7,1.7-13.3,6.3-14.7,14.3c-1.7,12.3,1,20,12,25.7
			c8,4,16.4,7.7,24.7,12c2.7,1.3,5.3,3,7.3,5c3.3,3,4,7.3,2.3,10.7c-1,2-3,3.7-5.7,4.7c-3,0.7-6.3,1.3-9.3,1.3c-0.7,0-1.3,0-2,0
			c-8.3-0.7-16.7-2-25-3c-1,0-1.7-0.3-2.7-0.3s-2,0.3-2.7,2c-2,4.7,0,9.3,5,10.3c7.7,1.7,15.7,2.7,23.4,4c9.3,0.3,15.4-1,22.4-4.7
			c5.7-3,9.3-7.3,9.3-14c0-0.3,0.3-1,0.3-1.3C542.3,446.8,542.3,444.8,542.3,442.5z"/>
	</g>
	<path fill="none" d="M359.4,393.1c-2.3-0.3-4.7-0.3-7-0.3c-2.3,0-4.7,0-7,0.3c-7.7,1-13,5-15,13c-1,4-1,8-1.3,12.3
		c16,0,31,0,46.1,0c0-3,0.3-6,0-8.7C374.1,400.4,368.4,394.4,359.4,393.1z"/>
	<path fill="#4A9ED5" d="M386.4,406.4c-1.3-12-9.3-21-21-23.7c-4.7-1-9.7-1.3-14.3-1.3c-1.3,0-2.7,0-3.7,0
		c-11,0.7-19.4,4.7-24.4,11.7c-2.3,3.3-4,7.7-5,12.3c0,0.3,0,0.3,0,0.7c-2,11.7-2,23.7-0.3,35.4c0,1,0.3,2,0.3,3
		c1,5.7,3.3,10,6.3,13.7c3.3,3.7,7.7,6,13,7.7c6.3,1.7,12.7,2.7,18.7,2.7c8,0,15.7-1.3,23.7-3.7c4.3-1.3,6-4.7,4.3-9.7
		c-0.7-2-1.7-2.7-2.7-2.7c-1.3,0-3,0.7-4.3,1c-0.3,0-0.7,0.3-1,0.3c-6.7,1.7-13.3,2.7-20,2.7c-3.3,0-6.7-0.3-9.7-0.7
		c-6.7-1-12.7-3.3-15-10.3c-1.7-4.7-1.7-10-2.7-15.7c2.3,0,3.7,0,5,0c0.7,0,1.3,0,1.7,0c7.3,0,15,0,22.4,0c7.7,0,15,0,22.7,0
		c4.7,0,6-1,6-5.7C387.1,418.1,387.1,412.1,386.4,406.4z M375.1,418.5c-15,0-30,0-46.1,0c0.3-4.3,0.3-8.3,1.3-12.3
		c1.7-7.7,7.3-12,15-13c2.3-0.3,4.7-0.3,7-0.3c2.3,0,4.7,0,7,0.3c9.3,1,14.7,7.3,15.7,16.4C375.1,412.5,375.1,415.5,375.1,418.5z"/>
	<path fill="#4A9ED5" d="M307.3,455.8c-0.3-2-1.3-2.3-2.3-2.3c-0.7,0-1.3,0.3-2,0.3c-0.7,0.3-1.3,0.7-2,0.7c-4.7,1-9.3,1.7-14.3,1.7
		c-3.3,0-6.7-0.3-10-1c-9.3-1.7-14.7-7.3-15.4-17.4c-0.3-4.3,0-8.7,0-13l0,0c0-4.3-0.3-8.7,0-13c1-11,6.7-16.7,17.7-18
		c2.3-0.3,4.7-0.3,7-0.3c5,0,10.3,0.7,15.4,2.3c0.3,0,0.7,0,1,0s0.7,0,1,0c1-0.3,2-0.7,2.3-1c1-2,1-4,0.7-5.7
		c-0.7-2.7-2.7-4.7-5.3-5.7c-5-1.7-10-2.3-15-2.3s-9.7,0.7-14.7,2c-13.3,3.3-21.4,12.3-22.4,26c-1,11-1,22,0,32.7
		c0,1,0.3,1.7,0.3,2.7c0.7,4.3,2.3,8.3,4.3,11.3c4,5.7,10,9.3,18,10.7c5.7,1,11.7,1.3,17.4,1.3c1.7,0,3.3,0,5,0
		c3.3,0,6.7-1.3,10-2.3c1.7-0.3,2.7-1.3,3.3-2.7C308,460.8,308,458.2,307.3,455.8z"/>
	<path fill="#4A9ED5" d="M234.3,453.5L234.3,453.5c-1.3,0-2.7,0.7-3.7,1c-4.7,1.3-9.7,2-14.3,2c-3.3,0-6.7-0.3-10.3-1
		c-9.3-1.7-14.7-7.3-15.4-17c-0.3-4.3-0.3-9-0.7-13.7c0.3-4.7,0.3-9.3,0.7-14.3c0.7-8,5-14,13-15.7c4.7-1,9.3-1.3,14-1.3
		c1,0,2,0,3,0c3.3,0,6.7,1.7,10,2c0.3,0,0.3,0,0.7,0c1.3,0,3-0.7,3.3-1.3c2.3-4.7,0-9.7-5-11c-5-1.7-9.7-2.3-14.7-2.3
		c-4.7,0-9.7,0.7-14.3,2c-12.3,3-20.4,10.7-22.4,23.4c-2,13-2.3,26.4,0.3,39.4c2,9.7,8,16.4,17.4,19.7c5.7,2,11.3,3,17.4,3
		c1.7,0,3.7,0,5.3-0.3c5-0.3,9.7-1.3,14.7-2.7c2-0.7,3-2.3,3.3-4.7c0.3-1.7,0-3.3-0.3-5C235.9,453.8,235.3,453.5,234.3,453.5z"/>
</g>
</svg>
