<?xml version="1.0" encoding="utf-8"?>
<!-- Generator: Adobe Illustrator 18.0.0, SVG Export Plug-In . SVG Version: 6.00 Build 0)  -->
<!DOCTYPE svg PUBLIC "-//W3C//DTD SVG 1.1//EN" "http://www.w3.org/Graphics/SVG/1.1/DTD/svg11.dtd">
<svg version="1.1" id="Layer_1" xmlns="http://www.w3.org/2000/svg" xmlns:xlink="http://www.w3.org/1999/xlink" x="0px" y="0px"
	 viewBox="0 291.2 612 209.7" enable-background="new 0 291.2 612 209.7" xml:space="preserve">
<g>
	<path fill="#4A9ED5" d="M228.7,385.9c-5.2-1.6-10.6-2.3-15.8-2.3c-4.5,0-9,0.6-13.5,1.6c-8.7,1.9-15.5,6.8-19.6,14.8
		c-2.9,5.8-3.5,12.2-3.5,18.7c0,25.4,0,50.6,0,76c0,0.6,0,1.6,0,2.3c0.3,2.6,1,3.2,3.5,3.5c0.6,0,1.3,0,2.3,0c0.3,0,0.6,0,0.6,0
		c5.2,0,5.8-1,5.8-6.8c0-11.6,0-22.9,0-34.5c0-0.6,0-1.3,0-1.9c2.6,2.3,4.5,4.8,7.4,6.8c5.2,3.5,11.3,4.5,17.7,4.5c0.3,0,1,0,1.3,0
		c6.4,0,12.9-1,19-3.9c9-4.5,13.2-12.2,14.5-21.9c1.3-9.7,1-19.6,0.6-29.3c0-1.6-0.3-3.2-0.6-4.8
		C246.4,397.4,240.3,389.1,228.7,385.9z M235.8,441.9c-1,8.1-5.8,12.9-13.9,14.5c-3.2,0.6-6.4,1-9.3,1c-3.2,0-6.8-0.3-10-1
		c-8.1-1.9-12.6-6.8-13.2-14.8c-0.6-4.8-0.6-10-0.6-14.8c0.3-5.2,0.3-10,0.6-14.8c1-8.7,6.1-13.9,14.5-15.5c2.9-0.6,6.1-0.6,9-0.6
		s6.1,0.3,9,0.6c8.1,1.3,12.9,5.8,13.9,13.9C237.1,420.6,237.1,431.3,235.8,441.9z"/>
	<path fill="#FFFFFF" d="M221.6,396.2c-2.9-0.6-6.1-0.6-9-0.6s-6.1,0.3-9,0.6c-8.7,1.6-13.5,6.8-14.5,15.5c-0.6,4.8-0.6,10-0.6,14.8
		c0.3,4.8,0.3,10,0.6,14.8c1,8.1,5.5,13.2,13.2,14.8c3.2,0.6,6.8,1,10,1s6.4-0.3,9.3-1c8.1-1.6,12.9-6.4,13.9-14.5
		c1.3-10.6,1.3-21.3,0-31.9C234.5,402,229.7,397.4,221.6,396.2z"/>
	<path fill="#4A9ED5" d="M320.8,385.5c-5.2-1.6-10.3-2.3-15.8-2.3c-4.5,0-9,0.6-13.5,1.6c-8.7,1.9-15.8,6.8-19.6,14.8
		c-2.9,6.1-3.9,12.6-3.9,19.3c0,25.1,0,50.2,0,75.4c0,1,0,2.3,0.3,3.2c0.3,1.9,1.3,2.6,2.9,2.9c1,0,1.6,0.3,2.6,0.3c0.3,0,0.6,0,1,0
		c5.2,0,5.8-1,5.8-6.8c0-11.6,0-22.9,0-34.5c0-0.6,0-1.3,0-1.9c4.5,7.1,11.3,10,19,11c2.3,0.3,4.8,0.3,7.1,0.3s4.5,0,6.8-0.3
		c14.2-1.3,23.8-9.7,26.4-23.8c0.6-4.5,1-9,1-13.5c0-3.2,0-6.4,0-9.7c0-4.2-0.3-8.4-0.6-12.6C338.9,397.4,332.4,389.1,320.8,385.5z
		 M327.9,441.9c-1.3,8.7-5.5,12.9-14.2,14.5c-2.9,0.6-6.1,1-9,1c-3.2,0-6.8-0.3-10-1.3c-7.7-1.9-12.2-6.8-13.2-14.8
		c-0.6-5.2-0.6-10-0.6-15.1c0.3-5.2,0.3-10,0.6-14.8c1-8.4,5.8-13.9,14.2-15.1c3.2-0.6,6.1-1,9.3-1c2.9,0,5.8,0.3,8.7,0.6
		c8.7,1.6,13.5,5.8,14.5,14.8C329.2,421.3,329.2,431.6,327.9,441.9z"/>
	<path fill="#4A9ED5" d="M49.9,413.6c-9.3-6.1-19-11.9-28.3-18c-4.5-2.9-7.1-7.1-7.4-12.6c-0.3-5.2,1.9-9,6.4-11
		c1.3-0.6,2.9-1,4.5-1.3c3.9-0.6,7.4-1,11.3-1c5.2,0,10.3,0.6,15.5,1.6c3.2,0.6,6.4,1.9,9.7,2.6c0.6,0.3,1.3,0.3,1.6,0.3
		c1.6,0,2.6-1,2.6-3.2c0-1,0-1.9,0-3.2c0-3.9-0.6-4.8-4.2-6.1c-8.4-3.2-17.1-4.2-25.8-4.2l0,0c0-0.3,0-0.3,0-0.6
		c-5.8,1-11.6,1.3-17.1,2.6c-6.8,1.6-12.6,5.2-15.5,12.2c-4.8,11.6-1,25.4,9,32.9c4.5,3.5,9.7,6.4,14.5,9.3
		c8.1,5.2,16.1,10,24.2,15.5c4.2,2.9,6.4,7.1,6.8,12.2c0.3,5.2-1.9,9.7-6.4,11.9c-1.6,0.6-3.2,1.3-4.8,1.6c-4.8,1-9.7,1.3-14.5,1.3
		c-8.7,0-17.4-1.3-26.1-4.2c-1.3-0.3-2.3-0.6-2.9-0.6c-1.9,0-2.6,1.3-2.6,4.5c0,0.3,0,0.6,0,1.3c0,4.5,0.6,5.8,5.2,7.1
		c5.2,1.3,10.3,2.6,15.5,3.5c4.2,0.6,8.4,1,12.6,1c6.1,0,11.9-0.6,18-2.3c11.9-3.2,18.4-10.3,19.6-21.6c0.6-8.4-1.3-16.1-7.4-21.9
		C59.3,419.7,54.8,416.5,49.9,413.6z"/>
	<path fill="#FFFFFF" d="M341.1,431.3c0-0.6,0-1.3,0-1.9c0-2.6,0-4.8,0-7.4C341.1,424.8,341.1,428,341.1,431.3z"/>
	<path fill="#4A9ED5" d="M156.5,392.3c0-1.3,0-2.6-0.3-3.9c0-1.9-1.3-2.9-3.2-2.9c-1,0-2.3,0-3.2,0c-0.6,0-1.3,0-1.9,0
		c-2.9,0-3.9,1.3-4.2,4.2c0,1,0,1.6,0,2.6c0,14.8,0,30,0,44.8c0,2.3,0,4.5-0.3,6.8c-1,5.8-3.9,10-9.7,11.9
		c-3.9,1.3-8.1,1.9-11.9,1.9s-7.7-0.6-11.9-1.6c-5.8-1.6-9.3-5.5-10-11.6c-0.3-2.6-0.6-5.2-0.6-7.7c0-14.8,0-29.6,0-44.5
		c0-1.3,0-2.3,0-3.5c-0.3-1.6-1.3-2.9-2.9-2.9c-1,0-1.9,0-3.2,0c-1,0-2.3,0-3.2,0c-1.6,0-2.6,1-2.9,2.6c0,1-0.3,1.9-0.3,2.9
		c0,13.5,0,26.7,0,40.3c0,4.2,0,8.4,0.3,12.6c1.3,11,6.4,18.7,17.1,22.5c5.8,1.9,11.6,2.9,17.4,2.9c5.8,0,11.3-1,17.1-2.6
		c6.8-1.9,11.6-6.1,14.8-12.6c1.9-4.2,2.9-8.7,2.9-13.2c0-8.1,0-16.4,0-24.5l0,0C156.5,408.4,156.5,400.3,156.5,392.3z"/>
	<path fill="#E0E0E0" d="M612,388.8c0-27.1-17.7-49.6-41.9-55.7c-3.5-23.5-23.2-41.9-47-41.9c-19.3,0-35.8,11.9-43.2,29.3
		c-27.4,4.2-49,27.4-51.5,56.4c3.9,2.9,7.4,6.4,10,10.3c1.9-3.2,4.2-6.1,6.8-8.7c5.8-5.5,13.2-9,22.5-10.3c3.2-0.6,6.4-0.6,9.3-0.6
		c3.5,0,6.8,0.3,10,1c1.9,0.3,3.5,1,4.8,1.6c0-1,0.3-2.3,0.3-3.2v-0.3c1-11.3,7.7-15.8,11.9-17.4c3.2-1.3,6.4-1.9,10-1.9
		c4.2,0,8.1,1,11.6,3.2c5.8,3.2,9,9.7,9.3,17.1c0,0.6,0,1.3,0,1.9c3.2,0,6.4,0,9.7,0c1.6,0,3.2,0,4.8,0.3c9.7,1,17.1,8.4,17.7,18
		c0,2.6,0.3,4.8,0,7.1c-0.6,10.3-8.1,17.7-18.4,18.4c-1.3,0-2.6,0-3.5,0H545h-0.3h-9.3c0,8.7,0,17.1,0,25.8c0,0.6,0,1.6,0,2.3
		c3.5,0,7.1-0.3,11-1.3c1.9-0.3,3.5-0.6,5.2-0.6c5.2,0,10.6,1.9,14.2,6.4C592,440.9,612,417.4,612,388.8z"/>
	<path fill="#4A9ED5" d="M357.2,429c0,0.6,0,1.3,0,1.9c0.3,4.5,0.6,8.7,1.3,13.2c1.9,12.6,9.3,20.6,21.9,23.5
		c4.5,1,9.3,1.6,13.9,1.6c3.9,0,8.1-0.3,11.9-1.3c13.5-2.6,21.3-10.3,23.5-23.8c1-5.8,1-11.9,1.3-18.4c-0.3-5.8-0.6-12.2-1.6-18.4
		c-1.9-11-8.4-18.4-19.3-21.6c-5.2-1.6-10.3-2.3-15.5-2.3c-4.5,0-8.7,0.6-13.2,1.3c-12.9,2.9-20.9,10.6-22.9,23.8
		c-0.6,4.2-1,8.7-1.3,13.2C357.2,424.2,357.2,426.8,357.2,429L357.2,429z M370.4,412.3c1-10.6,5.5-14.5,15.8-16.4
		c2.6-0.3,5.5-0.6,8.1-0.6c3.5,0,7.1,0.3,11,1.3c7.4,1.9,11.3,7.1,12.2,14.5c0.6,5.2,0.6,10,0.6,15.1c-0.3,5.2-0.3,10-0.6,15.1
		c-1,8.1-5.5,13.2-13.2,14.8c-3.5,0.6-6.8,1.3-10.3,1.3c-3.9,0-7.7-0.6-11.6-1.6c-7.1-1.9-11.3-7.1-11.6-13.9
		C370.1,431.9,369.8,422.3,370.4,412.3z"/>
	<path fill="#4A9ED5" d="M357.2,430.9c0-0.6,0-1.3,0-1.9v-0.6c0-2.3,0-4.5,0-7.1C357.2,424.8,357.2,427.7,357.2,430.9z"/>
	<path fill="#4A9ED5" d="M448.7,435.5L448.7,435.5c0,4.2,0,8.1,0,12.2c0,5.2,0,10.3,0,15.5c0,2.9,1.3,3.9,4.2,3.9c0.6,0,1.6,0,2.3,0
		c0.6,0,1.3,0,1.9,0c2.9,0,3.9-1.3,4.2-4.2c0-0.6,0-1.6,0-2.3c0-2.3,0-9,0-21.9c-4.5-2.3-8.7-5.5-12.2-8.7
		C448.7,431.9,448.7,433.8,448.7,435.5z"/>
	<path fill="#4A9ED5" d="M487.3,388.1c0-1.6-0.6-2.6-1.3-3.2c-0.6-0.3-1.3-0.6-2.3-1c-1.9-0.3-3.9-0.6-5.8-0.6c-0.3,0-0.3,0-0.6,0
		c-2.3,0-4.8,0.3-7.1,0.6c-5.2,0.6-10,2.6-13.9,6.1c-5.5,5.2-7.4,11.6-7.7,18.4c-0.3,7.1,0,14.5,0,21.6c3.9,3.5,8.1,6.4,12.2,8.7
		c0-8.4,0-16.7,0-25.1c0-2.9,0.3-5.5,0.6-8.1c1-5.5,4.2-8.7,9.7-10c1.3-0.3,2.9-0.6,4.5-0.6c0,0,0,0,0.3,0c0.3,0,0.6,0,0.6,0
		c2.3,0,4.8,0.3,7.1,0.3h0.3c0.3,0,0.3,0,0.6,0c1.6,0,2.3-1,2.6-3.2C487.3,391,487.3,389.7,487.3,388.1z"/>
	<path fill="#4A9ED5" d="M554.3,459c0-2.6-1-3.9-2.9-3.9c-0.6,0-1,0-1.6,0.3c-4.8,1-9.7,1.6-14.5,1.6c-1,0-1.9,0-2.9,0
		c-6.8-0.3-11-3.9-12.6-10.3c0-0.3,0-0.3,0-0.6c-0.3-2.3-0.6-4.8-0.6-7.1c0-13.2,0-26.7,0-39.9c0-0.6,0-1.3,0-1.9c1,0,1.6,0,2.3,0
		c3.5,0,7.4,0,11,0c3.9,0,8.1,0,11.9,0l0,0c0.3,0,0.3,0,0.6,0c0.6,0,1.6,0,2.3,0c2.3-0.3,3.5-1,3.5-3.5c0-1.6,0-3.5,0-5.2
		c0-1.9-1.3-2.9-2.9-2.9c-1,0-2.3,0-3.2,0c-7.7,0-15.8,0-23.5,0c-0.6,0-1.6,0-2.3,0c0-1,0-1.6,0-2.3c0-5.2,0-10,0-15.1
		c0-1.3-0.3-2.9-1.3-3.5c-1.3-0.6-2.3-1-3.5-1c-1.3,0-2.6,0.3-3.9,0.6c-1.9,0.6-1.6,2.9-1.9,4.5c-0.6,5.2-1,10.3-1.6,15.5
		c0,1-0.6,1.3-1.6,1.6c-0.6,0-1.3,0.3-2.3,0.3c-2.3,0.3-4.5,0.6-6.8,1c-0.6,0-1,0.3-1.3,0.3c-2.3,0.6-2.9,2.6-2.6,6.4
		c0,1.9,0.6,2.9,1.9,3.2c0.6,0.3,1.6,0.3,2.6,0.3c1.3,0,2.3,0,3.5,0c0.6,0,1.3,0,1.9,0c1.3,0,2.6,0,3.9,0c0,1,0,1.6,0,2.6
		c0,12.9,0,25.4,0,38.3c0,2.6,0.3,5.5,0.6,8.1c0,1,0.3,2.3,0.3,3.2c1.9,9.7,7.7,16.4,17.7,18.7c3.2,0.6,6.8,1,10,1
		c4.2,0,8.1-0.6,12.2-1.3C553.7,466.4,554.7,465.1,554.3,459z"/>
</g>
</svg>
