<?xml version="1.0" encoding="utf-8"?>
<!-- Generator: Adobe Illustrator 18.0.0, SVG Export Plug-In . SVG Version: 6.00 Build 0)  -->
<!DOCTYPE svg PUBLIC "-//W3C//DTD SVG 1.1//EN" "http://www.w3.org/Graphics/SVG/1.1/DTD/svg11.dtd">
<svg version="1.1" id="Layer_1" xmlns="http://www.w3.org/2000/svg" xmlns:xlink="http://www.w3.org/1999/xlink" x="0px" y="0px"
	 viewBox="0 581.9 612 210.1" enable-background="new 0 581.9 612 210.1" xml:space="preserve">
<g>
	<path fill="#4A9ED5" d="M135.7,650.5c-1.3-0.7-2.6-1-3.8-1c-3.5,0-6.5,2.6-7.1,6.8c-3.8,24.2-7.4,48-11.3,72.2
		c-0.7,4.8-1.6,9.3-2.9,14.2c-0.7,2.9-3.2,4.2-6.5,4.2l0,0c-3.2,0-5.5-1.3-6.5-4.2c-0.7-1.6-1-3.2-1.3-4.8
		c-2.9-17.7-5.8-35.4-9-53.2c-1.3-8.4-2.9-16.7-4.8-24.8c-1-3.8-3.2-7.4-7.1-8.4c-2.6-0.7-5.1-1.3-7.8-1.3
		c-6.5,0-11.9,2.9-13.9,11.6c-0.3,1-0.7,2-0.7,2.9c-3.2,19-6.5,38.1-9.7,57.1c-1.3,6.8-2.3,13.2-3.8,20c-0.7,3.2-3.2,4.8-6.5,4.8
		l0,0c-3.5,0-5.8-1.6-6.8-4.8c-0.3-1.3-1-2.6-1-3.8c-2.9-18-5.5-35.8-8.4-53.8c-1.6-9.7-2.9-19.4-4.8-29c-0.3-1.6-2-3.8-3.5-4.5
		c-2-0.7-3.2-0.7-4.5-0.7c-3.8,0-4.8,2.6-4.2,8.7C3.5,681,7,703.6,10.6,726.2c1.3,7.4,2.3,14.8,4.8,21.6s10.3,10.9,18,10.9
		c4.5,0,8.7-1.3,11.9-4.2c1.3-1.3,2.6-2.6,3.2-4.2c1.3-2.6,2.6-5.5,2.9-8.4c3.5-21,6.8-41.6,10.3-62.5c1-4.8,1.6-10,2.6-14.8
		c0.3-2.3,1.6-3.5,3.8-3.5l0,0c2.3,0,3.5,1.6,3.8,3.5c0,0.7,0.3,1.3,0.7,2c2.3,14.2,4.5,28.7,7.1,42.9c2,11.6,3.5,23.2,6.1,34.8
		c2.3,10.3,7.8,13.9,18.4,13.9l0,0c10.6,0,16.1-4.2,19-14.5c0.7-2,1-3.8,1.3-5.8c3.5-21.3,6.8-42.5,10.3-63.8
		c1-6.5,2.3-13.2,2.9-19.7C137.6,653.4,137,651.1,135.7,650.5z"/>
	<path fill="#E0E0E0" d="M328.7,623.8c-3.5-23.8-23.2-41.9-47-41.9c-19.4,0-35.8,11.9-43.2,29.3c-24.5,3.8-44.2,22.5-50,47
		c1,0,2,0,2.9,0c3.2,0,6.8,0.3,10.3,0.7c8.7,1.3,16.1,4.2,21.6,8.4c5.5-7.4,14.2-7.4,17.1-7.4h0.7c12.2,0,20,6.1,23.2,18
		c1,3.2,2,6.8,2.6,10c4.8,3.8,8.7,5.5,11.9-1.6c0.7-2.9,1.3-5.8,2-8.4c2.6-10.9,12.2-18.4,23.2-18.4c4.2,0,8.4,1.3,11.9,3.2
		c8.1,4.8,10.3,14.8,8.7,21.9c-2.3,10.3-4.8,20.6-7.4,30.3v2.3l-2.3,9.3c-1,3.5-1.6,6.8-2.6,10.3c1,0,2,0,3.2,0
		c30.6,0,55.1-25.8,55.1-57.7C370.6,652.4,352.6,629.9,328.7,623.8z"/>
	<path fill="#4A9ED5" d="M210.5,751.4c0,4.5,1,5.5,6.1,5.5l0,0c5.1,0,6.1-0.7,6.1-5.5c0-6.5,0-13.2,0-19.7c-4.5-2-8.7-4.5-12.6-7.8
		C210.5,733,210.5,742.3,210.5,751.4z"/>
	<g>
		<path fill="#4A9ED5" d="M199.5,674.7c-2.9-0.3-5.5-0.7-8.4-0.7c-1.6,0-3.2,0-4.8,0.3c-7.1,1-14.2,3.8-20,10.6c0-2,0-2.9,0-4.2
			c0-11.3,0-22.5,0-33.8c0-4.2-1-4.8-4.8-5.1c-0.7,0-1.3,0-2,0c-4.8,0-5.5,1-5.5,7.4c0,1,0,2,0,2.9c0,31.9,0,63.8,0,95.7
			c0,1.6,0,2.9,0,4.5c0.3,3.8,1.3,4.5,5.8,4.5c0.3,0,0.7,0,1,0c4.2,0,5.1-1,5.1-4.8c0-7.1,0-14.5,0-21.6c0-9.3,0-18.7,0.3-28
			c0.3-8.1,5.1-13.9,12.9-15.1c2.6-0.3,5.1-0.7,7.8-0.7c0.7,0,1.3,0,2,0c2.3,0,4.5,0,6.8,0.3c9.3,1.3,13.6,6.5,13.9,16.1
			c0,1.3,0,2.9,0,4.2c0,5.8,0,11.3,0,17.1c3.8,2.9,8.1,5.8,12.6,7.8c0-10,0-20,0-30C222.7,686,215,676.9,199.5,674.7z"/>
		<path fill="#4A9ED5" d="M308.5,676.3c-1.3-0.7-2.6-1-3.8-1c-3.5,0-6.8,2.6-7.4,6.1c-2.3,8.7-4.2,17.1-6.1,25.8
			c-2.3,9.7-4.8,19.7-7.4,29.3c-0.3,1.3-0.7,2.6-1,3.8c-1.3,4.5-3.8,6.5-8.1,6.5c-0.3,0-0.3,0-0.7,0c-4.5,0-6.8-1.6-8.7-6.1
			c-0.7-1.3-1-2.6-1.3-4.2v-0.3c-4.8-18-10-36.1-14.8-54.1c-1.3-5.1-2.9-6.1-7.8-6.1h-0.3c-4.8,0-5.5,1.3-4.2,5.8
			c2,7.1,3.5,13.9,5.5,21c3.2,11.6,6.1,22.9,9.7,34.5c1,2.9,1.6,5.8,2.6,8.7c2.6,8.4,7.8,11.9,15.8,11.9c0.7,0,1.3,0,2,0
			c2,0,3.8-0.7,6.1-1c-3.5,12.9-9,23.5-24.2,24.5c-0.7,0-2.3,1-2.3,1.3c0.3,2.6,0.3,5.1,1.3,7.4c0.3,1,2.6,2,4.2,2c0,0,0,0,0.3,0
			c8.7-0.3,16.4-3.8,22.2-10.6c4.8-5.8,8.1-12.2,10-19.4c2.3-8.4,4.2-16.4,6.5-24.8c2-7.8,3.8-15.5,5.8-23.5
			c2.6-10.6,5.5-21.6,8.1-32.3C309.7,679.5,309.4,676.9,308.5,676.3z"/>
	</g>
</g>
</svg>
